<svg width="29" height="27" viewBox="0 0 29 27" fill="none" xmlns="http://www.w3.org/2000/svg">
<path d="M27.3516 26.1016V23.5625C25.8411 22.8594 24.5651 21.8828 23.5234 20.6328C22.4557 19.3568 21.9219 18.0156 21.9219 16.6094C21.9219 15.4635 22.2083 14.4609 22.7812 13.6016C23.3281 12.7161 24.1354 11.7656 25.2031 10.75C26.401 9.5 27.2344 8.54948 27.7031 7.89844C28.1719 7.22135 28.4062 6.36198 28.4062 5.32031C28.4062 4.14844 27.9245 3.10677 26.9609 2.19531C25.9974 1.28385 24.8516 0.828125 23.5234 0.828125C22.3516 0.828125 21.2188 1.25781 20.125 2.11719C19.0052 2.95052 18.0938 4.14844 17.3906 5.71094C16.6875 7.2474 16.3359 8.95312 16.3359 10.8281C16.3359 14.2396 17.2604 17.2344 19.1094 19.8125C20.9323 22.3906 23.6797 24.487 27.3516 26.1016ZM21.6875 20.2031C20.125 18.1979 19.3438 16.1667 19.3438 14.1094C19.3438 12.4948 19.6953 11.2448 20.3984 10.3594C22.5339 7.83333 23.7839 6.34896 24.1484 5.90625C24.487 5.46354 24.6562 5.03385 24.6562 4.61719C24.6562 3.60156 24.1484 2.79427 23.1328 2.19531H23.9922C25.0078 2.19531 25.7891 2.50781 26.3359 3.13281C26.8568 3.75781 27.1172 4.46094 27.1172 5.24219C27.1172 5.76302 26.987 6.28385 26.7266 6.80469C26.4401 7.32552 26.0755 7.82031 25.6328 8.28906C25.1901 8.75781 24.6172 9.34375 23.9141 10.0469C22.8984 11.0365 22.1042 12.013 21.5312 12.9766C20.9323 13.9401 20.6328 15.0469 20.6328 16.2969C20.6328 16.7396 20.6849 17.1823 20.7891 17.625C20.8932 18.0417 21.0495 18.5234 21.2578 19.0703C21.4661 19.5911 21.6094 19.9688 21.6875 20.2031ZM11.5312 26.1016V23.5625C9.99479 22.8073 8.71875 21.8177 7.70312 20.5938C6.66146 19.3438 6.14062 18.0156 6.14062 16.6094C6.14062 15.4375 6.42708 14.4089 7 13.5234C7.57292 12.612 8.35417 11.6875 9.34375 10.75C10.5417 9.5 11.375 8.54948 11.8438 7.89844C12.3125 7.22135 12.5469 6.36198 12.5469 5.32031C12.5469 4.1224 12.0651 3.08073 11.1016 2.19531C10.112 1.28385 8.96615 0.828125 7.66406 0.828125C6.54427 0.828125 5.42448 1.25781 4.30469 2.11719C3.1849 2.95052 2.27344 4.14844 1.57031 5.71094C0.841146 7.2474 0.476562 8.95312 0.476562 10.8281C0.476562 17.8073 4.16146 22.8984 11.5312 26.1016ZM5.82812 20.2031C4.29167 18.3281 3.52344 16.2969 3.52344 14.1094C3.52344 12.4427 3.875 11.1927 4.57812 10.3594C5.82812 8.875 6.73958 7.80729 7.3125 7.15625C7.85938 6.47917 8.25 5.97135 8.48438 5.63281C8.69271 5.26823 8.79688 4.92969 8.79688 4.61719C8.79688 4.14844 8.71875 3.77083 8.5625 3.48438C8.38021 3.17188 8.17188 2.91146 7.9375 2.70312C7.67708 2.49479 7.45573 2.32552 7.27344 2.19531H8.17188C9.16146 2.19531 9.92969 2.50781 10.4766 3.13281C11.0234 3.75781 11.2969 4.46094 11.2969 5.24219C11.2969 5.60677 11.2318 5.98438 11.1016 6.375C10.9453 6.73958 10.6458 7.20833 10.2031 7.78125C9.76042 8.32812 9.40885 8.73177 9.14844 8.99219C8.88802 9.2526 8.5625 9.57812 8.17188 9.96875C7.13021 10.9583 6.32292 11.9479 5.75 12.9375C5.17708 13.901 4.89062 15.0208 4.89062 16.2969C4.89062 17.3385 5.20312 18.6406 5.82812 20.2031Z" fill="white"/>
</svg>
