<svg width="211" height="158" viewBox="0 0 211 158" fill="none" xmlns="http://www.w3.org/2000/svg">
<path d="M0 152.269C0 152.273 0.00301536 152.276 0.00678204 152.276C0.0105487 152.276 0.0135641 152.273 0.0135641 152.269C0.0135641 152.266 0.0105487 152.263 0.00678204 152.263C0.00301536 152.263 0 152.266 0 152.269Z" fill="#DFF3F3"/>
<path d="M4.91602 144.544C4.91602 144.549 4.9194 144.552 4.92392 144.552C4.92807 144.552 4.93183 144.549 4.93183 144.544C4.93183 144.54 4.92844 144.536 4.92392 144.536C4.91978 144.537 4.91602 144.54 4.91602 144.544Z" fill="#DFF3F3"/>
<path d="M10.2988 137.136C10.2988 137.141 10.3026 137.145 10.3075 137.145C10.3124 137.145 10.3161 137.141 10.3161 137.136C10.3161 137.131 10.3124 137.127 10.3075 137.127C10.303 137.127 10.2988 137.131 10.2988 137.136Z" fill="#DFF3F3"/>
<path d="M16.1602 130.104C16.1602 130.109 16.1643 130.113 16.1699 130.113C16.1756 130.113 16.1797 130.109 16.1797 130.104C16.1797 130.098 16.1756 130.094 16.1699 130.094C16.1643 130.094 16.1602 130.098 16.1602 130.104Z" fill="#DFF3F3"/>
<path d="M22.5176 123.516C22.5176 123.522 22.5225 123.526 22.5281 123.526C22.5342 123.526 22.5387 123.522 22.5387 123.516C22.5387 123.51 22.5338 123.505 22.5281 123.505C22.5225 123.505 22.5176 123.51 22.5176 123.516Z" fill="#DFF3F3"/>
<path d="M29.3886 117.465C29.3951 117.465 29.4003 117.46 29.4003 117.454C29.4003 117.447 29.3951 117.442 29.3886 117.442C29.3822 117.442 29.377 117.447 29.377 117.454C29.377 117.46 29.3822 117.465 29.3886 117.465Z" fill="#DFF3F3"/>
<path d="M36.7441 112.022C36.7441 112.029 36.7498 112.034 36.7566 112.034C36.7633 112.034 36.769 112.028 36.769 112.022C36.769 112.015 36.7633 112.009 36.7566 112.009C36.7498 112.009 36.7441 112.015 36.7441 112.022Z" fill="#DFF3F3"/>
<path d="M44.7148 107.538C44.7148 107.545 44.7209 107.552 44.7284 107.552C44.7359 107.552 44.742 107.545 44.742 107.538C44.742 107.53 44.7359 107.524 44.7284 107.524C44.7209 107.524 44.7148 107.53 44.7148 107.538Z" fill="#DFF3F3"/>
<path d="M53.3789 104.606C53.3789 104.614 53.3851 104.62 53.3931 104.62C53.4007 104.62 53.4069 104.614 53.4069 104.606C53.4069 104.598 53.4007 104.592 53.3931 104.592C53.3851 104.592 53.3789 104.598 53.3789 104.606Z" fill="#DFF3F3"/>
<path d="M62.3848 102.986C62.3848 102.994 62.3913 103.001 62.3996 103.001C62.408 103.001 62.4145 102.994 62.4145 102.986C62.4145 102.978 62.408 102.971 62.3996 102.971C62.3913 102.971 62.3848 102.978 62.3848 102.986Z" fill="#DFF3F3"/>
<path d="M71.5117 102.277C71.5117 102.286 71.519 102.293 71.5277 102.293C71.5364 102.293 71.5437 102.286 71.5437 102.277C71.5437 102.269 71.5364 102.262 71.5277 102.262C71.519 102.262 71.5117 102.269 71.5117 102.277Z" fill="#DFF3F3"/>
<path d="M80.666 102.083C80.666 102.092 80.6736 102.099 80.6827 102.099C80.6922 102.099 80.6994 102.092 80.6994 102.083C80.6994 102.074 80.6918 102.066 80.6827 102.066C80.6736 102.066 80.666 102.073 80.666 102.083Z" fill="#DFF3F3"/>
<path d="M89.8223 102.052C89.8223 102.062 89.8303 102.07 89.8401 102.07C89.8499 102.07 89.8579 102.062 89.8579 102.052C89.8579 102.043 89.8499 102.035 89.8401 102.035C89.8303 102.035 89.8223 102.043 89.8223 102.052Z" fill="#DFF3F3"/>
<path d="M98.9766 101.838C98.9766 101.848 98.9849 101.856 98.9955 101.856C99.0056 101.856 99.0144 101.848 99.0144 101.838C99.0144 101.827 99.006 101.819 98.9955 101.819C98.9849 101.819 98.9766 101.827 98.9766 101.838Z" fill="#DFF3F3"/>
<path d="M108.098 101.066C108.098 101.077 108.106 101.086 108.117 101.086C108.128 101.086 108.137 101.077 108.137 101.066C108.137 101.056 108.128 101.047 108.117 101.047C108.106 101.047 108.098 101.056 108.098 101.066Z" fill="#DFF3F3"/>
<path d="M117.072 99.2849C117.072 99.2961 117.081 99.3056 117.093 99.3056C117.105 99.3056 117.114 99.2965 117.114 99.2849C117.114 99.2732 117.105 99.2642 117.093 99.2642C117.081 99.2642 117.072 99.2732 117.072 99.2849Z" fill="#DFF3F3"/>
<path d="M125.615 96.0301C125.615 96.0421 125.625 96.0519 125.637 96.0519C125.649 96.0519 125.658 96.0421 125.658 96.0301C125.658 96.0181 125.648 96.0083 125.637 96.0083C125.625 96.0083 125.615 96.0181 125.615 96.0301Z" fill="#DFF3F3"/>
<path d="M133.252 91.0123C133.252 91.0246 133.262 91.0348 133.274 91.0348C133.287 91.0348 133.297 91.0246 133.297 91.0123C133.297 90.9999 133.287 90.9897 133.274 90.9897C133.262 90.9897 133.252 90.9999 133.252 91.0123Z" fill="#DFF3F3"/>
<path d="M139.629 84.4591C139.642 84.4591 139.652 84.4487 139.652 84.4358C139.652 84.423 139.642 84.4126 139.629 84.4126C139.616 84.4126 139.605 84.423 139.605 84.4358C139.605 84.4487 139.616 84.4591 139.629 84.4591Z" fill="#DFF3F3"/>
<path d="M144.944 77.0094C144.957 77.0094 144.968 76.9986 144.968 76.9854C144.968 76.9722 144.957 76.9614 144.944 76.9614C144.931 76.9614 144.92 76.9722 144.92 76.9854C144.92 76.9986 144.931 77.0094 144.944 77.0094Z" fill="#DFF3F3"/>
<path d="M149.427 69.0282C149.44 69.0282 149.451 69.0173 149.451 69.0038C149.451 68.9904 149.44 68.9795 149.427 68.9795C149.413 68.9795 149.402 68.9904 149.402 69.0038C149.402 69.0173 149.413 69.0282 149.427 69.0282Z" fill="#DFF3F3"/>
<path d="M153.32 60.7411C153.334 60.7411 153.345 60.7298 153.345 60.716C153.345 60.7021 153.334 60.6909 153.32 60.6909C153.306 60.6909 153.295 60.7021 153.295 60.716C153.295 60.7298 153.306 60.7411 153.32 60.7411Z" fill="#DFF3F3"/>
<path d="M156.861 52.2836C156.861 52.2978 156.873 52.3091 156.887 52.3091C156.901 52.3091 156.912 52.2974 156.912 52.2836C156.912 52.2694 156.901 52.2578 156.887 52.2578C156.873 52.2578 156.861 52.2694 156.861 52.2836Z" fill="#DFF3F3"/>
<path d="M160.363 43.8221C160.363 43.8366 160.375 43.8482 160.389 43.8482C160.404 43.8482 160.416 43.8366 160.416 43.8221C160.416 43.8075 160.404 43.7959 160.389 43.7959C160.375 43.7959 160.363 43.8075 160.363 43.8221Z" fill="#DFF3F3"/>
<path d="M164.095 35.4732C164.11 35.4732 164.122 35.4612 164.122 35.4463C164.122 35.4315 164.11 35.4194 164.095 35.4194C164.08 35.4194 164.068 35.4315 164.068 35.4463C164.068 35.4612 164.08 35.4732 164.095 35.4732Z" fill="#DFF3F3"/>
<path d="M168.267 27.3245C168.283 27.3245 168.295 27.3123 168.295 27.2973C168.295 27.2822 168.283 27.27 168.267 27.27C168.252 27.27 168.24 27.2822 168.24 27.2973C168.24 27.3123 168.252 27.3245 168.267 27.3245Z" fill="#DFF3F3"/>
<path d="M173.174 19.5965C173.19 19.5965 173.202 19.584 173.202 19.5685C173.202 19.5531 173.19 19.5405 173.174 19.5405C173.159 19.5405 173.146 19.5531 173.146 19.5685C173.146 19.584 173.159 19.5965 173.174 19.5965Z" fill="#DFF3F3"/>
<path d="M178.994 12.5326C178.994 12.5482 179.007 12.5609 179.022 12.5609C179.038 12.5609 179.051 12.5482 179.051 12.5326C179.051 12.517 179.038 12.5039 179.022 12.5039C179.007 12.5039 178.994 12.5166 178.994 12.5326Z" fill="#DFF3F3"/>
<path d="M185.865 6.49538C185.865 6.51136 185.878 6.52444 185.894 6.52444C185.91 6.52444 185.923 6.51136 185.923 6.49538C185.923 6.47939 185.91 6.46631 185.894 6.46631C185.878 6.46631 185.865 6.47939 185.865 6.49538Z" fill="#DFF3F3"/>
<path d="M193.869 2.10743C193.869 2.12378 193.883 2.13722 193.899 2.13722C193.915 2.13722 193.929 2.12378 193.929 2.10743C193.929 2.09108 193.915 2.07764 193.899 2.07764C193.883 2.07764 193.869 2.09072 193.869 2.10743Z" fill="#DFF3F3"/>
<path d="M202.794 0.0610399C202.811 0.0610399 202.825 0.0473757 202.825 0.0305199C202.825 0.0136642 202.811 0 202.794 0C202.777 0 202.764 0.0136642 202.764 0.0305199C202.764 0.0473757 202.777 0.0610399 202.794 0.0610399Z" fill="#DFF3F3"/>
<path d="M9.06262 150.044C9.11339 150.044 9.15454 150.003 9.15454 149.952C9.15454 149.902 9.11339 149.86 9.06262 149.86C9.01186 149.86 8.9707 149.902 8.9707 149.952C8.9707 150.003 9.01186 150.044 9.06262 150.044Z" fill="#DFF3F3"/>
<path d="M14.4453 142.446C14.3904 142.446 14.3457 142.49 14.3457 142.545C14.3457 142.6 14.3904 142.645 14.4453 142.645C14.5001 142.645 14.5448 142.6 14.5448 142.545C14.5448 142.49 14.5005 142.446 14.4453 142.446Z" fill="#DFF3F3"/>
<path d="M20.3083 135.403C20.2491 135.403 20.2012 135.451 20.2012 135.511C20.2012 135.57 20.2491 135.618 20.3083 135.618C20.3676 135.618 20.4155 135.57 20.4155 135.511C20.4155 135.451 20.3676 135.403 20.3083 135.403Z" fill="#DFF3F3"/>
<path d="M26.6656 128.807C26.602 128.807 26.5508 128.858 26.5508 128.921C26.5508 128.985 26.6024 129.036 26.6656 129.036C26.7288 129.036 26.7804 128.985 26.7804 128.921C26.7808 128.858 26.7292 128.807 26.6656 128.807Z" fill="#DFF3F3"/>
<path d="M33.5287 122.741C33.4611 122.741 33.4062 122.796 33.4062 122.863C33.4062 122.931 33.4611 122.986 33.5287 122.986C33.5963 122.986 33.6511 122.931 33.6511 122.863C33.6511 122.796 33.5963 122.741 33.5287 122.741Z" fill="#DFF3F3"/>
<path d="M40.8977 117.299C40.8257 117.299 40.7676 117.358 40.7676 117.429C40.7676 117.501 40.8257 117.559 40.8977 117.559C40.9696 117.559 41.0277 117.501 41.0277 117.429C41.0277 117.358 40.9696 117.299 40.8977 117.299Z" fill="#DFF3F3"/>
<path d="M48.8682 113.084C48.9442 113.084 49.0059 113.022 49.0059 112.946C49.0059 112.87 48.9442 112.809 48.8682 112.809C48.7921 112.809 48.7305 112.87 48.7305 112.946C48.7305 113.022 48.7921 113.084 48.8682 113.084Z" fill="#DFF3F3"/>
<path d="M57.532 110.159C57.6123 110.159 57.6774 110.094 57.6774 110.014C57.6774 109.933 57.6123 109.868 57.532 109.868C57.4518 109.868 57.3867 109.933 57.3867 110.014C57.3867 110.094 57.4518 110.159 57.532 110.159Z" fill="#DFF3F3"/>
<path d="M66.5397 108.547C66.6242 108.547 66.6927 108.479 66.6927 108.394C66.6927 108.31 66.6242 108.241 66.5397 108.241C66.4552 108.241 66.3867 108.31 66.3867 108.394C66.3867 108.479 66.4552 108.547 66.5397 108.547Z" fill="#DFF3F3"/>
<path d="M75.6645 107.845C75.7532 107.845 75.8251 107.773 75.8251 107.684C75.8251 107.595 75.7532 107.523 75.6645 107.523C75.5758 107.523 75.5039 107.595 75.5039 107.684C75.5039 107.773 75.5758 107.845 75.6645 107.845Z" fill="#DFF3F3"/>
<path d="M84.8206 107.322C84.7276 107.322 84.6523 107.397 84.6523 107.49C84.6523 107.583 84.7276 107.658 84.8206 107.658C84.9136 107.658 84.9888 107.583 84.9888 107.49C84.9888 107.397 84.9136 107.322 84.8206 107.322Z" fill="#DFF3F3"/>
<path d="M93.9786 107.285C93.8816 107.285 93.8027 107.364 93.8027 107.461C93.8027 107.558 93.8816 107.636 93.9786 107.636C94.0756 107.636 94.1544 107.558 94.1544 107.461C94.1544 107.364 94.0756 107.285 93.9786 107.285Z" fill="#DFF3F3"/>
<path d="M103.133 107.063C103.031 107.063 102.949 107.146 102.949 107.247C102.949 107.348 103.031 107.43 103.133 107.43C103.234 107.43 103.316 107.348 103.316 107.247C103.316 107.146 103.234 107.063 103.133 107.063Z" fill="#DFF3F3"/>
<path d="M112.256 106.665C112.361 106.665 112.447 106.579 112.447 106.474C112.447 106.368 112.361 106.283 112.256 106.283C112.15 106.283 112.064 106.368 112.064 106.474C112.064 106.579 112.15 106.665 112.256 106.665Z" fill="#DFF3F3"/>
<path d="M121.232 104.495C121.122 104.495 121.033 104.584 121.033 104.693C121.033 104.803 121.122 104.892 121.232 104.892C121.342 104.892 121.431 104.803 121.431 104.693C121.431 104.584 121.342 104.495 121.232 104.495Z" fill="#DFF3F3"/>
<path d="M129.775 101.233C129.661 101.233 129.568 101.325 129.568 101.439C129.568 101.553 129.661 101.646 129.775 101.646C129.889 101.646 129.981 101.553 129.981 101.439C129.981 101.325 129.889 101.233 129.775 101.233Z" fill="#DFF3F3"/>
<path d="M137.411 96.209C137.293 96.209 137.197 96.3049 137.197 96.423C137.197 96.5411 137.293 96.637 137.411 96.637C137.529 96.637 137.625 96.5411 137.625 96.423C137.625 96.3049 137.529 96.209 137.411 96.209Z" fill="#DFF3F3"/>
<path d="M143.765 89.6265C143.642 89.6265 143.543 89.7256 143.543 89.8481C143.543 89.9705 143.642 90.0697 143.765 90.0697C143.887 90.0697 143.986 89.9705 143.986 89.8481C143.986 89.7256 143.887 89.6265 143.765 89.6265Z" fill="#DFF3F3"/>
<path d="M149.081 82.1665C148.954 82.1665 148.852 82.2693 148.852 82.3958C148.852 82.5222 148.954 82.625 149.081 82.625C149.207 82.625 149.31 82.5226 149.31 82.3958C149.31 82.269 149.207 82.1665 149.081 82.1665Z" fill="#DFF3F3"/>
<path d="M153.565 74.1787C153.434 74.1787 153.328 74.2848 153.328 74.4156C153.328 74.5464 153.434 74.6525 153.565 74.6525C153.696 74.6525 153.802 74.5464 153.802 74.4156C153.802 74.2848 153.696 74.1787 153.565 74.1787Z" fill="#DFF3F3"/>
<path d="M157.459 65.8848C157.324 65.8848 157.215 65.9945 157.215 66.1293C157.215 66.2641 157.324 66.3738 157.459 66.3738C157.595 66.3738 157.704 66.2645 157.704 66.1293C157.704 65.9941 157.595 65.8848 157.459 65.8848Z" fill="#DFF3F3"/>
<path d="M161.024 57.4429C160.884 57.4429 160.771 57.5559 160.771 57.695C160.771 57.8342 160.884 57.9472 161.024 57.9472C161.163 57.9472 161.276 57.8342 161.276 57.695C161.276 57.5559 161.163 57.4429 161.024 57.4429Z" fill="#DFF3F3"/>
<path d="M164.527 48.9756C164.384 48.9756 164.268 49.0919 164.268 49.2354C164.268 49.3789 164.384 49.4952 164.527 49.4952C164.671 49.4952 164.787 49.3789 164.787 49.2354C164.787 49.0919 164.671 48.9756 164.527 48.9756Z" fill="#DFF3F3"/>
<path d="M168.232 40.5903C168.085 40.5903 167.965 40.7099 167.965 40.8577C167.965 41.0056 168.084 41.1252 168.232 41.1252C168.38 41.1252 168.5 41.0056 168.5 40.8577C168.5 40.7099 168.38 40.5903 168.232 40.5903Z" fill="#DFF3F3"/>
<path d="M172.406 32.4351C172.254 32.4351 172.131 32.5582 172.131 32.7101C172.131 32.862 172.254 32.9851 172.406 32.9851C172.558 32.9851 172.681 32.862 172.681 32.7101C172.681 32.5582 172.558 32.4351 172.406 32.4351Z" fill="#DFF3F3"/>
<path d="M177.31 24.7002C177.154 24.7002 177.027 24.827 177.027 24.9829C177.027 25.1387 177.154 25.2655 177.31 25.2655C177.466 25.2655 177.593 25.1391 177.593 24.9829C177.593 24.8266 177.466 24.7002 177.31 24.7002Z" fill="#DFF3F3"/>
<path d="M183.157 17.6548C182.997 17.6548 182.867 17.7849 182.867 17.9451C182.867 18.1053 182.997 18.2354 183.157 18.2354C183.318 18.2354 183.448 18.1053 183.448 17.9451C183.448 17.7849 183.318 17.6548 183.157 17.6548Z" fill="#DFF3F3"/>
<path d="M190.028 12.2048C190.193 12.2048 190.326 12.0714 190.326 11.9068C190.326 11.7423 190.193 11.6089 190.028 11.6089C189.864 11.6089 189.73 11.7423 189.73 11.9068C189.73 12.0714 189.864 12.2048 190.028 12.2048Z" fill="#DFF3F3"/>
<path d="M198.032 7.82304C198.201 7.82304 198.338 7.68624 198.338 7.51748C198.338 7.34872 198.201 7.21191 198.032 7.21191C197.863 7.21191 197.727 7.34872 197.727 7.51748C197.727 7.68624 197.863 7.82304 198.032 7.82304Z" fill="#DFF3F3"/>
<path d="M206.928 5.12549C206.756 5.12549 206.615 5.26574 206.615 5.43868C206.615 5.61163 206.756 5.75188 206.928 5.75188C207.101 5.75188 207.242 5.61163 207.242 5.43868C207.242 5.26574 207.101 5.12549 206.928 5.12549Z" fill="#DFF3F3"/>
<path d="M13.2008 155.145C13.0802 155.145 12.9824 155.242 12.9824 155.363C12.9824 155.484 13.0802 155.581 13.2008 155.581C13.3214 155.581 13.4192 155.484 13.4192 155.363C13.4192 155.242 13.3214 155.145 13.2008 155.145Z" fill="#DFF3F3"/>
<path d="M18.5842 148.188C18.7117 148.188 18.815 148.085 18.815 147.958C18.815 147.83 18.7117 147.727 18.5842 147.727C18.4568 147.727 18.3535 147.83 18.3535 147.958C18.3535 148.085 18.4568 148.188 18.5842 148.188Z" fill="#DFF3F3"/>
<path d="M24.4462 140.679C24.3118 140.679 24.2031 140.788 24.2031 140.922C24.2031 141.057 24.3121 141.165 24.4462 141.165C24.5806 141.165 24.6896 141.057 24.6896 140.922C24.6893 140.788 24.5803 140.679 24.4462 140.679Z" fill="#DFF3F3"/>
<path d="M30.8046 134.08C30.6633 134.08 30.5488 134.194 30.5488 134.335C30.5488 134.477 30.6633 134.591 30.8046 134.591C30.9459 134.591 31.0604 134.477 31.0604 134.335C31.0604 134.194 30.9459 134.08 30.8046 134.08Z" fill="#DFF3F3"/>
<path d="M37.6666 128.005C37.5183 128.005 37.3984 128.125 37.3984 128.273C37.3984 128.421 37.5187 128.541 37.6666 128.541C37.8148 128.541 37.9347 128.421 37.9347 128.273C37.9347 128.125 37.8144 128.005 37.6666 128.005Z" fill="#DFF3F3"/>
<path d="M45.0344 123.122C45.1893 123.122 45.3149 122.996 45.3149 122.841C45.3149 122.686 45.1893 122.561 45.0344 122.561C44.8795 122.561 44.7539 122.686 44.7539 122.841C44.7539 122.996 44.8795 123.122 45.0344 123.122Z" fill="#DFF3F3"/>
<path d="M53.0061 118.064C52.8441 118.064 52.7129 118.196 52.7129 118.358C52.7129 118.52 52.8441 118.651 53.0061 118.651C53.1682 118.651 53.2993 118.52 53.2993 118.358C53.2993 118.196 53.1678 118.064 53.0061 118.064Z" fill="#DFF3F3"/>
<path d="M61.6688 115.732C61.8376 115.732 61.9744 115.595 61.9744 115.426C61.9744 115.257 61.8376 115.121 61.6688 115.121C61.5001 115.121 61.3633 115.257 61.3633 115.426C61.3633 115.595 61.5001 115.732 61.6688 115.732Z" fill="#DFF3F3"/>
<path d="M70.6773 113.489C70.5014 113.489 70.3594 113.631 70.3594 113.807C70.3594 113.982 70.5018 114.125 70.6773 114.125C70.8531 114.125 70.9956 113.982 70.9956 113.807C70.9956 113.631 70.8531 113.489 70.6773 113.489Z" fill="#DFF3F3"/>
<path d="M79.8052 113.426C79.9878 113.426 80.1359 113.278 80.1359 113.095C80.1359 112.913 79.9878 112.765 79.8052 112.765C79.6226 112.765 79.4746 112.913 79.4746 113.095C79.4746 113.278 79.6226 113.426 79.8052 113.426Z" fill="#DFF3F3"/>
<path d="M88.9582 112.558C88.7689 112.558 88.6152 112.711 88.6152 112.901C88.6152 113.09 88.7689 113.244 88.9582 113.244C89.1475 113.244 89.3012 113.09 89.3012 112.901C89.3012 112.711 89.1475 112.558 88.9582 112.558Z" fill="#DFF3F3"/>
<path d="M98.1174 113.227C98.3139 113.227 98.4731 113.067 98.4731 112.871C98.4731 112.674 98.3139 112.515 98.1174 112.515C97.921 112.515 97.7617 112.674 97.7617 112.871C97.7617 113.067 97.921 113.227 98.1174 113.227Z" fill="#DFF3F3"/>
<path d="M107.27 112.291C107.067 112.291 106.902 112.455 106.902 112.659C106.902 112.862 107.067 113.027 107.27 113.027C107.474 113.027 107.638 112.862 107.638 112.659C107.638 112.455 107.474 112.291 107.27 112.291Z" fill="#DFF3F3"/>
<path d="M116.394 111.504C116.184 111.504 116.014 111.675 116.014 111.885C116.014 112.095 116.184 112.265 116.394 112.265C116.604 112.265 116.774 112.095 116.774 111.885C116.774 111.675 116.604 111.504 116.394 111.504Z" fill="#DFF3F3"/>
<path d="M125.37 109.713C125.153 109.713 124.977 109.889 124.977 110.107C124.977 110.324 125.152 110.5 125.37 110.5C125.587 110.5 125.762 110.324 125.762 110.107C125.762 109.89 125.587 109.713 125.37 109.713Z" fill="#DFF3F3"/>
<path d="M133.913 106.446C133.689 106.446 133.508 106.628 133.508 106.852C133.508 107.076 133.689 107.257 133.913 107.257C134.137 107.257 134.319 107.076 134.319 106.852C134.319 106.628 134.137 106.446 133.913 106.446Z" fill="#DFF3F3"/>
<path d="M141.549 101.417C141.318 101.417 141.131 101.604 141.131 101.834C141.131 102.065 141.318 102.252 141.549 102.252C141.779 102.252 141.967 102.065 141.967 101.834C141.967 101.604 141.779 101.417 141.549 101.417Z" fill="#DFF3F3"/>
<path d="M147.903 94.8281C147.666 94.8281 147.473 95.0207 147.473 95.2587C147.473 95.4967 147.665 95.6892 147.903 95.6892C148.141 95.6892 148.334 95.4967 148.334 95.2587C148.334 95.0207 148.141 94.8281 147.903 94.8281Z" fill="#DFF3F3"/>
<path d="M153.22 87.3652C152.976 87.3652 152.777 87.5632 152.777 87.8081C152.777 88.053 152.976 88.251 153.22 88.251C153.465 88.251 153.663 88.053 153.663 87.8081C153.663 87.5632 153.465 87.3652 153.22 87.3652Z" fill="#DFF3F3"/>
<path d="M157.703 79.3721C157.452 79.3721 157.248 79.5759 157.248 79.8273C157.248 80.0788 157.452 80.2826 157.703 80.2826C157.955 80.2826 158.159 80.0788 158.159 79.8273C158.159 79.5759 157.955 79.3721 157.703 79.3721Z" fill="#DFF3F3"/>
<path d="M161.597 72.0082C161.855 72.0082 162.065 71.7987 162.065 71.5402C162.065 71.2818 161.855 71.0723 161.597 71.0723C161.338 71.0723 161.129 71.2818 161.129 71.5402C161.129 71.7987 161.338 72.0082 161.597 72.0082Z" fill="#DFF3F3"/>
<path d="M165.164 63.5852C165.429 63.5852 165.644 63.3701 165.644 63.1048C165.644 62.8396 165.429 62.6245 165.164 62.6245C164.899 62.6245 164.684 62.8396 164.684 63.1048C164.684 63.3701 164.899 63.5852 165.164 63.5852Z" fill="#DFF3F3"/>
<path d="M168.667 54.1519C168.394 54.1519 168.174 54.3724 168.174 54.6445C168.174 54.9167 168.394 55.1372 168.667 55.1372C168.939 55.1372 169.159 54.9167 169.159 54.6445C169.159 54.3728 168.939 54.1519 168.667 54.1519Z" fill="#DFF3F3"/>
<path d="M172.371 45.7666C172.092 45.7666 171.865 45.993 171.865 46.272C171.865 46.551 172.092 46.7774 172.371 46.7774C172.65 46.7774 172.876 46.551 172.876 46.272C172.876 45.993 172.65 45.7666 172.371 45.7666Z" fill="#DFF3F3"/>
<path d="M176.543 38.6385C176.829 38.6385 177.061 38.4067 177.061 38.1208C177.061 37.8348 176.829 37.603 176.543 37.603C176.257 37.603 176.025 37.8348 176.025 38.1208C176.025 38.4067 176.257 38.6385 176.543 38.6385Z" fill="#DFF3F3"/>
<path d="M181.448 30.9254C181.741 30.9254 181.978 30.6881 181.978 30.3953C181.978 30.1026 181.741 29.8652 181.448 29.8652C181.155 29.8652 180.918 30.1026 180.918 30.3953C180.918 30.6881 181.155 30.9254 181.448 30.9254Z" fill="#DFF3F3"/>
<path d="M187.297 22.814C186.997 22.814 186.754 23.0567 186.754 23.3568C186.754 23.6565 186.997 23.8992 187.297 23.8992C187.596 23.8992 187.84 23.6565 187.84 23.3568C187.839 23.0567 187.596 22.814 187.297 22.814Z" fill="#DFF3F3"/>
<path d="M194.166 16.7622C193.86 16.7622 193.611 17.0107 193.611 17.3174C193.611 17.624 193.86 17.8726 194.166 17.8726C194.473 17.8726 194.722 17.624 194.722 17.3174C194.722 17.0107 194.473 16.7622 194.166 16.7622Z" fill="#DFF3F3"/>
<path d="M202.171 13.4974C202.484 13.4974 202.739 13.2433 202.739 12.9298C202.739 12.6164 202.484 12.3623 202.171 12.3623C201.858 12.3623 201.604 12.6164 201.604 12.9298C201.604 13.2433 201.858 13.4974 202.171 13.4974Z" fill="#DFF3F3"/>
<path d="M210.486 10.8504C210.486 10.8999 210.493 10.948 210.504 10.9938C210.567 11.2397 210.841 11.104 210.841 10.8504C210.841 10.5967 210.567 10.4611 210.504 10.707C210.493 10.7528 210.486 10.8009 210.486 10.8504Z" fill="#DFF3F3"/>
<path d="M22.7246 152.968C22.5034 152.968 22.3242 153.148 22.3242 153.369C22.3242 153.59 22.5034 153.769 22.7246 153.769C22.9459 153.769 23.125 153.59 23.125 153.369C23.125 153.148 22.9459 152.968 22.7246 152.968Z" fill="#DFF3F3"/>
<path d="M28.5879 145.92C28.3583 145.92 28.1719 146.106 28.1719 146.336C28.1719 146.565 28.3579 146.752 28.5879 146.752C28.8179 146.752 29.0039 146.566 29.0039 146.336C29.0035 146.106 28.8175 145.92 28.5879 145.92Z" fill="#DFF3F3"/>
<path d="M34.945 139.317C34.707 139.317 34.5137 139.511 34.5137 139.749C34.5137 139.987 34.7066 140.18 34.945 140.18C35.1833 140.18 35.3762 139.987 35.3762 139.749C35.3762 139.51 35.1833 139.317 34.945 139.317Z" fill="#DFF3F3"/>
<path d="M41.8079 133.24C41.5612 133.24 41.3613 133.44 41.3613 133.687C41.3613 133.933 41.5612 134.133 41.8079 134.133C42.0546 134.133 42.2544 133.933 42.2544 133.687C42.2544 133.44 42.0542 133.24 41.8079 133.24Z" fill="#DFF3F3"/>
<path d="M49.1766 127.793C48.9216 127.793 48.7148 128 48.7148 128.255C48.7148 128.51 48.9216 128.717 49.1766 128.717C49.4317 128.717 49.6384 128.51 49.6384 128.255C49.6384 128 49.4317 127.793 49.1766 127.793Z" fill="#DFF3F3"/>
<path d="M57.147 123.294C56.8836 123.294 56.6699 123.508 56.6699 123.771C56.6699 124.035 56.8836 124.248 57.147 124.248C57.4104 124.248 57.6241 124.034 57.6241 123.771C57.6241 123.508 57.4104 123.294 57.147 123.294Z" fill="#DFF3F3"/>
<path d="M65.811 121.33C66.0831 121.33 66.3037 121.11 66.3037 120.837C66.3037 120.565 66.0831 120.345 65.811 120.345C65.5389 120.345 65.3184 120.565 65.3184 120.837C65.3184 121.11 65.5389 121.33 65.811 121.33Z" fill="#DFF3F3"/>
<path d="M74.8185 118.71C74.538 118.71 74.3105 118.937 74.3105 119.218C74.3105 119.498 74.538 119.726 74.8185 119.726C75.099 119.726 75.3264 119.498 75.3264 119.218C75.3264 118.937 75.099 118.71 74.8185 118.71Z" fill="#DFF3F3"/>
<path d="M83.9451 117.986C83.6562 117.986 83.4219 118.22 83.4219 118.509C83.4219 118.798 83.6562 119.032 83.9451 119.032C84.2339 119.032 84.4683 118.798 84.4683 118.509C84.4683 118.22 84.2343 117.986 83.9451 117.986Z" fill="#DFF3F3"/>
<path d="M93.099 117.776C92.8014 117.776 92.5605 118.017 92.5605 118.314C92.5605 118.612 92.8018 118.853 93.099 118.853C93.3966 118.853 93.6375 118.612 93.6375 118.314C93.6375 118.017 93.3966 117.776 93.099 117.776Z" fill="#DFF3F3"/>
<path d="M102.259 117.73C101.953 117.73 101.705 117.979 101.705 118.284C101.705 118.59 101.953 118.838 102.259 118.838C102.565 118.838 102.813 118.59 102.813 118.284C102.813 117.979 102.565 117.73 102.259 117.73Z" fill="#DFF3F3"/>
<path d="M111.413 117.503C111.099 117.503 110.844 117.758 110.844 118.073C110.844 118.387 111.099 118.642 111.413 118.642C111.727 118.642 111.982 118.387 111.982 118.073C111.982 117.758 111.727 117.503 111.413 117.503Z" fill="#DFF3F3"/>
<path d="M120.536 116.714C120.213 116.714 119.951 116.976 119.951 117.299C119.951 117.622 120.213 117.884 120.536 117.884C120.859 117.884 121.12 117.622 121.12 117.299C121.12 116.976 120.859 116.714 120.536 116.714Z" fill="#DFF3F3"/>
<path d="M129.51 114.92C129.179 114.92 128.91 115.189 128.91 115.52C128.91 115.852 129.179 116.12 129.51 116.12C129.841 116.12 130.11 115.852 130.11 115.52C130.11 115.189 129.841 114.92 129.51 114.92Z" fill="#DFF3F3"/>
<path d="M138.055 111.647C137.715 111.647 137.439 111.923 137.439 112.263C137.439 112.603 137.715 112.878 138.055 112.878C138.395 112.878 138.67 112.603 138.67 112.263C138.67 111.923 138.395 111.647 138.055 111.647Z" fill="#DFF3F3"/>
<path d="M145.691 106.615C145.343 106.615 145.061 106.897 145.061 107.246C145.061 107.594 145.343 107.876 145.691 107.876C146.04 107.876 146.322 107.594 146.322 107.246C146.322 106.897 146.039 106.615 145.691 106.615Z" fill="#DFF3F3"/>
<path d="M152.044 100.026C151.688 100.026 151.398 100.316 151.398 100.672C151.398 101.029 151.688 101.318 152.044 101.318C152.401 101.318 152.69 101.029 152.69 100.672C152.69 100.316 152.401 100.026 152.044 100.026Z" fill="#DFF3F3"/>
<path d="M157.361 93.8836C157.726 93.8836 158.022 93.5875 158.022 93.2223C158.022 92.8571 157.726 92.561 157.361 92.561C156.995 92.561 156.699 92.8571 156.699 93.2223C156.699 93.5875 156.995 93.8836 157.361 93.8836Z" fill="#DFF3F3"/>
<path d="M161.844 85.918C162.218 85.918 162.521 85.6151 162.521 85.2415C162.521 84.8678 162.218 84.5649 161.844 84.5649C161.471 84.5649 161.168 84.8678 161.168 85.2415C161.168 85.6151 161.471 85.918 161.844 85.918Z" fill="#DFF3F3"/>
<path d="M165.737 77.6465C166.119 77.6465 166.429 77.3366 166.429 76.9544C166.429 76.5721 166.119 76.2622 165.737 76.2622C165.355 76.2622 165.045 76.5721 165.045 76.9544C165.045 77.3366 165.355 77.6465 165.737 77.6465Z" fill="#DFF3F3"/>
<path d="M169.303 69.2264C169.694 69.2264 170.011 68.9096 170.011 68.5189C170.011 68.1282 169.694 67.8115 169.303 67.8115C168.912 67.8115 168.596 68.1282 168.596 68.5189C168.596 68.9096 168.912 69.2264 169.303 69.2264Z" fill="#DFF3F3"/>
<path d="M172.807 59.3359C172.407 59.3359 172.084 59.6597 172.084 60.0586C172.084 60.4576 172.408 60.7813 172.807 60.7813C173.206 60.7813 173.529 60.4576 173.529 60.0586C173.529 59.6597 173.206 59.3359 172.807 59.3359Z" fill="#DFF3F3"/>
<path d="M176.511 52.4212C176.919 52.4212 177.249 52.0908 177.249 51.6832C177.249 51.2757 176.919 50.9453 176.511 50.9453C176.104 50.9453 175.773 51.2757 175.773 51.6832C175.773 52.0908 176.104 52.4212 176.511 52.4212Z" fill="#DFF3F3"/>
<path d="M180.683 42.7812C180.267 42.7812 179.93 43.1188 179.93 43.5348C179.93 43.9508 180.267 44.2884 180.683 44.2884C181.1 44.2884 181.437 43.9508 181.437 43.5348C181.437 43.1188 181.1 42.7812 180.683 42.7812Z" fill="#DFF3F3"/>
<path d="M185.589 36.5757C186.014 36.5757 186.358 36.2315 186.358 35.8069C186.358 35.3823 186.014 35.0381 185.589 35.0381C185.165 35.0381 184.82 35.3823 184.82 35.8069C184.82 36.2315 185.165 36.5757 185.589 36.5757Z" fill="#DFF3F3"/>
<path d="M191.436 27.9868C191.003 27.9868 190.652 28.3378 190.652 28.7709C190.652 29.204 191.003 29.555 191.436 29.555C191.869 29.555 192.221 29.204 192.221 28.7709C192.221 28.3378 191.869 27.9868 191.436 27.9868Z" fill="#DFF3F3"/>
<path d="M198.307 21.9321C197.866 21.9321 197.508 22.29 197.508 22.7315C197.508 23.1729 197.866 23.5312 198.307 23.5312C198.749 23.5312 199.106 23.1733 199.106 22.7315C199.106 22.29 198.749 21.9321 198.307 21.9321Z" fill="#DFF3F3"/>
<path d="M206.313 17.5269C205.863 17.5269 205.498 17.8916 205.498 18.3418C205.498 18.792 205.863 19.1568 206.313 19.1568C206.763 19.1568 207.128 18.792 207.128 18.3418C207.128 17.8916 206.763 17.5269 206.313 17.5269Z" fill="#DFF3F3"/>
<path d="M32.7265 151.124C32.3813 151.124 32.1016 151.404 32.1016 151.749C32.1016 152.094 32.3813 152.374 32.7265 152.374C33.0717 152.374 33.3514 152.094 33.3514 151.749C33.3514 151.404 33.0717 151.124 32.7265 151.124Z" fill="#DFF3F3"/>
<path d="M39.0846 144.521C38.7304 144.521 38.4434 144.809 38.4434 145.163C38.4434 145.517 38.7304 145.804 39.0846 145.804C39.4389 145.804 39.7259 145.517 39.7259 145.163C39.7259 144.809 39.4389 144.521 39.0846 144.521Z" fill="#DFF3F3"/>
<path d="M45.9467 138.444C45.5834 138.444 45.2891 138.739 45.2891 139.102C45.2891 139.465 45.5834 139.76 45.9467 139.76C46.3097 139.76 46.6043 139.465 46.6043 139.102C46.6043 138.739 46.3097 138.444 45.9467 138.444Z" fill="#DFF3F3"/>
<path d="M53.3142 132.994C52.9422 132.994 52.6406 133.296 52.6406 133.668C52.6406 134.04 52.9422 134.341 53.3142 134.341C53.6863 134.341 53.9878 134.04 53.9878 133.668C53.9882 133.296 53.6863 132.994 53.3142 132.994Z" fill="#DFF3F3"/>
<path d="M61.2857 128.495C60.9045 128.495 60.5957 128.804 60.5957 129.185C60.5957 129.566 60.9045 129.875 61.2857 129.875C61.6668 129.875 61.9757 129.566 61.9757 129.185C61.9757 128.804 61.6668 128.495 61.2857 128.495Z" fill="#DFF3F3"/>
<path d="M69.9485 125.546C69.5586 125.546 69.2422 125.862 69.2422 126.252C69.2422 126.642 69.5583 126.958 69.9485 126.958C70.3384 126.958 70.6548 126.642 70.6548 126.252C70.6548 125.862 70.3387 125.546 69.9485 125.546Z" fill="#DFF3F3"/>
<path d="M78.9567 125.355C79.3556 125.355 79.679 125.032 79.679 124.633C79.679 124.234 79.3556 123.911 78.9567 123.911C78.5578 123.911 78.2344 124.234 78.2344 124.633C78.2344 125.032 78.5578 125.355 78.9567 125.355Z" fill="#DFF3F3"/>
<path d="M88.0844 123.184C87.6763 123.184 87.3457 123.515 87.3457 123.923C87.3457 124.331 87.6763 124.661 88.0844 124.661C88.4924 124.661 88.823 124.331 88.823 123.923C88.823 123.515 88.4924 123.184 88.0844 123.184Z" fill="#DFF3F3"/>
<path d="M97.2374 124.484C97.6544 124.484 97.9924 124.146 97.9924 123.729C97.9924 123.312 97.6544 122.974 97.2374 122.974C96.8205 122.974 96.4824 123.312 96.4824 123.729C96.4824 124.146 96.8205 124.484 97.2374 124.484Z" fill="#DFF3F3"/>
<path d="M106.396 122.926C105.97 122.926 105.625 123.271 105.625 123.697C105.625 124.123 105.97 124.468 106.396 124.468C106.822 124.468 107.167 124.123 107.167 123.697C107.167 123.271 106.822 122.926 106.396 122.926Z" fill="#DFF3F3"/>
<path d="M115.551 122.699C115.116 122.699 114.764 123.051 114.764 123.486C114.764 123.921 115.116 124.273 115.551 124.273C115.986 124.273 116.338 123.921 116.338 123.486C116.338 123.051 115.986 122.699 115.551 122.699Z" fill="#DFF3F3"/>
<path d="M124.673 121.907C124.229 121.907 123.869 122.266 123.869 122.71C123.869 123.154 124.229 123.514 124.673 123.514C125.116 123.514 125.477 123.154 125.477 122.71C125.477 122.266 125.117 121.907 124.673 121.907Z" fill="#DFF3F3"/>
<path d="M133.648 120.113C133.195 120.113 132.828 120.48 132.828 120.933C132.828 121.386 133.195 121.753 133.648 121.753C134.101 121.753 134.467 121.386 134.467 120.933C134.467 120.48 134.101 120.113 133.648 120.113Z" fill="#DFF3F3"/>
<path d="M142.193 116.84C141.732 116.84 141.357 117.214 141.357 117.676C141.357 118.138 141.732 118.512 142.193 118.512C142.655 118.512 143.029 118.138 143.029 117.676C143.029 117.214 142.655 116.84 142.193 116.84Z" fill="#DFF3F3"/>
<path d="M149.829 113.512C150.3 113.512 150.681 113.13 150.681 112.66C150.681 112.189 150.3 111.807 149.829 111.807C149.358 111.807 148.977 112.189 148.977 112.66C148.977 113.13 149.358 113.512 149.829 113.512Z" fill="#DFF3F3"/>
<path d="M156.183 105.216C155.704 105.216 155.314 105.605 155.314 106.085C155.314 106.564 155.703 106.953 156.183 106.953C156.663 106.953 157.052 106.565 157.052 106.085C157.052 105.605 156.663 105.216 156.183 105.216Z" fill="#DFF3F3"/>
<path d="M161.498 97.7505C161.009 97.7505 160.613 98.1465 160.613 98.6352C160.613 99.1239 161.009 99.5203 161.498 99.5203C161.987 99.5203 162.383 99.1243 162.383 98.6352C162.383 98.1469 161.986 97.7505 161.498 97.7505Z" fill="#DFF3F3"/>
<path d="M165.983 91.5536C166.481 91.5536 166.884 91.1502 166.884 90.6525C166.884 90.1549 166.481 89.7515 165.983 89.7515C165.485 89.7515 165.082 90.1549 165.082 90.6525C165.082 91.1502 165.485 91.5536 165.983 91.5536Z" fill="#DFF3F3"/>
<path d="M169.876 81.4487C169.37 81.4487 168.959 81.8593 168.959 82.3658C168.959 82.8726 169.37 83.2832 169.876 83.2832C170.383 83.2832 170.794 82.8726 170.794 82.3658C170.793 81.8597 170.383 81.4487 169.876 81.4487Z" fill="#DFF3F3"/>
<path d="M173.443 74.8653C173.959 74.8653 174.377 74.4474 174.377 73.9319C174.377 73.4164 173.959 72.9985 173.443 72.9985C172.928 72.9985 172.51 73.4164 172.51 73.9319C172.51 74.4474 172.928 74.8653 173.443 74.8653Z" fill="#DFF3F3"/>
<path d="M176.946 64.5225C176.421 64.5225 175.996 64.9476 175.996 65.4722C175.996 65.9965 176.421 66.422 176.946 66.422C177.471 66.422 177.896 65.9969 177.896 65.4722C177.896 64.9476 177.471 64.5225 176.946 64.5225Z" fill="#DFF3F3"/>
<path d="M180.65 56.1318C180.116 56.1318 179.684 56.5642 179.684 57.0976C179.684 57.631 180.116 58.0637 180.65 58.0637C181.183 58.0637 181.616 57.6313 181.616 57.0976C181.616 56.5638 181.183 56.1318 180.65 56.1318Z" fill="#DFF3F3"/>
<path d="M184.822 47.9653C184.279 47.9653 183.84 48.405 183.84 48.9474C183.84 49.4899 184.279 49.9295 184.822 49.9295C185.364 49.9295 185.804 49.4899 185.804 48.9474C185.804 48.405 185.364 47.9653 184.822 47.9653Z" fill="#DFF3F3"/>
<path d="M189.727 40.2217C189.175 40.2217 188.729 40.6686 188.729 41.2201C188.729 41.7717 189.175 42.2186 189.727 42.2186C190.279 42.2186 190.725 41.7717 190.725 41.2201C190.725 40.6686 190.278 40.2217 189.727 40.2217Z" fill="#DFF3F3"/>
<path d="M195.577 33.168C195.017 33.168 194.562 33.6221 194.562 34.1824C194.562 34.7427 195.017 35.1968 195.577 35.1968C196.138 35.1968 196.592 34.7427 196.592 34.1824C196.592 33.6221 196.138 33.168 195.577 33.168Z" fill="#DFF3F3"/>
<path d="M202.447 27.1133C201.877 27.1133 201.416 27.5747 201.416 28.1441C201.416 28.7134 201.877 29.1748 202.447 29.1748C203.016 29.1748 203.478 28.7134 203.478 28.1441C203.478 27.5747 203.016 27.1133 202.447 27.1133Z" fill="#DFF3F3"/>
<path d="M210.451 22.708C209.873 22.708 209.404 23.1771 209.404 23.7551C209.404 24.3336 209.873 24.8023 210.451 24.8023C210.693 24.8023 210.841 24.5675 210.841 24.3262V23.1841C210.841 22.9428 210.693 22.708 210.451 22.708Z" fill="#DFF3F3"/>
<path d="M36.867 156.286C36.3859 156.286 35.9961 156.675 35.9961 157.157C35.9961 157.222 36.0568 157.271 36.1225 157.271H37.6115C37.6772 157.271 37.7379 157.222 37.7379 157.157C37.7375 156.675 37.3477 156.286 36.867 156.286Z" fill="#DFF3F3"/>
<path d="M43.2237 149.681C42.7343 149.681 42.3379 150.077 42.3379 150.566C42.3379 151.056 42.7346 151.452 43.2237 151.452C43.7131 151.452 44.1095 151.056 44.1095 150.566C44.1095 150.077 43.7131 149.681 43.2237 149.681Z" fill="#DFF3F3"/>
<path d="M50.0866 143.606C49.5888 143.606 49.1855 144.009 49.1855 144.507C49.1855 145.005 49.5888 145.408 50.0866 145.408C50.5844 145.408 50.9877 145.004 50.9877 144.507C50.9877 144.01 50.5844 143.606 50.0866 143.606Z" fill="#DFF3F3"/>
<path d="M57.4554 138.159C56.9493 138.159 56.5391 138.569 56.5391 139.075C56.5391 139.581 56.9493 139.991 57.4554 139.991C57.9615 139.991 58.3717 139.581 58.3717 139.075C58.3717 138.569 57.9615 138.159 57.4554 138.159Z" fill="#DFF3F3"/>
<path d="M65.4277 133.66C64.9132 133.66 64.4961 134.077 64.4961 134.591C64.4961 135.106 64.9132 135.522 65.4277 135.522C65.9422 135.522 66.3589 135.105 66.3589 134.591C66.3589 134.077 65.9422 133.66 65.4277 133.66Z" fill="#DFF3F3"/>
<path d="M74.0891 130.71C73.5662 130.71 73.1426 131.134 73.1426 131.657C73.1426 132.18 73.5662 132.603 74.0891 132.603C74.6119 132.603 75.0355 132.179 75.0355 131.657C75.0355 131.134 74.6119 130.71 74.0891 130.71Z" fill="#DFF3F3"/>
<path d="M83.0985 129.075C82.5673 129.075 82.1367 129.506 82.1367 130.037C82.1367 130.568 82.5673 130.998 83.0985 130.998C83.6297 130.998 84.0602 130.568 84.0602 130.037C84.0602 129.506 83.6297 129.075 83.0985 129.075Z" fill="#DFF3F3"/>
<path d="M92.2231 128.352C91.6836 128.352 91.2461 128.789 91.2461 129.328C91.2461 129.867 91.6836 130.305 92.2231 130.305C92.7627 130.305 93.2001 129.868 93.2001 129.328C93.2001 128.789 92.7627 128.352 92.2231 128.352Z" fill="#DFF3F3"/>
<path d="M101.379 128.142C100.831 128.142 100.387 128.586 100.387 129.134C100.387 129.681 100.831 130.125 101.379 130.125C101.927 130.125 102.371 129.681 102.371 129.134C102.371 128.586 101.927 128.142 101.379 128.142Z" fill="#DFF3F3"/>
<path d="M110.536 130.111C111.093 130.111 111.544 129.66 111.544 129.103C111.544 128.547 111.093 128.096 110.536 128.096C109.98 128.096 109.529 128.547 109.529 129.103C109.529 129.66 109.98 130.111 110.536 130.111Z" fill="#DFF3F3"/>
<path d="M119.69 127.869C119.126 127.869 118.668 128.327 118.668 128.892C118.668 129.456 119.126 129.914 119.69 129.914C120.255 129.914 120.713 129.456 120.713 128.892C120.713 128.327 120.255 127.869 119.69 127.869Z" fill="#DFF3F3"/>
<path d="M128.813 127.08C128.24 127.08 127.775 127.544 127.775 128.117C127.775 128.69 128.24 129.155 128.813 129.155C129.386 129.155 129.85 128.69 129.85 128.117C129.85 127.544 129.386 127.08 128.813 127.08Z" fill="#DFF3F3"/>
<path d="M137.791 127.391C138.372 127.391 138.843 126.92 138.843 126.339C138.843 125.757 138.372 125.286 137.791 125.286C137.21 125.286 136.738 125.757 136.738 126.339C136.738 126.92 137.21 127.391 137.791 127.391Z" fill="#DFF3F3"/>
<path d="M146.333 122.016C145.744 122.016 145.266 122.494 145.266 123.084C145.266 123.674 145.744 124.151 146.333 124.151C146.923 124.151 147.401 123.674 147.401 123.084C147.401 122.494 146.923 122.016 146.333 122.016Z" fill="#DFF3F3"/>
<path d="M153.969 119.149C154.567 119.149 155.052 118.664 155.052 118.066C155.052 117.468 154.567 116.983 153.969 116.983C153.372 116.983 152.887 117.468 152.887 118.066C152.887 118.664 153.372 119.149 153.969 119.149Z" fill="#DFF3F3"/>
<path d="M160.325 110.392C159.718 110.392 159.227 110.884 159.227 111.49C159.227 112.096 159.718 112.588 160.325 112.588C160.931 112.588 161.423 112.096 161.423 111.49C161.423 110.884 160.931 110.392 160.325 110.392Z" fill="#DFF3F3"/>
<path d="M165.641 102.927C165.026 102.927 164.527 103.425 164.527 104.04C164.527 104.654 165.026 105.153 165.641 105.153C166.255 105.153 166.754 104.654 166.754 104.04C166.754 103.425 166.255 102.927 165.641 102.927Z" fill="#DFF3F3"/>
<path d="M170.122 94.9307C169.499 94.9307 168.994 95.4361 168.994 96.0588C168.994 96.6819 169.499 97.187 170.122 97.187C170.745 97.187 171.25 96.6819 171.25 96.0588C171.251 95.4361 170.746 94.9307 170.122 94.9307Z" fill="#DFF3F3"/>
<path d="M174.016 86.6279C173.385 86.6279 172.873 87.1399 172.873 87.7713C172.873 88.4028 173.385 88.9147 174.016 88.9147C174.648 88.9147 175.16 88.4028 175.16 87.7713C175.16 87.1399 174.648 86.6279 174.016 86.6279Z" fill="#DFF3F3"/>
<path d="M177.582 78.1802C176.943 78.1802 176.424 78.699 176.424 79.3388C176.424 79.9787 176.943 80.4975 177.582 80.4975C178.222 80.4975 178.741 79.9787 178.741 79.3388C178.741 78.699 178.222 78.1802 177.582 78.1802Z" fill="#DFF3F3"/>
<path d="M181.088 69.7041C180.439 69.7041 179.914 70.2295 179.914 70.8777C179.914 71.5259 180.439 72.0512 181.088 72.0512C181.736 72.0512 182.261 71.5259 182.261 70.8777C182.261 70.2295 181.736 69.7041 181.088 69.7041Z" fill="#DFF3F3"/>
<path d="M184.79 61.3135C184.134 61.3135 183.602 61.8458 183.602 62.5023C183.602 63.1589 184.134 63.6911 184.79 63.6911C185.447 63.6911 185.979 63.1589 185.979 62.5023C185.979 61.8458 185.447 61.3135 184.79 61.3135Z" fill="#DFF3F3"/>
<path d="M188.964 53.1499C188.299 53.1499 187.76 53.6891 187.76 54.354C187.76 55.0189 188.299 55.5581 188.964 55.5581C189.629 55.5581 190.168 55.0189 190.168 54.354C190.168 53.6891 189.629 53.1499 188.964 53.1499Z" fill="#DFF3F3"/>
<path d="M193.867 45.4062C193.194 45.4062 192.648 45.952 192.648 46.6252C192.648 47.2989 193.194 47.8446 193.867 47.8446C194.541 47.8446 195.087 47.2989 195.087 46.6252C195.086 45.952 194.541 45.4062 193.867 45.4062Z" fill="#DFF3F3"/>
<path d="M199.717 40.824C200.398 40.824 200.951 40.2714 200.951 39.5897C200.951 38.9081 200.398 38.3555 199.717 38.3555C199.035 38.3555 198.482 38.9081 198.482 39.5897C198.482 40.2714 199.035 40.824 199.717 40.824Z" fill="#DFF3F3"/>
<path d="M206.585 34.7998C207.276 34.7998 207.835 34.2404 207.835 33.5503C207.835 32.8602 207.276 32.3008 206.585 32.3008C205.895 32.3008 205.336 32.8602 205.336 33.5503C205.336 34.2404 205.895 34.7998 206.585 34.7998Z" fill="#DFF3F3"/>
<path d="M47.3605 157.145C48.0041 157.145 48.5257 156.624 48.5257 155.98C48.5257 155.337 48.0041 154.815 47.3605 154.815C46.717 154.815 46.1953 155.337 46.1953 155.98C46.1953 156.624 46.717 157.145 47.3605 157.145Z" fill="#DFF3F3"/>
<path d="M54.2245 148.744C53.5741 148.744 53.0469 149.271 53.0469 149.921C53.0469 150.572 53.5741 151.099 54.2245 151.099C54.8748 151.099 55.402 150.572 55.402 149.921C55.4016 149.271 54.8748 148.744 54.2245 148.744Z" fill="#DFF3F3"/>
<path d="M61.5919 143.299C60.935 143.299 60.4023 143.832 60.4023 144.489C60.4023 145.146 60.935 145.678 61.5919 145.678C62.2488 145.678 62.7815 145.146 62.7815 144.489C62.7815 143.832 62.2488 143.299 61.5919 143.299Z" fill="#DFF3F3"/>
<path d="M69.5629 141.206C70.2265 141.206 70.7644 140.668 70.7644 140.004C70.7644 139.341 70.2265 138.803 69.5629 138.803C68.8993 138.803 68.3613 139.341 68.3613 140.004C68.3613 140.668 68.8993 141.206 69.5629 141.206Z" fill="#DFF3F3"/>
<path d="M78.2253 135.859C77.5549 135.859 77.0117 136.403 77.0117 137.073C77.0117 137.743 77.5553 138.287 78.2253 138.287C78.8956 138.287 79.4388 137.743 79.4388 137.073C79.4392 136.403 78.8956 135.859 78.2253 135.859Z" fill="#DFF3F3"/>
<path d="M87.2357 134.227C86.5588 134.227 86.0098 134.776 86.0098 135.453C86.0098 136.13 86.5584 136.679 87.2357 136.679C87.9129 136.679 88.4615 136.13 88.4615 135.453C88.4615 134.776 87.9126 134.227 87.2357 134.227Z" fill="#DFF3F3"/>
<path d="M96.359 133.503C95.6755 133.503 95.1211 134.058 95.1211 134.741C95.1211 135.425 95.6752 135.979 96.359 135.979C97.0428 135.979 97.5968 135.425 97.5968 134.741C97.5968 134.058 97.0428 133.503 96.359 133.503Z" fill="#DFF3F3"/>
<path d="M105.515 135.799C106.206 135.799 106.765 135.239 106.765 134.549C106.765 133.858 106.206 133.299 105.515 133.299C104.825 133.299 104.266 133.858 104.266 134.549C104.266 135.239 104.825 135.799 105.515 135.799Z" fill="#DFF3F3"/>
<path d="M114.672 133.256C113.975 133.256 113.41 133.821 113.41 134.518C113.41 135.215 113.975 135.78 114.672 135.78C115.369 135.78 115.934 135.215 115.934 134.518C115.934 133.821 115.369 133.256 114.672 133.256Z" fill="#DFF3F3"/>
<path d="M123.827 133.029C123.123 133.029 122.553 133.6 122.553 134.304C122.553 135.007 123.123 135.577 123.827 135.577C124.531 135.577 125.101 135.007 125.101 134.304C125.101 133.6 124.531 133.029 123.827 133.029Z" fill="#DFF3F3"/>
<path d="M132.95 132.246C132.24 132.246 131.664 132.822 131.664 133.532C131.664 134.242 132.24 134.818 132.95 134.818C133.661 134.818 134.236 134.242 134.236 133.532C134.236 132.822 133.661 132.246 132.95 132.246Z" fill="#DFF3F3"/>
<path d="M141.927 130.455C141.21 130.455 140.629 131.036 140.629 131.753C140.629 132.47 141.21 133.051 141.927 133.051C142.644 133.051 143.225 132.47 143.225 131.753C143.225 131.036 142.644 130.455 141.927 130.455Z" fill="#DFF3F3"/>
<path d="M150.47 127.188C149.747 127.188 149.16 127.774 149.16 128.498C149.16 129.221 149.747 129.808 150.47 129.808C151.194 129.808 151.781 129.221 151.781 128.498C151.781 127.774 151.194 127.188 150.47 127.188Z" fill="#DFF3F3"/>
<path d="M158.105 122.158C157.375 122.158 156.783 122.75 156.783 123.48C156.783 124.21 157.375 124.802 158.105 124.802C158.836 124.802 159.428 124.211 159.428 123.48C159.428 122.75 158.836 122.158 158.105 122.158Z" fill="#DFF3F3"/>
<path d="M164.46 115.569C163.723 115.569 163.125 116.167 163.125 116.904C163.125 117.641 163.722 118.238 164.46 118.238C165.196 118.238 165.794 117.641 165.794 116.904C165.794 116.167 165.197 115.569 164.46 115.569Z" fill="#DFF3F3"/>
<path d="M169.776 108.11C169.032 108.11 168.43 108.713 168.43 109.456C168.43 110.2 169.032 110.803 169.776 110.803C170.52 110.803 171.123 110.2 171.123 109.456C171.123 108.713 170.52 108.11 169.776 108.11Z" fill="#DFF3F3"/>
<path d="M174.259 100.116C173.509 100.116 172.9 100.724 172.9 101.475C172.9 102.225 173.509 102.833 174.259 102.833C175.009 102.833 175.617 102.225 175.617 101.475C175.617 100.724 175.009 100.116 174.259 100.116Z" fill="#DFF3F3"/>
<path d="M178.154 91.8164C177.397 91.8164 176.783 92.4301 176.783 93.1869C176.783 93.9437 177.397 94.5574 178.154 94.5574C178.911 94.5574 179.524 93.9437 179.524 93.1869C179.524 92.4301 178.911 91.8164 178.154 91.8164Z" fill="#DFF3F3"/>
<path d="M181.719 83.3687C180.955 83.3687 180.336 83.9878 180.336 84.7515C180.336 85.5152 180.955 86.1344 181.719 86.1344C182.482 86.1344 183.102 85.5152 183.102 84.7515C183.102 83.9878 182.482 83.3687 181.719 83.3687Z" fill="#DFF3F3"/>
<path d="M185.223 77.6857C185.993 77.6857 186.618 77.0612 186.618 76.2908C186.618 75.5205 185.993 74.896 185.223 74.896C184.453 74.896 183.828 75.5205 183.828 76.2908C183.828 77.0612 184.453 77.6857 185.223 77.6857Z" fill="#DFF3F3"/>
<path d="M188.926 66.5107C188.15 66.5107 187.52 67.1408 187.52 67.9179C187.52 68.6948 188.15 69.3248 188.926 69.3248C189.704 69.3248 190.333 68.6948 190.333 67.9179C190.333 67.1408 189.703 66.5107 188.926 66.5107Z" fill="#DFF3F3"/>
<path d="M193.1 58.3501C192.317 58.3501 191.682 58.9856 191.682 59.7689C191.682 60.5526 192.317 61.1881 193.1 61.1881C193.884 61.1881 194.519 60.5526 194.519 59.7689C194.52 58.9852 193.884 58.3501 193.1 58.3501Z" fill="#DFF3F3"/>
<path d="M198.003 50.6094C197.213 50.6094 196.572 51.2503 196.572 52.0405C196.572 52.8308 197.213 53.4714 198.003 53.4714C198.794 53.4714 199.435 52.8304 199.435 52.0405C199.434 51.2503 198.794 50.6094 198.003 50.6094Z" fill="#DFF3F3"/>
<path d="M203.851 46.4474C204.648 46.4474 205.295 45.8012 205.295 45.0042C205.295 44.2072 204.648 43.561 203.851 43.561C203.054 43.561 202.408 44.2072 202.408 45.0042C202.408 45.8012 203.054 46.4474 203.851 46.4474Z" fill="#DFF3F3"/>
<path d="M210.723 37.5093C209.919 37.5093 209.268 38.1607 209.268 38.9644C209.268 39.7681 209.919 40.4196 210.723 40.4196C210.788 40.4196 210.838 40.3576 210.838 40.2921V37.6368C210.838 37.5712 210.788 37.5093 210.723 37.5093Z" fill="#DFF3F3"/>
<path d="M58.3653 153.842C57.5445 153.842 56.8789 154.508 56.8789 155.329C56.8789 156.15 57.5445 156.815 58.3653 156.815C59.1861 156.815 59.8517 156.149 59.8517 155.329C59.8517 154.508 59.1861 153.842 58.3653 153.842Z" fill="#DFF3F3"/>
<path d="M65.7335 148.403C64.9088 148.403 64.2402 149.072 64.2402 149.897C64.2402 150.721 64.9088 151.39 65.7335 151.39C66.5583 151.39 67.2268 150.721 67.2268 149.897C67.2268 149.072 66.5583 148.403 65.7335 148.403Z" fill="#DFF3F3"/>
<path d="M73.7057 143.913C72.8769 143.913 72.2051 144.585 72.2051 145.414C72.2051 146.242 72.8769 146.914 73.7057 146.914C74.5344 146.914 75.2062 146.242 75.2062 145.414C75.2062 144.585 74.5344 143.913 73.7057 143.913Z" fill="#DFF3F3"/>
<path d="M82.3688 140.972C81.5364 140.972 80.8613 141.647 80.8613 142.48C80.8613 143.312 81.5364 143.987 82.3688 143.987C83.2016 143.987 83.8763 143.312 83.8763 142.48C83.8763 141.647 83.2016 140.972 82.3688 140.972Z" fill="#DFF3F3"/>
<path d="M91.3757 139.346C90.5393 139.346 89.8613 140.024 89.8613 140.86C89.8613 141.696 90.5393 142.374 91.3757 142.374C92.2121 142.374 92.8901 141.696 92.8901 140.86C92.8901 140.024 92.2121 139.346 91.3757 139.346Z" fill="#DFF3F3"/>
<path d="M100.504 138.627C99.6637 138.627 98.9824 139.309 98.9824 140.149C98.9824 140.989 99.6637 141.671 100.504 141.671C101.344 141.671 102.026 140.989 102.026 140.149C102.026 139.309 101.344 138.627 100.504 138.627Z" fill="#DFF3F3"/>
<path d="M109.657 138.429C108.813 138.429 108.129 139.113 108.129 139.957C108.129 140.802 108.813 141.486 109.657 141.486C110.502 141.486 111.186 140.802 111.186 139.957C111.186 139.113 110.502 138.429 109.657 138.429Z" fill="#DFF3F3"/>
<path d="M118.817 138.389C117.969 138.389 117.281 139.077 117.281 139.925C117.281 140.773 117.969 141.46 118.817 141.46C119.665 141.46 120.352 140.773 120.352 139.925C120.352 139.077 119.665 138.389 118.817 138.389Z" fill="#DFF3F3"/>
<path d="M127.97 141.256C128.822 141.256 129.513 140.565 129.513 139.713C129.513 138.861 128.822 138.17 127.97 138.17C127.118 138.17 126.428 138.861 126.428 139.713C126.428 140.565 127.118 141.256 127.97 141.256Z" fill="#DFF3F3"/>
<path d="M137.093 137.39C136.237 137.39 135.543 138.084 135.543 138.94C135.543 139.795 136.237 140.489 137.093 140.489C137.949 140.489 138.642 139.795 138.642 138.94C138.642 138.084 137.949 137.39 137.093 137.39Z" fill="#DFF3F3"/>
<path d="M146.068 135.604C145.209 135.604 144.512 136.301 144.512 137.161C144.512 138.021 145.209 138.718 146.068 138.718C146.928 138.718 147.625 138.021 147.625 137.161C147.625 136.302 146.928 135.604 146.068 135.604Z" fill="#DFF3F3"/>
<path d="M154.611 135.468C155.474 135.468 156.174 134.768 156.174 133.904C156.174 133.04 155.474 132.34 154.611 132.34C153.747 132.34 153.047 133.04 153.047 133.904C153.047 134.768 153.747 135.468 154.611 135.468Z" fill="#DFF3F3"/>
<path d="M162.248 127.319C161.381 127.319 160.678 128.022 160.678 128.89C160.678 129.757 161.381 130.46 162.248 130.46C163.116 130.46 163.819 129.757 163.819 128.89C163.819 128.022 163.116 127.319 162.248 127.319Z" fill="#DFF3F3"/>
<path d="M168.603 120.733C167.732 120.733 167.025 121.44 167.025 122.311C167.025 123.183 167.732 123.889 168.603 123.889C169.475 123.889 170.181 123.183 170.181 122.311C170.181 121.44 169.475 120.733 168.603 120.733Z" fill="#DFF3F3"/>
<path d="M173.917 113.279C173.042 113.279 172.332 113.989 172.332 114.864C172.332 115.739 173.042 116.449 173.917 116.449C174.792 116.449 175.502 115.739 175.502 114.864C175.501 113.989 174.792 113.279 173.917 113.279Z" fill="#DFF3F3"/>
<path d="M178.402 105.289C177.523 105.289 176.811 106.002 176.811 106.881C176.811 107.76 177.523 108.473 178.402 108.473C179.282 108.473 179.994 107.76 179.994 106.881C179.994 106.002 179.281 105.289 178.402 105.289Z" fill="#DFF3F3"/>
<path d="M182.296 96.9946C181.413 96.9946 180.697 97.7104 180.697 98.5933C180.697 99.4762 181.413 100.192 182.296 100.192C183.179 100.192 183.895 99.4762 183.895 98.5933C183.895 97.7104 183.179 96.9946 182.296 96.9946Z" fill="#DFF3F3"/>
<path d="M185.862 88.5557C184.975 88.5557 184.256 89.2747 184.256 90.1612C184.256 91.0481 184.975 91.7672 185.862 91.7672C186.749 91.7672 187.468 91.0481 187.468 90.1612C187.468 89.2743 186.749 88.5557 185.862 88.5557Z" fill="#DFF3F3"/>
<path d="M189.365 80.0884C188.474 80.0884 187.752 80.8103 187.752 81.7012C187.752 82.5921 188.474 83.3141 189.365 83.3141C190.256 83.3141 190.978 82.5917 190.978 81.7012C190.978 80.8107 190.256 80.0884 189.365 80.0884Z" fill="#DFF3F3"/>
<path d="M194.576 73.9389C194.919 73.1124 194.526 72.1648 193.699 71.8224C192.873 71.48 191.925 71.8723 191.583 72.6988C191.24 73.5253 191.633 74.4729 192.46 74.8153C193.286 75.1578 194.234 74.7653 194.576 73.9389Z" fill="#DFF3F3"/>
<path d="M197.242 63.5479C196.344 63.5479 195.615 64.2763 195.615 65.1749C195.615 66.0734 196.344 66.8019 197.242 66.8019C198.141 66.8019 198.869 66.0734 198.869 65.1749C198.869 64.2763 198.141 63.5479 197.242 63.5479Z" fill="#DFF3F3"/>
<path d="M202.146 55.8159C201.243 55.8159 200.512 56.5477 200.512 57.4502C200.512 58.3523 201.243 59.0841 202.146 59.0841C203.048 59.0841 203.78 58.3523 203.78 57.4502C203.78 56.5477 203.048 55.8159 202.146 55.8159Z" fill="#DFF3F3"/>
<path d="M207.995 52.0529C208.901 52.0529 209.636 51.3181 209.636 50.4117C209.636 49.5053 208.901 48.7705 207.995 48.7705C207.088 48.7705 206.354 49.5053 206.354 50.4117C206.354 51.3181 207.088 52.0529 207.995 52.0529Z" fill="#DFF3F3"/>
<path d="M69.8729 157.136C70.8824 157.136 71.7008 156.317 71.7008 155.308C71.7008 154.298 70.8824 153.48 69.8729 153.48C68.8633 153.48 68.0449 154.298 68.0449 155.308C68.0449 156.317 68.8633 157.136 69.8729 157.136Z" fill="#DFF3F3"/>
<path d="M77.8455 152.651C78.8551 152.651 79.6735 151.833 79.6735 150.823C79.6735 149.814 78.8551 148.995 77.8455 148.995C76.836 148.995 76.0176 149.814 76.0176 150.823C76.0176 151.833 76.836 152.651 77.8455 152.651Z" fill="#DFF3F3"/>
<path d="M86.5076 149.719C87.5172 149.719 88.3356 148.9 88.3356 147.891C88.3356 146.881 87.5172 146.063 86.5076 146.063C85.4981 146.063 84.6797 146.881 84.6797 147.891C84.6797 148.9 85.4981 149.719 86.5076 149.719Z" fill="#DFF3F3"/>
<path d="M95.5154 148.101C96.525 148.101 97.3434 147.283 97.3434 146.273C97.3434 145.264 96.525 144.445 95.5154 144.445C94.5059 144.445 93.6875 145.264 93.6875 146.273C93.6875 147.283 94.5059 148.101 95.5154 148.101Z" fill="#DFF3F3"/>
<path d="M104.642 147.388C105.652 147.388 106.47 146.57 106.47 145.56C106.47 144.551 105.652 143.732 104.642 143.732C103.633 143.732 102.814 144.551 102.814 145.56C102.814 146.57 103.633 147.388 104.642 147.388Z" fill="#DFF3F3"/>
<path d="M113.797 147.195C114.806 147.195 115.625 146.377 115.625 145.367C115.625 144.358 114.806 143.54 113.797 143.54C112.787 143.54 111.969 144.358 111.969 145.367C111.969 146.377 112.787 147.195 113.797 147.195Z" fill="#DFF3F3"/>
<path d="M122.955 147.164C123.964 147.164 124.783 146.346 124.783 145.336C124.783 144.327 123.964 143.508 122.955 143.508C121.945 143.508 121.127 144.327 121.127 145.336C121.127 146.346 121.945 147.164 122.955 147.164Z" fill="#DFF3F3"/>
<path d="M132.109 146.951C133.119 146.951 133.937 146.133 133.937 145.123C133.937 144.114 133.119 143.295 132.109 143.295C131.1 143.295 130.281 144.114 130.281 145.123C130.281 146.133 131.1 146.951 132.109 146.951Z" fill="#DFF3F3"/>
<path d="M141.23 146.179C142.24 146.179 143.058 145.361 143.058 144.351C143.058 143.342 142.24 142.523 141.23 142.523C140.221 142.523 139.402 143.342 139.402 144.351C139.402 145.361 140.221 146.179 141.23 146.179Z" fill="#DFF3F3"/>
<path d="M150.207 144.4C151.216 144.4 152.035 143.581 152.035 142.572C152.035 141.562 151.216 140.744 150.207 140.744C149.197 140.744 148.379 141.562 148.379 142.572C148.379 143.581 149.197 144.4 150.207 144.4Z" fill="#DFF3F3"/>
<path d="M158.75 141.144C159.759 141.144 160.578 140.325 160.578 139.316C160.578 138.306 159.759 137.488 158.75 137.488C157.74 137.488 156.922 138.306 156.922 139.316C156.922 140.325 157.74 141.144 158.75 141.144Z" fill="#DFF3F3"/>
<path d="M166.388 136.128C167.398 136.128 168.216 135.31 168.216 134.3C168.216 133.291 167.398 132.472 166.388 132.472C165.379 132.472 164.561 133.291 164.561 134.3C164.561 135.31 165.379 136.128 166.388 136.128Z" fill="#DFF3F3"/>
<path d="M172.742 129.551C173.752 129.551 174.57 128.732 174.57 127.723C174.57 126.713 173.752 125.895 172.742 125.895C171.732 125.895 170.914 126.713 170.914 127.723C170.914 128.732 171.732 129.551 172.742 129.551Z" fill="#DFF3F3"/>
<path d="M178.056 122.103C179.066 122.103 179.884 121.284 179.884 120.275C179.884 119.265 179.066 118.447 178.056 118.447C177.047 118.447 176.229 119.265 176.229 120.275C176.229 121.284 177.047 122.103 178.056 122.103Z" fill="#DFF3F3"/>
<path d="M182.543 114.121C183.552 114.121 184.371 113.302 184.371 112.293C184.371 111.283 183.552 110.465 182.543 110.465C181.533 110.465 180.715 111.283 180.715 112.293C180.715 113.302 181.533 114.121 182.543 114.121Z" fill="#DFF3F3"/>
<path d="M186.435 105.835C187.445 105.835 188.263 105.017 188.263 104.007C188.263 102.998 187.445 102.179 186.435 102.179C185.426 102.179 184.607 102.998 184.607 104.007C184.607 105.017 185.426 105.835 186.435 105.835Z" fill="#DFF3F3"/>
<path d="M190 97.399C191.009 97.399 191.828 96.5806 191.828 95.5711C191.828 94.5616 191.009 93.7432 190 93.7432C188.99 93.7432 188.172 94.5616 188.172 95.5711C188.172 96.5806 188.99 97.399 190 97.399Z" fill="#DFF3F3"/>
<path d="M193.504 88.94C194.513 88.94 195.332 88.1217 195.332 87.1121C195.332 86.1026 194.513 85.2842 193.504 85.2842C192.494 85.2842 191.676 86.1026 191.676 87.1121C191.676 88.1217 192.494 88.94 193.504 88.94Z" fill="#DFF3F3"/>
<path d="M197.209 80.5636C198.218 80.5636 199.037 79.7452 199.037 78.7357C199.037 77.7261 198.218 76.9077 197.209 76.9077C196.199 76.9077 195.381 77.7261 195.381 78.7357C195.381 79.7452 196.199 80.5636 197.209 80.5636Z" fill="#DFF3F3"/>
<path d="M201.381 72.4137C202.39 72.4137 203.209 71.5953 203.209 70.5857C203.209 69.5762 202.39 68.7578 201.381 68.7578C200.371 68.7578 199.553 69.5762 199.553 70.5857C199.553 71.5953 200.371 72.4137 201.381 72.4137Z" fill="#DFF3F3"/>
<path d="M206.285 64.6876C207.295 64.6876 208.113 63.8692 208.113 62.8597C208.113 61.8501 207.295 61.0317 206.285 61.0317C205.275 61.0317 204.457 61.8501 204.457 62.8597C204.457 63.8692 205.275 64.6876 206.285 64.6876Z" fill="#DFF3F3"/>
<path d="M210.307 55.8229C210.307 55.8711 210.309 55.9189 210.312 55.9662C210.349 56.441 210.841 56.2996 210.841 55.8234C210.841 55.347 210.349 55.2057 210.312 55.6807C210.308 55.7276 210.307 55.775 210.307 55.8229Z" fill="#DFF3F3"/>
<path d="M81.9832 154.05C80.7769 154.05 79.7988 155.028 79.7988 156.235C79.7988 156.901 80.4757 157.272 81.1418 157.272H82.825C83.4909 157.272 84.1679 156.901 84.1679 156.235C84.1676 155.028 83.1895 154.05 81.9832 154.05Z" fill="#DFF3F3"/>
<path d="M90.646 151.126C89.4444 151.126 88.4707 152.101 88.4707 153.302C88.4707 154.503 89.4444 155.477 90.646 155.477C91.8475 155.477 92.8213 154.503 92.8213 153.302C92.8213 152.1 91.8475 151.126 90.646 151.126Z" fill="#DFF3F3"/>
<path d="M101.825 151.792C101.891 150.597 100.976 149.575 99.7815 149.509C98.5869 149.443 97.5649 150.358 97.4987 151.552C97.4325 152.747 98.3473 153.769 99.5419 153.835C100.736 153.901 101.758 152.987 101.825 151.792Z" fill="#DFF3F3"/>
<path d="M108.78 153.127C109.972 153.127 110.937 152.161 110.937 150.97C110.937 149.779 109.972 148.813 108.78 148.813C107.589 148.813 106.623 149.779 106.623 150.97C106.623 152.161 107.589 153.127 108.78 153.127Z" fill="#DFF3F3"/>
<path d="M117.934 152.926C119.12 152.926 120.082 151.964 120.082 150.777C120.082 149.591 119.12 148.629 117.934 148.629C116.747 148.629 115.785 149.591 115.785 150.777C115.785 151.964 116.747 152.926 117.934 152.926Z" fill="#DFF3F3"/>
<path d="M127.094 148.609C125.913 148.609 124.955 149.567 124.955 150.748C124.955 151.929 125.913 152.888 127.094 152.888C128.276 152.888 129.234 151.93 129.234 150.748C129.234 149.567 128.276 148.609 127.094 148.609Z" fill="#DFF3F3"/>
<path d="M136.247 148.404C135.071 148.404 134.117 149.358 134.117 150.535C134.117 151.711 135.071 152.665 136.247 152.665C137.424 152.665 138.378 151.711 138.378 150.535C138.378 149.358 137.424 148.404 136.247 148.404Z" fill="#DFF3F3"/>
<path d="M147.46 149.973C147.575 148.807 146.724 147.769 145.558 147.653C144.392 147.538 143.354 148.39 143.238 149.555C143.123 150.721 143.974 151.76 145.14 151.875C146.306 151.99 147.344 151.139 147.46 149.973Z" fill="#DFF3F3"/>
<path d="M154.346 150.094C155.513 150.094 156.458 149.148 156.458 147.982C156.458 146.815 155.513 145.87 154.346 145.87C153.18 145.87 152.234 146.815 152.234 147.982C152.234 149.148 153.18 150.094 154.346 150.094Z" fill="#DFF3F3"/>
<path d="M162.89 146.829C164.052 146.829 164.994 145.887 164.994 144.725C164.994 143.564 164.052 142.622 162.89 142.622C161.729 142.622 160.787 143.564 160.787 144.725C160.787 145.887 161.729 146.829 162.89 146.829Z" fill="#DFF3F3"/>
<path d="M170.526 137.615C169.369 137.615 168.432 138.553 168.432 139.71C168.432 140.866 169.369 141.804 170.526 141.804C171.682 141.804 172.62 140.866 172.62 139.71C172.62 138.553 171.682 137.615 170.526 137.615Z" fill="#DFF3F3"/>
<path d="M178.969 133.237C179.033 132.088 178.152 131.104 177.002 131.04C175.852 130.976 174.868 131.857 174.805 133.007C174.741 134.157 175.622 135.14 176.772 135.204C177.921 135.268 178.905 134.387 178.969 133.237Z" fill="#DFF3F3"/>
<path d="M182.197 127.759C183.344 127.759 184.273 126.83 184.273 125.683C184.273 124.536 183.344 123.607 182.197 123.607C181.051 123.607 180.121 124.536 180.121 125.683C180.121 126.83 181.051 127.759 182.197 127.759Z" fill="#DFF3F3"/>
<path d="M186.68 119.77C187.822 119.77 188.747 118.845 188.747 117.703C188.747 116.562 187.822 115.636 186.68 115.636C185.539 115.636 184.613 116.562 184.613 117.703C184.613 118.845 185.539 119.77 186.68 119.77Z" fill="#DFF3F3"/>
<path d="M190.574 111.473C191.711 111.473 192.632 110.551 192.632 109.414C192.632 108.277 191.711 107.356 190.574 107.356C189.437 107.356 188.516 108.277 188.516 109.414C188.516 110.551 189.437 111.473 190.574 111.473Z" fill="#DFF3F3"/>
<path d="M194.139 98.9341C193.007 98.9341 192.09 99.8515 192.09 100.983C192.09 102.115 193.007 103.032 194.139 103.032C195.271 103.032 196.188 102.115 196.188 100.983C196.188 99.8511 195.271 98.9341 194.139 98.9341Z" fill="#DFF3F3"/>
<path d="M197.644 90.481C196.517 90.481 195.604 91.3944 195.604 92.5211C195.604 93.6481 196.517 94.5612 197.644 94.5612C198.77 94.5612 199.684 93.6478 199.684 92.5211C199.684 91.3944 198.77 90.481 197.644 90.481Z" fill="#DFF3F3"/>
<path d="M201.681 86.1462C202.788 85.9665 203.54 84.9232 203.36 83.816C203.181 82.7088 202.137 81.9568 201.03 82.1365C199.923 82.3162 199.171 83.3595 199.351 84.4668C199.53 85.574 200.574 86.3259 201.681 86.1462Z" fill="#DFF3F3"/>
<path d="M205.52 73.9746C204.403 73.9746 203.498 74.88 203.498 75.9969C203.498 77.1138 204.403 78.0189 205.52 78.0189C206.637 78.0189 207.543 77.1135 207.543 75.9969C207.543 74.8804 206.637 73.9746 205.52 73.9746Z" fill="#DFF3F3"/>
<path d="M210.423 66.2568C209.312 66.2568 208.41 67.1583 208.41 68.2701C208.41 69.3819 209.312 70.2833 210.423 70.2833C210.667 70.2833 210.839 70.0651 210.839 69.821V66.7191C210.839 66.4751 210.667 66.2568 210.423 66.2568Z" fill="#DFF3F3"/>
<path d="M94.7878 156.158C94.6625 156.158 94.5394 156.167 94.419 156.184C93.5376 156.312 93.8972 157.266 94.7878 157.266C95.6783 157.266 96.038 156.312 95.1566 156.184C95.0362 156.167 94.9131 156.158 94.7878 156.158Z" fill="#DFF3F3"/>
<path d="M103.795 154.557C102.398 154.557 101.266 155.689 101.266 157.086C101.266 157.187 101.353 157.265 101.454 157.265H106.136C106.237 157.265 106.324 157.187 106.324 157.086C106.324 155.689 105.192 154.557 103.795 154.557Z" fill="#DFF3F3"/>
<path d="M112.923 153.867C111.537 153.867 110.414 154.991 110.414 156.376C110.414 156.924 110.941 157.266 111.489 157.266H114.358C114.905 157.266 115.433 156.924 115.433 156.376C115.433 154.991 114.309 153.867 112.923 153.867Z" fill="#DFF3F3"/>
<path d="M122.077 153.694C120.702 153.694 119.588 154.808 119.588 156.183C119.588 156.869 120.274 157.266 120.959 157.266H123.195C123.881 157.266 124.566 156.869 124.566 156.183C124.566 154.808 123.452 153.694 122.077 153.694Z" fill="#DFF3F3"/>
<path d="M131.235 153.683C129.871 153.683 128.766 154.788 128.766 156.152C128.766 156.861 129.48 157.265 130.189 157.265H132.281C132.99 157.265 133.704 156.861 133.704 156.152C133.704 154.788 132.598 153.683 131.235 153.683Z" fill="#DFF3F3"/>
<path d="M140.391 153.49C139.038 153.49 137.941 154.587 137.941 155.939C137.941 156.813 138.862 157.266 139.736 157.266H141.045C141.92 157.266 142.84 156.813 142.84 155.939C142.84 154.587 141.743 153.49 140.391 153.49Z" fill="#DFF3F3"/>
<path d="M151.941 155.167C151.941 153.825 150.853 152.737 149.511 152.737C148.17 152.737 147.082 153.825 147.082 155.167C147.082 155.627 147.21 156.056 147.433 156.422C147.847 157.104 148.714 157.266 149.512 157.266C150.309 157.266 151.176 157.104 151.59 156.423C151.812 156.056 151.941 155.627 151.941 155.167Z" fill="#DFF3F3"/>
<path d="M158.487 150.978C157.157 150.978 156.078 152.056 156.078 153.387C156.078 154.718 157.157 155.796 158.487 155.796C159.818 155.796 160.897 154.717 160.897 153.387C160.897 152.056 159.818 150.978 158.487 150.978Z" fill="#DFF3F3"/>
<path d="M167.032 152.52C168.351 152.52 169.421 151.451 169.421 150.131C169.421 148.811 168.351 147.742 167.032 147.742C165.712 147.742 164.643 148.811 164.643 150.131C164.643 151.451 165.712 152.52 167.032 152.52Z" fill="#DFF3F3"/>
<path d="M174.668 147.484C175.977 147.484 177.037 146.423 177.037 145.115C177.037 143.806 175.977 142.746 174.668 142.746C173.36 142.746 172.299 143.806 172.299 145.115C172.299 146.423 173.36 147.484 174.668 147.484Z" fill="#DFF3F3"/>
<path d="M181.021 136.191C179.724 136.191 178.672 137.243 178.672 138.541C178.672 139.838 179.724 140.89 181.021 140.89C182.319 140.89 183.371 139.838 183.371 138.541C183.371 137.243 182.319 136.191 181.021 136.191Z" fill="#DFF3F3"/>
<path d="M186.337 133.419C187.624 133.419 188.666 132.376 188.666 131.09C188.666 129.803 187.624 128.76 186.337 128.76C185.051 128.76 184.008 129.803 184.008 131.09C184.008 132.376 185.051 133.419 186.337 133.419Z" fill="#DFF3F3"/>
<path d="M192.965 123.986C193.454 122.808 192.894 121.457 191.716 120.969C190.537 120.481 189.186 121.04 188.698 122.218C188.21 123.397 188.77 124.748 189.948 125.236C191.126 125.724 192.477 125.164 192.965 123.986Z" fill="#DFF3F3"/>
<path d="M197.005 114.936C197.075 113.674 196.108 112.593 194.846 112.524C193.583 112.454 192.503 113.42 192.433 114.683C192.363 115.945 193.33 117.025 194.593 117.095C195.855 117.165 196.935 116.198 197.005 114.936Z" fill="#DFF3F3"/>
<path d="M198.281 104.119C197.028 104.119 196.012 105.135 196.012 106.388C196.012 107.641 197.028 108.657 198.281 108.657C199.534 108.657 200.55 107.642 200.55 106.388C200.55 105.135 199.535 104.119 198.281 104.119Z" fill="#DFF3F3"/>
<path d="M201.785 95.6768C200.542 95.6768 199.535 96.6836 199.535 97.9262C199.535 99.1684 200.542 100.175 201.785 100.175C203.027 100.175 204.034 99.1684 204.034 97.9262C204.034 96.6839 203.027 95.6768 201.785 95.6768Z" fill="#DFF3F3"/>
<path d="M205.487 91.7816C206.718 91.7816 207.717 90.7834 207.717 89.5522C207.717 88.3209 206.718 87.3228 205.487 87.3228C204.256 87.3228 203.258 88.3209 203.258 89.5522C203.258 90.7834 204.256 91.7816 205.487 91.7816Z" fill="#DFF3F3"/>
<path d="M209.663 79.1934C208.443 79.1934 207.453 80.1827 207.453 81.4028C207.453 82.6229 208.442 83.6122 209.663 83.6122C210.439 83.6122 210.843 82.7978 210.843 82.0216V80.7845C210.843 80.0082 210.439 79.1934 209.663 79.1934Z" fill="#DFF3F3"/>
<path d="M162.625 156.082C162.49 156.082 162.358 156.091 162.229 156.11C161.286 156.248 161.672 157.269 162.625 157.269C163.578 157.269 163.964 156.248 163.021 156.11C162.892 156.091 162.76 156.082 162.625 156.082Z" fill="#DFF3F3"/>
<path d="M171.169 152.86C169.685 152.86 168.482 154.063 168.482 155.546C168.482 156.732 169.794 157.269 170.98 157.269H171.357C172.543 157.269 173.855 156.732 173.855 155.546C173.855 154.063 172.652 152.86 171.169 152.86Z" fill="#DFF3F3"/>
<path d="M181.268 151.539C181.829 150.185 181.186 148.633 179.832 148.072C178.478 147.512 176.926 148.155 176.365 149.508C175.804 150.862 176.447 152.415 177.801 152.975C179.155 153.536 180.707 152.893 181.268 151.539Z" fill="#DFF3F3"/>
<path d="M185.159 141.333C183.712 141.333 182.539 142.506 182.539 143.953C182.539 145.4 183.712 146.573 185.159 146.573C186.607 146.573 187.78 145.4 187.78 143.953C187.78 142.506 186.607 141.333 185.159 141.333Z" fill="#DFF3F3"/>
<path d="M190.474 133.916C189.045 133.916 187.887 135.074 187.887 136.503C187.887 137.932 189.045 139.09 190.474 139.09C191.903 139.09 193.061 137.932 193.061 136.503C193.061 135.073 191.903 133.916 190.474 133.916Z" fill="#DFF3F3"/>
<path d="M195.082 131.087C196.492 131.023 197.583 129.828 197.519 128.419C197.455 127.009 196.26 125.919 194.851 125.982C193.441 126.046 192.351 127.241 192.415 128.65C192.478 130.06 193.673 131.15 195.082 131.087Z" fill="#DFF3F3"/>
<path d="M201.193 121.194C201.726 119.907 201.115 118.432 199.828 117.899C198.541 117.366 197.066 117.977 196.533 119.264C196 120.55 196.611 122.025 197.898 122.558C199.185 123.091 200.66 122.48 201.193 121.194Z" fill="#DFF3F3"/>
<path d="M202.826 114.253C204.183 114.033 205.104 112.755 204.884 111.398C204.663 110.042 203.385 109.12 202.029 109.341C200.672 109.561 199.751 110.839 199.971 112.196C200.191 113.552 201.469 114.474 202.826 114.253Z" fill="#DFF3F3"/>
<path d="M205.923 100.886C204.566 100.886 203.467 101.985 203.467 103.342C203.467 104.697 204.566 105.797 205.923 105.797C207.279 105.797 208.378 104.697 208.378 103.342C208.378 101.985 207.279 100.886 205.923 100.886Z" fill="#DFF3F3"/>
<path d="M209.626 92.5435C208.288 92.5435 207.203 93.628 207.203 94.9658C207.203 96.304 208.288 97.3885 209.626 97.3885C210.414 97.3885 210.84 96.5753 210.84 95.7874V94.1445C210.84 93.3567 210.414 92.5435 209.626 92.5435Z" fill="#DFF3F3"/>
<path d="M182.942 152.993C181.315 152.993 179.996 154.312 179.996 155.939C179.996 156.786 180.849 157.269 181.696 157.269H184.189C185.036 157.269 185.889 156.786 185.889 155.939C185.889 154.312 184.569 152.993 182.942 152.993Z" fill="#DFF3F3"/>
<path d="M189.297 146.464C187.696 146.464 186.398 147.762 186.398 149.362C186.398 150.963 187.696 152.261 189.297 152.261C190.897 152.261 192.195 150.963 192.195 149.362C192.195 147.762 190.898 146.464 189.297 146.464Z" fill="#DFF3F3"/>
<path d="M197.256 142.997C197.859 141.543 197.168 139.876 195.714 139.273C194.259 138.671 192.592 139.361 191.989 140.816C191.387 142.27 192.077 143.938 193.532 144.54C194.986 145.143 196.654 144.452 197.256 142.997Z" fill="#DFF3F3"/>
<path d="M201.696 134.998C202.288 133.568 201.609 131.928 200.179 131.336C198.749 130.744 197.11 131.423 196.518 132.853C195.925 134.283 196.604 135.922 198.034 136.514C199.464 137.107 201.104 136.428 201.696 134.998Z" fill="#DFF3F3"/>
<path d="M202.989 128.399C204.511 128.399 205.744 127.166 205.744 125.644C205.744 124.123 204.511 122.89 202.989 122.89C201.468 122.89 200.234 124.123 200.234 125.644C200.234 127.166 201.468 128.399 202.989 128.399Z" fill="#DFF3F3"/>
<path d="M206.554 119.919C208.049 119.919 209.261 118.707 209.261 117.212C209.261 115.717 208.049 114.505 206.554 114.505C205.06 114.505 203.848 115.717 203.848 117.212C203.848 118.707 205.06 119.919 206.554 119.919Z" fill="#DFF3F3"/>
<path d="M210.059 106.091C208.591 106.091 207.4 107.282 207.4 108.75C207.4 110.219 208.591 111.409 210.059 111.409C210.529 111.409 210.838 110.972 210.838 110.502V106.999C210.838 106.529 210.529 106.091 210.059 106.091Z" fill="#DFF3F3"/>
<path d="M196.622 154.777C196.622 153.019 195.197 151.594 193.439 151.594C191.681 151.594 190.256 153.019 190.256 154.777C190.256 155.084 190.299 155.38 190.38 155.66C190.735 156.888 192.161 157.272 193.439 157.272C194.718 157.272 196.143 156.888 196.498 155.66C196.579 155.38 196.622 155.084 196.622 154.777Z" fill="#DFF3F3"/>
<path d="M198.755 144.208C197.033 144.208 195.637 145.604 195.637 147.327C195.637 149.049 197.033 150.445 198.755 150.445C200.477 150.445 201.874 149.049 201.874 147.327C201.874 145.604 200.477 144.208 198.755 144.208Z" fill="#DFF3F3"/>
<path d="M203.239 136.292C201.552 136.292 200.186 137.659 200.186 139.345C200.186 141.031 201.553 142.399 203.239 142.399C204.925 142.399 206.292 141.032 206.292 139.345C206.292 137.658 204.925 136.292 203.239 136.292Z" fill="#DFF3F3"/>
<path d="M207.131 128.068C205.481 128.068 204.143 129.407 204.143 131.057C204.143 132.708 205.481 134.046 207.131 134.046C208.782 134.046 210.12 132.708 210.12 131.057C210.12 129.407 208.782 128.068 207.131 128.068Z" fill="#DFF3F3"/>
<path d="M210.697 119.7C209.082 119.7 207.773 121.009 207.773 122.624C207.773 124.239 209.083 125.548 210.697 125.548C210.777 125.548 210.84 125.477 210.84 125.397V119.85C210.84 119.77 210.777 119.7 210.697 119.7Z" fill="#DFF3F3"/>
<path d="M197.471 156.712C196.916 156.729 197.024 157.269 197.579 157.269C198.134 157.269 198.243 156.729 197.688 156.712C197.652 156.711 197.615 156.71 197.579 156.71C197.543 156.71 197.507 156.711 197.471 156.712Z" fill="#DFF3F3"/>
<path d="M202.893 156.127C204.766 156.127 206.285 154.609 206.285 152.736C206.285 150.863 204.766 149.344 202.893 149.344C201.02 149.344 199.502 150.863 199.502 152.736C199.502 154.609 201.02 156.127 202.893 156.127Z" fill="#DFF3F3"/>
<path d="M207.38 148.06C209.207 148.06 210.688 146.579 210.688 144.753C210.688 142.926 209.207 141.445 207.38 141.445C205.553 141.445 204.072 142.926 204.072 144.753C204.072 146.579 205.553 148.06 207.38 148.06Z" fill="#DFF3F3"/>
<path d="M208.049 136.467C208.049 136.965 208.162 137.437 208.364 137.858C209.095 139.381 210.842 138.157 210.842 136.467C210.842 134.777 209.096 133.552 208.364 135.076C208.162 135.497 208.049 135.968 208.049 136.467Z" fill="#DFF3F3"/>
<path d="M207.951 150.168C207.951 150.658 208.05 151.125 208.229 151.549C208.934 153.222 210.839 151.983 210.839 150.168C210.839 148.353 208.934 147.113 208.229 148.786C208.05 149.211 207.951 149.678 207.951 150.168Z" fill="#DFF3F3"/>
</svg>
