<svg width="211" height="158" viewBox="0 0 211 158" fill="none" xmlns="http://www.w3.org/2000/svg">
<path d="M210.844 5.00396C210.844 5.00019 210.841 4.9972 210.837 4.9972C210.833 4.9972 210.83 5.00019 210.83 5.00396C210.83 5.00773 210.833 5.01074 210.837 5.01074C210.841 5.01074 210.844 5.00773 210.844 5.00396Z" fill="#DFF3F3"/>
<path d="M205.928 12.7294C205.928 12.7249 205.924 12.7215 205.92 12.7215C205.916 12.7215 205.912 12.7249 205.912 12.7294C205.912 12.7335 205.915 12.7373 205.92 12.7373C205.924 12.7369 205.928 12.7335 205.928 12.7294Z" fill="#DFF3F3"/>
<path d="M200.545 20.1374C200.545 20.1325 200.541 20.1287 200.536 20.1287C200.531 20.1287 200.528 20.1325 200.528 20.1374C200.528 20.1422 200.531 20.146 200.536 20.146C200.541 20.146 200.545 20.1422 200.545 20.1374Z" fill="#DFF3F3"/>
<path d="M194.684 27.1699C194.684 27.1646 194.679 27.1605 194.674 27.1605C194.668 27.1605 194.664 27.1646 194.664 27.1699C194.664 27.1752 194.668 27.1797 194.674 27.1797C194.679 27.1797 194.684 27.1755 194.684 27.1699Z" fill="#DFF3F3"/>
<path d="M188.326 33.7575C188.326 33.7515 188.321 33.747 188.316 33.747C188.31 33.747 188.305 33.7518 188.305 33.7575C188.305 33.7631 188.31 33.768 188.316 33.768C188.321 33.7684 188.326 33.7635 188.326 33.7575Z" fill="#DFF3F3"/>
<path d="M181.455 39.8082C181.449 39.8082 181.443 39.8134 181.443 39.8199C181.443 39.8263 181.449 39.8315 181.455 39.8315C181.462 39.8315 181.467 39.8263 181.467 39.8199C181.467 39.8134 181.462 39.8082 181.455 39.8082Z" fill="#DFF3F3"/>
<path d="M174.1 45.2517C174.1 45.2446 174.094 45.2393 174.087 45.2393C174.08 45.2393 174.075 45.245 174.075 45.2517C174.075 45.2585 174.08 45.2642 174.087 45.2642C174.094 45.2642 174.1 45.2589 174.1 45.2517Z" fill="#DFF3F3"/>
<path d="M166.129 49.7355C166.129 49.7279 166.123 49.7219 166.115 49.7219C166.108 49.7219 166.102 49.7279 166.102 49.7355C166.102 49.743 166.108 49.749 166.115 49.749C166.123 49.749 166.129 49.743 166.129 49.7355Z" fill="#DFF3F3"/>
<path d="M157.465 52.6675C157.465 52.6598 157.459 52.6533 157.451 52.6533C157.443 52.6533 157.437 52.6595 157.437 52.6675C157.437 52.6751 157.443 52.6816 157.451 52.6816C157.459 52.6816 157.465 52.6751 157.465 52.6675Z" fill="#DFF3F3"/>
<path d="M148.459 54.287C148.459 54.279 148.452 54.2721 148.444 54.2721C148.436 54.2721 148.429 54.279 148.429 54.287C148.429 54.2953 148.436 54.3022 148.444 54.3022C148.452 54.3022 148.459 54.2953 148.459 54.287Z" fill="#DFF3F3"/>
<path d="M139.332 54.9961C139.332 54.9874 139.325 54.9801 139.316 54.9801C139.307 54.9801 139.3 54.9874 139.3 54.9961C139.3 55.0048 139.307 55.0117 139.316 55.0117C139.325 55.0117 139.332 55.0048 139.332 54.9961Z" fill="#DFF3F3"/>
<path d="M130.178 55.1908C130.178 55.1817 130.17 55.1741 130.161 55.1741C130.152 55.1741 130.144 55.1817 130.144 55.1908C130.144 55.1999 130.152 55.2075 130.161 55.2075C130.17 55.2079 130.178 55.2002 130.178 55.1908Z" fill="#DFF3F3"/>
<path d="M121.021 55.221C121.021 55.2112 121.013 55.2032 121.004 55.2032C120.994 55.2032 120.986 55.2112 120.986 55.221C120.986 55.2308 120.994 55.2388 121.004 55.2388C121.013 55.2388 121.021 55.2308 121.021 55.221Z" fill="#DFF3F3"/>
<path d="M111.867 55.4357C111.867 55.4255 111.859 55.4172 111.848 55.4172C111.838 55.4172 111.829 55.4255 111.829 55.4357C111.829 55.4462 111.838 55.4546 111.848 55.4546C111.859 55.4546 111.867 55.4462 111.867 55.4357Z" fill="#DFF3F3"/>
<path d="M102.746 56.2069C102.746 56.196 102.737 56.1873 102.726 56.1873C102.716 56.1873 102.707 56.196 102.707 56.2069C102.707 56.2178 102.716 56.2266 102.726 56.2266C102.737 56.2266 102.746 56.2178 102.746 56.2069Z" fill="#DFF3F3"/>
<path d="M93.7715 57.9886C93.7715 57.9773 93.7624 57.9679 93.7508 57.9679C93.7391 57.9679 93.7301 57.9769 93.7301 57.9886C93.7301 58.0002 93.7391 58.0093 93.7508 58.0093C93.7624 58.0093 93.7715 58.0002 93.7715 57.9886Z" fill="#DFF3F3"/>
<path d="M85.2285 61.2433C85.2285 61.2313 85.2187 61.2215 85.2071 61.2215C85.1951 61.2215 85.1856 61.2313 85.1856 61.2433C85.1856 61.2553 85.1955 61.2651 85.2071 61.2651C85.2187 61.2651 85.2285 61.2553 85.2285 61.2433Z" fill="#DFF3F3"/>
<path d="M77.5918 66.2612C77.5918 66.2488 77.5816 66.2386 77.5693 66.2386C77.5569 66.2386 77.5467 66.2488 77.5467 66.2612C77.5467 66.2735 77.5569 66.2837 77.5693 66.2837C77.582 66.2837 77.5918 66.2735 77.5918 66.2612Z" fill="#DFF3F3"/>
<path d="M71.215 72.8143C71.2022 72.8143 71.1918 72.8247 71.1918 72.8376C71.1918 72.8504 71.2022 72.8608 71.215 72.8608C71.2279 72.8608 71.2383 72.8504 71.2383 72.8376C71.2383 72.8247 71.2279 72.8143 71.215 72.8143Z" fill="#DFF3F3"/>
<path d="M65.8998 80.2641C65.8866 80.2641 65.8759 80.2748 65.8759 80.288C65.8759 80.3013 65.8866 80.312 65.8998 80.312C65.9131 80.312 65.9238 80.3013 65.9238 80.288C65.9238 80.2748 65.9131 80.2641 65.8998 80.2641Z" fill="#DFF3F3"/>
<path d="M61.4171 88.2453C61.4036 88.2453 61.3927 88.2562 61.3927 88.2696C61.3927 88.2831 61.4036 88.2939 61.4171 88.2939C61.4305 88.2939 61.4414 88.2831 61.4414 88.2696C61.4414 88.2562 61.4305 88.2453 61.4171 88.2453Z" fill="#DFF3F3"/>
<path d="M57.5238 96.5324C57.5099 96.5324 57.4987 96.5436 57.4987 96.5574C57.4987 96.5713 57.5099 96.5825 57.5238 96.5825C57.5376 96.5825 57.5488 96.5713 57.5488 96.5574C57.5488 96.5436 57.5376 96.5324 57.5238 96.5324Z" fill="#DFF3F3"/>
<path d="M53.9824 104.99C53.9824 104.976 53.9711 104.964 53.957 104.964C53.9428 104.964 53.9315 104.976 53.9315 104.99C53.9315 105.004 53.9428 105.016 53.957 105.016C53.9711 105.016 53.9824 105.004 53.9824 104.99Z" fill="#DFF3F3"/>
<path d="M50.4805 113.451C50.4805 113.437 50.4688 113.425 50.4543 113.425C50.4398 113.425 50.4281 113.437 50.4281 113.451C50.4281 113.466 50.4398 113.478 50.4543 113.478C50.4688 113.478 50.4805 113.466 50.4805 113.451Z" fill="#DFF3F3"/>
<path d="M46.7485 121.8C46.7337 121.8 46.7216 121.812 46.7216 121.827C46.7216 121.842 46.7337 121.854 46.7485 121.854C46.7634 121.854 46.7754 121.842 46.7754 121.827C46.7754 121.812 46.7634 121.8 46.7485 121.8Z" fill="#DFF3F3"/>
<path d="M42.5763 129.949C42.5612 129.949 42.5491 129.961 42.5491 129.976C42.5491 129.991 42.5612 130.003 42.5763 130.003C42.5913 130.003 42.6035 129.991 42.6035 129.976C42.6035 129.961 42.5913 129.949 42.5763 129.949Z" fill="#DFF3F3"/>
<path d="M37.6693 137.677C37.6538 137.677 37.6413 137.689 37.6413 137.705C37.6413 137.72 37.6538 137.733 37.6693 137.733C37.6847 137.733 37.6973 137.72 37.6973 137.705C37.6973 137.689 37.6847 137.677 37.6693 137.677Z" fill="#DFF3F3"/>
<path d="M31.8496 144.741C31.8496 144.725 31.8369 144.712 31.8213 144.712C31.8056 144.712 31.7929 144.725 31.7929 144.741C31.7929 144.756 31.8056 144.77 31.8213 144.77C31.8369 144.77 31.8496 144.757 31.8496 144.741Z" fill="#DFF3F3"/>
<path d="M24.9785 150.778C24.9785 150.762 24.9655 150.749 24.9495 150.749C24.9335 150.749 24.9204 150.762 24.9204 150.778C24.9204 150.794 24.9335 150.807 24.9495 150.807C24.9655 150.807 24.9785 150.794 24.9785 150.778Z" fill="#DFF3F3"/>
<path d="M16.9746 155.166C16.9746 155.15 16.9612 155.136 16.9448 155.136C16.9285 155.136 16.915 155.15 16.915 155.166C16.915 155.182 16.9285 155.196 16.9448 155.196C16.9612 155.196 16.9746 155.183 16.9746 155.166Z" fill="#DFF3F3"/>
<path d="M8.04952 157.212C8.03266 157.212 8.019 157.226 8.019 157.243C8.019 157.26 8.03266 157.273 8.04952 157.273C8.06638 157.273 8.08008 157.26 8.08008 157.243C8.08008 157.226 8.06638 157.212 8.04952 157.212Z" fill="#DFF3F3"/>
<path d="M201.781 7.22922C201.73 7.22922 201.689 7.2704 201.689 7.32117C201.689 7.37193 201.73 7.41309 201.781 7.41309C201.832 7.41309 201.873 7.37193 201.873 7.32117C201.873 7.2704 201.832 7.22922 201.781 7.22922Z" fill="#DFF3F3"/>
<path d="M196.398 14.8276C196.453 14.8276 196.498 14.783 196.498 14.7281C196.498 14.6732 196.453 14.6285 196.398 14.6285C196.344 14.6285 196.299 14.6732 196.299 14.7281C196.299 14.783 196.343 14.8276 196.398 14.8276Z" fill="#DFF3F3"/>
<path d="M190.535 21.8701C190.595 21.8701 190.643 21.8221 190.643 21.7629C190.643 21.7037 190.595 21.6557 190.535 21.6557C190.476 21.6557 190.428 21.7037 190.428 21.7629C190.428 21.8221 190.476 21.8701 190.535 21.8701Z" fill="#DFF3F3"/>
<path d="M184.178 28.4668C184.242 28.4668 184.293 28.4152 184.293 28.352C184.293 28.2888 184.241 28.2372 184.178 28.2372C184.115 28.2372 184.063 28.2888 184.063 28.352C184.063 28.4152 184.115 28.4668 184.178 28.4668Z" fill="#DFF3F3"/>
<path d="M177.315 34.5327C177.383 34.5327 177.438 34.4778 177.438 34.4103C177.438 34.3427 177.383 34.2878 177.315 34.2878C177.247 34.2878 177.193 34.3427 177.193 34.4103C177.193 34.4778 177.247 34.5327 177.315 34.5327Z" fill="#DFF3F3"/>
<path d="M169.946 39.9741C170.018 39.9741 170.076 39.9156 170.076 39.844C170.076 39.7725 170.018 39.714 169.946 39.714C169.874 39.714 169.816 39.7725 169.816 39.844C169.816 39.9156 169.874 39.9741 169.946 39.9741Z" fill="#DFF3F3"/>
<path d="M161.976 44.1894C161.9 44.1894 161.838 44.2511 161.838 44.3271C161.838 44.4032 161.9 44.4648 161.976 44.4648C162.052 44.4648 162.113 44.4032 162.113 44.3271C162.113 44.2511 162.052 44.1894 161.976 44.1894Z" fill="#DFF3F3"/>
<path d="M153.312 47.1146C153.231 47.1146 153.166 47.1797 153.166 47.2599C153.166 47.3402 153.231 47.4053 153.312 47.4053C153.392 47.4053 153.457 47.3402 153.457 47.2599C153.457 47.1797 153.392 47.1146 153.312 47.1146Z" fill="#DFF3F3"/>
<path d="M144.304 48.7263C144.22 48.7263 144.151 48.7948 144.151 48.8793C144.151 48.9637 144.22 49.0322 144.304 49.0322C144.389 49.0322 144.457 48.9637 144.457 48.8793C144.457 48.7948 144.389 48.7263 144.304 48.7263Z" fill="#DFF3F3"/>
<path d="M135.179 49.4288C135.091 49.4288 135.019 49.5007 135.019 49.5894C135.019 49.6781 135.091 49.75 135.179 49.75C135.268 49.75 135.34 49.6781 135.34 49.5894C135.34 49.5007 135.268 49.4288 135.179 49.4288Z" fill="#DFF3F3"/>
<path d="M126.023 49.9517C126.116 49.9517 126.191 49.8765 126.191 49.7834C126.191 49.6904 126.116 49.6152 126.023 49.6152C125.93 49.6152 125.855 49.6908 125.855 49.7834C125.855 49.8761 125.93 49.9517 126.023 49.9517Z" fill="#DFF3F3"/>
<path d="M116.865 49.9888C116.962 49.9888 117.041 49.9099 117.041 49.8129C117.041 49.7159 116.962 49.6371 116.865 49.6371C116.768 49.6371 116.689 49.7159 116.689 49.8129C116.689 49.9099 116.768 49.9888 116.865 49.9888Z" fill="#DFF3F3"/>
<path d="M107.711 50.21C107.812 50.21 107.895 50.1278 107.895 50.0265C107.895 49.9251 107.812 49.843 107.711 49.843C107.61 49.843 107.528 49.9251 107.528 50.0265C107.528 50.1278 107.61 50.21 107.711 50.21Z" fill="#DFF3F3"/>
<path d="M98.5882 50.6085C98.4826 50.6085 98.3971 50.6941 98.3971 50.7996C98.3971 50.9052 98.4826 50.9907 98.5882 50.9907C98.6937 50.9907 98.7793 50.9052 98.7793 50.7996C98.7793 50.6941 98.6937 50.6085 98.5882 50.6085Z" fill="#DFF3F3"/>
<path d="M89.6118 52.7788C89.7215 52.7788 89.8105 52.6898 89.8105 52.5801C89.8105 52.4703 89.7215 52.3813 89.6118 52.3813C89.5021 52.3813 89.4131 52.4703 89.4131 52.5801C89.4131 52.6898 89.5021 52.7788 89.6118 52.7788Z" fill="#DFF3F3"/>
<path d="M81.069 56.0405C81.1831 56.0405 81.2754 55.9482 81.2754 55.8342C81.2754 55.7201 81.1831 55.6278 81.069 55.6278C80.9549 55.6278 80.8626 55.7201 80.8626 55.8342C80.8623 55.9482 80.9549 56.0405 81.069 56.0405Z" fill="#DFF3F3"/>
<path d="M73.4325 61.0645C73.5505 61.0645 73.6465 60.9685 73.6465 60.8504C73.6465 60.7324 73.5505 60.6364 73.4325 60.6364C73.3144 60.6364 73.2185 60.7324 73.2185 60.8504C73.2185 60.9685 73.3144 61.0645 73.4325 61.0645Z" fill="#DFF3F3"/>
<path d="M67.0792 67.647C67.2016 67.647 67.3008 67.5478 67.3008 67.4253C67.3008 67.3029 67.2016 67.2037 67.0792 67.2037C66.9567 67.2037 66.8575 67.3029 66.8575 67.4253C66.8575 67.5478 66.9567 67.647 67.0792 67.647Z" fill="#DFF3F3"/>
<path d="M61.7629 75.1069C61.8897 75.1069 61.9922 75.0041 61.9922 74.8777C61.9922 74.7512 61.8893 74.6484 61.7629 74.6484C61.6364 74.6484 61.5336 74.7509 61.5336 74.8777C61.5336 75.0045 61.6364 75.1069 61.7629 75.1069Z" fill="#DFF3F3"/>
<path d="M57.2787 83.0947C57.4095 83.0947 57.5156 82.9886 57.5156 82.8578C57.5156 82.727 57.4095 82.6209 57.2787 82.6209C57.1479 82.6209 57.0419 82.727 57.0419 82.8578C57.0415 82.9886 57.1476 83.0947 57.2787 83.0947Z" fill="#DFF3F3"/>
<path d="M53.3843 91.3887C53.5195 91.3887 53.6289 91.2789 53.6289 91.1441C53.6289 91.0093 53.5195 90.8996 53.3843 90.8996C53.2492 90.8996 53.1398 91.009 53.1398 91.1441C53.1398 91.2793 53.2492 91.3887 53.3843 91.3887Z" fill="#DFF3F3"/>
<path d="M49.8201 99.8306C49.9593 99.8306 50.0723 99.7176 50.0723 99.5784C50.0723 99.4393 49.9593 99.3263 49.8201 99.3263C49.681 99.3263 49.568 99.4393 49.568 99.5784C49.568 99.7176 49.6806 99.8306 49.8201 99.8306Z" fill="#DFF3F3"/>
<path d="M46.3164 108.298C46.4599 108.298 46.5762 108.182 46.5762 108.038C46.5762 107.895 46.4599 107.778 46.3164 107.778C46.1729 107.778 46.0566 107.895 46.0566 108.038C46.0566 108.182 46.1729 108.298 46.3164 108.298Z" fill="#DFF3F3"/>
<path d="M42.6115 116.683C42.759 116.683 42.8789 116.564 42.8789 116.416C42.8789 116.268 42.7593 116.148 42.6115 116.148C42.4636 116.148 42.3441 116.268 42.3441 116.416C42.3441 116.564 42.4639 116.683 42.6115 116.683Z" fill="#DFF3F3"/>
<path d="M38.4379 124.838C38.5897 124.838 38.7129 124.715 38.7129 124.563C38.7129 124.411 38.5897 124.288 38.4379 124.288C38.286 124.288 38.1628 124.411 38.1628 124.563C38.1628 124.715 38.286 124.838 38.4379 124.838Z" fill="#DFF3F3"/>
<path d="M33.5337 132.573C33.6899 132.573 33.8164 132.446 33.8164 132.291C33.8164 132.135 33.6899 132.008 33.5337 132.008C33.3775 132.008 33.251 132.134 33.251 132.291C33.251 132.447 33.3778 132.573 33.5337 132.573Z" fill="#DFF3F3"/>
<path d="M27.6863 139.619C27.8465 139.619 27.9766 139.489 27.9766 139.328C27.9766 139.168 27.8465 139.038 27.6863 139.038C27.526 139.038 27.3959 139.168 27.3959 139.328C27.3959 139.489 27.526 139.619 27.6863 139.619Z" fill="#DFF3F3"/>
<path d="M20.8153 145.069C20.6508 145.069 20.5174 145.202 20.5174 145.367C20.5174 145.531 20.6508 145.665 20.8153 145.665C20.9799 145.665 21.1133 145.531 21.1133 145.367C21.1133 145.202 20.9799 145.069 20.8153 145.069Z" fill="#DFF3F3"/>
<path d="M12.8116 149.45C12.6428 149.45 12.5061 149.587 12.5061 149.756C12.5061 149.925 12.6428 150.062 12.8116 150.062C12.9804 150.062 13.1172 149.925 13.1172 149.756C13.1172 149.587 12.9804 149.45 12.8116 149.45Z" fill="#DFF3F3"/>
<path d="M3.9153 152.148C4.08825 152.148 4.22852 152.008 4.22852 151.835C4.22852 151.662 4.08825 151.522 3.9153 151.522C3.74235 151.522 3.60213 151.662 3.60213 151.835C3.60213 152.008 3.74235 152.148 3.9153 152.148Z" fill="#DFF3F3"/>
<path d="M197.643 2.12891C197.764 2.12891 197.861 2.03116 197.861 1.91054C197.861 1.78991 197.764 1.69217 197.643 1.69217C197.522 1.69217 197.425 1.78991 197.425 1.91054C197.425 2.03116 197.522 2.12891 197.643 2.12891Z" fill="#DFF3F3"/>
<path d="M192.26 9.08495C192.132 9.08495 192.029 9.18824 192.029 9.31567C192.029 9.44309 192.132 9.54639 192.26 9.54639C192.387 9.54639 192.49 9.44309 192.49 9.31567C192.49 9.18824 192.387 9.08495 192.26 9.08495Z" fill="#DFF3F3"/>
<path d="M186.398 16.5942C186.532 16.5942 186.641 16.4852 186.641 16.3512C186.641 16.2167 186.532 16.1081 186.398 16.1081C186.263 16.1081 186.154 16.2167 186.154 16.3512C186.154 16.4852 186.263 16.5942 186.398 16.5942Z" fill="#DFF3F3"/>
<path d="M180.039 23.1938C180.18 23.1938 180.295 23.0794 180.295 22.9381C180.295 22.7967 180.18 22.6823 180.039 22.6823C179.898 22.6823 179.783 22.7967 179.783 22.9381C179.783 23.0794 179.898 23.1938 180.039 23.1938Z" fill="#DFF3F3"/>
<path d="M173.177 29.2686C173.325 29.2686 173.445 29.1483 173.445 29.0004C173.445 28.8525 173.325 28.7323 173.177 28.7323C173.029 28.7323 172.909 28.8525 172.909 29.0004C172.909 29.1483 173.029 29.2686 173.177 29.2686Z" fill="#DFF3F3"/>
<path d="M165.809 34.1519C165.654 34.1519 165.529 34.2775 165.529 34.4324C165.529 34.5873 165.654 34.7129 165.809 34.7129C165.964 34.7129 166.09 34.5873 166.09 34.4324C166.09 34.2775 165.964 34.1519 165.809 34.1519Z" fill="#DFF3F3"/>
<path d="M157.838 39.209C158 39.209 158.131 39.0778 158.131 38.9158C158.131 38.7537 158 38.6226 157.838 38.6226C157.676 38.6226 157.544 38.7537 157.544 38.9158C157.544 39.0778 157.676 39.209 157.838 39.209Z" fill="#DFF3F3"/>
<path d="M149.175 41.5417C149.006 41.5417 148.869 41.6785 148.869 41.8473C148.869 42.016 149.006 42.1528 149.175 42.1528C149.344 42.1528 149.48 42.016 149.48 41.8473C149.48 41.6785 149.344 41.5417 149.175 41.5417Z" fill="#DFF3F3"/>
<path d="M140.166 43.7847C140.342 43.7847 140.484 43.6422 140.484 43.4668C140.484 43.2913 140.342 43.1488 140.166 43.1488C139.991 43.1488 139.848 43.2913 139.848 43.4668C139.848 43.6422 139.991 43.7847 140.166 43.7847Z" fill="#DFF3F3"/>
<path d="M131.039 43.8475C130.856 43.8475 130.708 43.9955 130.708 44.1782C130.708 44.3608 130.856 44.5088 131.039 44.5088C131.221 44.5088 131.369 44.3608 131.369 44.1782C131.369 43.9955 131.221 43.8475 131.039 43.8475Z" fill="#DFF3F3"/>
<path d="M121.886 44.7158C122.075 44.7158 122.229 44.5625 122.229 44.3728C122.229 44.1832 122.075 44.0298 121.886 44.0298C121.696 44.0298 121.543 44.1835 121.543 44.3728C121.543 44.5621 121.696 44.7158 121.886 44.7158Z" fill="#DFF3F3"/>
<path d="M112.726 44.0469C112.53 44.0469 112.371 44.2061 112.371 44.4026C112.371 44.599 112.53 44.7583 112.726 44.7583C112.923 44.7583 113.082 44.599 113.082 44.4026C113.082 44.2061 112.923 44.0469 112.726 44.0469Z" fill="#DFF3F3"/>
<path d="M103.573 44.9829C103.776 44.9829 103.941 44.818 103.941 44.6149C103.941 44.4114 103.777 44.2468 103.573 44.2468C103.37 44.2468 103.205 44.4117 103.205 44.6149C103.205 44.8183 103.37 44.9829 103.573 44.9829Z" fill="#DFF3F3"/>
<path d="M94.4497 45.769C94.6597 45.769 94.8301 45.5986 94.8301 45.3886C94.8301 45.1786 94.6597 45.0082 94.4497 45.0082C94.2397 45.0082 94.0693 45.1786 94.0693 45.3886C94.0693 45.5986 94.2397 45.769 94.4497 45.769Z" fill="#DFF3F3"/>
<path d="M85.4741 47.5601C85.691 47.5601 85.8672 47.3842 85.8672 47.1669C85.8672 46.9497 85.6913 46.7738 85.4741 46.7738C85.2572 46.7738 85.0813 46.9497 85.0813 47.1669C85.0813 47.3838 85.2572 47.5601 85.4741 47.5601Z" fill="#DFF3F3"/>
<path d="M76.9304 50.8271C77.1543 50.8271 77.3359 50.6455 77.3359 50.4217C77.3359 50.1979 77.1543 50.0162 76.9304 50.0162C76.7066 50.0162 76.525 50.1979 76.525 50.4217C76.525 50.6455 76.7066 50.8271 76.9304 50.8271Z" fill="#DFF3F3"/>
<path d="M69.295 55.8569C69.5258 55.8569 69.7129 55.6698 69.7129 55.4391C69.7129 55.2084 69.5258 55.0213 69.295 55.0213C69.0643 55.0213 68.8772 55.2084 68.8772 55.4391C68.8772 55.6698 69.0643 55.8569 69.295 55.8569Z" fill="#DFF3F3"/>
<path d="M62.9406 62.4453C63.1782 62.4453 63.3711 62.2527 63.3711 62.0148C63.3711 61.7768 63.1785 61.5842 62.9406 61.5842C62.7026 61.5842 62.51 61.7768 62.51 62.0148C62.51 62.2527 62.7029 62.4453 62.9406 62.4453Z" fill="#DFF3F3"/>
<path d="M57.6235 69.9082C57.868 69.9082 58.0664 69.7102 58.0664 69.4653C58.0664 69.2204 57.868 69.0224 57.6235 69.0224C57.379 69.0224 57.1806 69.2204 57.1806 69.4653C57.1806 69.7102 57.379 69.9082 57.6235 69.9082Z" fill="#DFF3F3"/>
<path d="M53.1404 77.9014C53.3919 77.9014 53.5957 77.6975 53.5957 77.4461C53.5957 77.1947 53.3919 76.9908 53.1404 76.9908C52.889 76.9908 52.6852 77.1947 52.6852 77.4461C52.6852 77.6975 52.889 77.9014 53.1404 77.9014Z" fill="#DFF3F3"/>
<path d="M49.2469 85.2652C48.9884 85.2652 48.7789 85.4747 48.7789 85.7332C48.7789 85.9917 48.9884 86.2012 49.2469 86.2012C49.5053 86.2012 49.7148 85.9917 49.7148 85.7332C49.7148 85.4747 49.5053 85.2652 49.2469 85.2652Z" fill="#DFF3F3"/>
<path d="M45.6798 93.6883C45.4145 93.6883 45.1995 93.9033 45.1995 94.1686C45.1995 94.4339 45.4145 94.6489 45.6798 94.6489C45.9451 94.6489 46.1602 94.4339 46.1602 94.1686C46.1602 93.9033 45.9451 93.6883 45.6798 93.6883Z" fill="#DFF3F3"/>
<path d="M42.1772 103.122C42.4493 103.122 42.6699 102.901 42.6699 102.629C42.6699 102.357 42.4493 102.136 42.1772 102.136C41.9051 102.136 41.6845 102.357 41.6845 102.629C41.6845 102.901 41.9051 103.122 42.1772 103.122Z" fill="#DFF3F3"/>
<path d="M38.4731 111.507C38.7522 111.507 38.9785 111.28 38.9785 111.001C38.9785 110.722 38.7522 110.496 38.4731 110.496C38.1941 110.496 37.9677 110.722 37.9677 111.001C37.9677 111.28 38.1941 111.507 38.4731 111.507Z" fill="#DFF3F3"/>
<path d="M34.3006 118.635C34.0147 118.635 33.7829 118.867 33.7829 119.153C33.7829 119.439 34.0147 119.67 34.3006 119.67C34.5866 119.67 34.8184 119.439 34.8184 119.153C34.8184 118.867 34.5866 118.635 34.3006 118.635Z" fill="#DFF3F3"/>
<path d="M29.3957 126.348C29.1029 126.348 28.8656 126.585 28.8656 126.878C28.8656 127.171 29.1029 127.408 29.3957 127.408C29.6885 127.408 29.9258 127.171 29.9258 126.878C29.9258 126.585 29.6885 126.348 29.3957 126.348Z" fill="#DFF3F3"/>
<path d="M23.547 134.459C23.8468 134.459 24.0898 134.217 24.0898 133.917C24.0898 133.617 23.8468 133.374 23.547 133.374C23.2473 133.374 23.0042 133.617 23.0042 133.917C23.0046 134.217 23.2473 134.459 23.547 134.459Z" fill="#DFF3F3"/>
<path d="M16.6773 140.511C16.9839 140.511 17.2324 140.263 17.2324 139.956C17.2324 139.649 16.9839 139.401 16.6773 139.401C16.3706 139.401 16.1221 139.649 16.1221 139.956C16.1221 140.263 16.3706 140.511 16.6773 140.511Z" fill="#DFF3F3"/>
<path d="M8.6727 143.776C8.35927 143.776 8.10517 144.03 8.10517 144.344C8.10517 144.657 8.35927 144.911 8.6727 144.911C8.98614 144.911 9.24023 144.657 9.24023 144.344C9.24023 144.03 8.98614 143.776 8.6727 143.776Z" fill="#DFF3F3"/>
<path d="M0.357422 146.423C0.357422 146.374 0.351229 146.325 0.339576 146.28C0.277121 146.034 0.00317991 146.169 0.00317991 146.423C0.00317991 146.677 0.277032 146.812 0.339554 146.566C0.351221 146.521 0.357422 146.473 0.357422 146.423Z" fill="#DFF3F3"/>
<path d="M188.119 4.30518C188.34 4.30518 188.52 4.12568 188.52 3.90441C188.52 3.68314 188.34 3.50402 188.119 3.50402C187.898 3.50402 187.719 3.68314 187.719 3.90441C187.719 4.12568 187.898 4.30518 188.119 4.30518Z" fill="#DFF3F3"/>
<path d="M182.256 11.3535C182.485 11.3535 182.672 11.1675 182.672 10.9379C182.672 10.7082 182.486 10.5218 182.256 10.5218C182.026 10.5218 181.84 10.7079 181.84 10.9379C181.84 11.1671 182.026 11.3535 182.256 11.3535Z" fill="#DFF3F3"/>
<path d="M175.899 17.9561C176.137 17.9561 176.33 17.7628 176.33 17.5248C176.33 17.2868 176.137 17.0935 175.899 17.0935C175.66 17.0935 175.468 17.2864 175.468 17.5248C175.468 17.7631 175.66 17.9561 175.899 17.9561Z" fill="#DFF3F3"/>
<path d="M169.036 24.0332C169.283 24.0332 169.482 23.8334 169.482 23.5867C169.482 23.34 169.283 23.1401 169.036 23.1401C168.789 23.1401 168.589 23.34 168.589 23.5867C168.589 23.8334 168.79 24.0332 169.036 24.0332Z" fill="#DFF3F3"/>
<path d="M161.667 29.4805C161.922 29.4805 162.129 29.2737 162.129 29.0187C162.129 28.7636 161.922 28.5569 161.667 28.5569C161.412 28.5569 161.205 28.7636 161.205 29.0187C161.205 29.2737 161.412 29.4805 161.667 29.4805Z" fill="#DFF3F3"/>
<path d="M153.697 33.9795C153.96 33.9795 154.174 33.7658 154.174 33.5024C154.174 33.2386 153.96 33.0254 153.697 33.0254C153.433 33.0254 153.22 33.239 153.22 33.5024C153.22 33.7658 153.433 33.9795 153.697 33.9795Z" fill="#DFF3F3"/>
<path d="M145.033 35.9433C144.761 35.9433 144.54 36.1639 144.54 36.436C144.54 36.7081 144.761 36.9287 145.033 36.9287C145.305 36.9287 145.525 36.7081 145.525 36.436C145.525 36.1639 145.305 35.9433 145.033 35.9433Z" fill="#DFF3F3"/>
<path d="M136.025 38.5635C136.306 38.5635 136.533 38.336 136.533 38.0555C136.533 37.775 136.306 37.5476 136.025 37.5476C135.745 37.5476 135.517 37.775 135.517 38.0555C135.517 38.336 135.745 38.5635 136.025 38.5635Z" fill="#DFF3F3"/>
<path d="M126.899 39.2876C127.188 39.2876 127.422 39.0532 127.422 38.7644C127.422 38.4755 127.188 38.2412 126.899 38.2412C126.61 38.2412 126.375 38.4755 126.375 38.7644C126.375 39.0532 126.609 39.2876 126.899 39.2876Z" fill="#DFF3F3"/>
<path d="M117.745 39.4976C118.042 39.4976 118.283 39.2563 118.283 38.9591C118.283 38.6619 118.042 38.4206 117.745 38.4206C117.447 38.4206 117.206 38.6619 117.206 38.9591C117.206 39.2563 117.447 39.4976 117.745 39.4976Z" fill="#DFF3F3"/>
<path d="M108.585 39.543C108.891 39.543 109.139 39.2948 109.139 38.9893C109.139 38.6837 108.891 38.4355 108.585 38.4355C108.279 38.4355 108.031 38.6837 108.031 38.9893C108.031 39.2948 108.279 39.543 108.585 39.543Z" fill="#DFF3F3"/>
<path d="M99.4306 39.77C99.7449 39.77 100 39.5153 100 39.2007C100 38.8864 99.7449 38.6317 99.4306 38.6317C99.1164 38.6317 98.8613 38.8864 98.8613 39.2007C98.8613 39.5153 99.1164 39.77 99.4306 39.77Z" fill="#DFF3F3"/>
<path d="M90.308 40.5591C90.631 40.5591 90.8926 40.2975 90.8926 39.9745C90.8926 39.6515 90.631 39.3899 90.308 39.3899C89.985 39.3899 89.7234 39.6515 89.7234 39.9745C89.7234 40.2975 89.985 40.5591 90.308 40.5591Z" fill="#DFF3F3"/>
<path d="M81.3337 42.353C81.6651 42.353 81.9336 42.0845 81.9336 41.7532C81.9336 41.4218 81.6651 41.1533 81.3337 41.1533C81.0024 41.1533 80.7339 41.4218 80.7339 41.7532C80.7339 42.0845 81.0024 42.353 81.3337 42.353Z" fill="#DFF3F3"/>
<path d="M72.7888 45.626C73.1285 45.626 73.4043 45.3506 73.4043 45.0109C73.4043 44.6708 73.1289 44.3954 72.7888 44.3954C72.4487 44.3954 72.1737 44.6708 72.1737 45.0109C72.1737 45.3506 72.4491 45.626 72.7888 45.626Z" fill="#DFF3F3"/>
<path d="M65.1525 50.6587C65.5009 50.6587 65.7832 50.3764 65.7832 50.0279C65.7832 49.6795 65.5009 49.3972 65.1525 49.3972C64.804 49.3972 64.5217 49.6795 64.5217 50.0279C64.5217 50.3764 64.8044 50.6587 65.1525 50.6587Z" fill="#DFF3F3"/>
<path d="M58.7993 57.2471C59.1561 57.2471 59.4453 56.9579 59.4453 56.6011C59.4453 56.2443 59.1561 55.9551 58.7993 55.9551C58.4425 55.9551 58.1533 56.2443 58.1533 56.6011C58.1533 56.9579 58.4425 57.2471 58.7993 57.2471Z" fill="#DFF3F3"/>
<path d="M53.4832 63.3899C53.118 63.3899 52.822 63.6859 52.822 64.0511C52.822 64.4164 53.118 64.7124 53.4832 64.7124C53.8484 64.7124 54.1445 64.4164 54.1445 64.0511C54.1445 63.6859 53.8484 63.3899 53.4832 63.3899Z" fill="#DFF3F3"/>
<path d="M48.9993 71.3554C48.6256 71.3554 48.3227 71.6583 48.3227 72.032C48.3227 72.4056 48.6256 72.7085 48.9993 72.7085C49.3729 72.7085 49.6758 72.4056 49.6758 72.032C49.6758 71.6583 49.3729 71.3554 48.9993 71.3554Z" fill="#DFF3F3"/>
<path d="M45.1067 79.6269C44.7244 79.6269 44.4145 79.9368 44.4145 80.3191C44.4145 80.7013 44.7244 81.0112 45.1067 81.0112C45.4889 81.0112 45.7988 80.7013 45.7988 80.3191C45.7988 79.9368 45.4889 79.6269 45.1067 79.6269Z" fill="#DFF3F3"/>
<path d="M41.5406 88.0471C41.1499 88.0471 40.8332 88.3638 40.8332 88.7545C40.8332 89.1452 41.1499 89.4619 41.5406 89.4619C41.9313 89.4619 42.248 89.1452 42.248 88.7545C42.248 88.3638 41.9313 88.0471 41.5406 88.0471Z" fill="#DFF3F3"/>
<path d="M38.0371 97.9375C38.4364 97.9375 38.7598 97.6138 38.7598 97.2148C38.7598 96.8159 38.436 96.4922 38.0371 96.4922C37.6378 96.4922 37.3144 96.8159 37.3144 97.2148C37.3144 97.6138 37.6381 97.9375 38.0371 97.9375Z" fill="#DFF3F3"/>
<path d="M34.3324 104.852C33.9248 104.852 33.5944 105.183 33.5944 105.59C33.5944 105.998 33.9248 106.328 34.3324 106.328C34.7399 106.328 35.0703 105.998 35.0703 105.59C35.0703 105.183 34.7399 104.852 34.3324 104.852Z" fill="#DFF3F3"/>
<path d="M30.1605 114.492C30.5765 114.492 30.9141 114.155 30.9141 113.739C30.9141 113.323 30.5769 112.985 30.1605 112.985C29.7441 112.985 29.407 113.323 29.407 113.739C29.407 114.155 29.7441 114.492 30.1605 114.492Z" fill="#DFF3F3"/>
<path d="M25.2546 120.698C24.83 120.698 24.4858 121.042 24.4858 121.467C24.4858 121.891 24.83 122.235 25.2546 122.235C25.6792 122.235 26.0234 121.891 26.0234 121.467C26.0234 121.042 25.6792 120.698 25.2546 120.698Z" fill="#DFF3F3"/>
<path d="M19.4073 129.287C19.8404 129.287 20.1914 128.936 20.1914 128.503C20.1914 128.069 19.8404 127.718 19.4073 127.718C18.9743 127.718 18.6232 128.069 18.6232 128.503C18.6232 128.936 18.9743 129.287 19.4073 129.287Z" fill="#DFF3F3"/>
<path d="M12.5366 135.341C12.978 135.341 13.3359 134.983 13.3359 134.542C13.3359 134.101 12.978 133.742 12.5366 133.742C12.0951 133.742 11.7373 134.1 11.7373 134.542C11.7373 134.983 12.0951 135.341 12.5366 135.341Z" fill="#DFF3F3"/>
<path d="M4.53073 139.747C4.9809 139.747 5.3457 139.382 5.3457 138.932C5.3457 138.481 4.9809 138.117 4.53073 138.117C4.08056 138.117 3.7158 138.481 3.7158 138.932C3.71616 139.382 4.08092 139.747 4.53073 139.747Z" fill="#DFF3F3"/>
<path d="M178.117 6.14941C178.462 6.14941 178.742 5.86928 178.742 5.52411C178.742 5.17895 178.462 4.89917 178.117 4.89917C177.772 4.89917 177.492 5.17931 177.492 5.52411C177.492 5.86964 177.772 6.14941 178.117 6.14941Z" fill="#DFF3F3"/>
<path d="M171.759 12.752C172.113 12.752 172.4 12.4646 172.4 12.1107C172.4 11.7568 172.113 11.4694 171.759 11.4694C171.405 11.4694 171.118 11.7568 171.118 12.1107C171.118 12.4646 171.405 12.752 171.759 12.752Z" fill="#DFF3F3"/>
<path d="M164.897 18.8291C165.26 18.8291 165.555 18.5348 165.555 18.1715C165.555 17.8081 165.26 17.5138 164.897 17.5138C164.534 17.5138 164.239 17.8081 164.239 18.1715C164.239 18.5348 164.534 18.8291 164.897 18.8291Z" fill="#DFF3F3"/>
<path d="M157.53 24.2793C157.902 24.2793 158.203 23.9777 158.203 23.6057C158.203 23.2336 157.902 22.9321 157.53 22.9321C157.157 22.9321 156.856 23.2336 156.856 23.6057C156.856 23.9777 157.157 24.2793 157.53 24.2793Z" fill="#DFF3F3"/>
<path d="M149.558 28.7783C149.939 28.7783 150.248 28.4691 150.248 28.0884C150.248 27.7076 149.939 27.3984 149.558 27.3984C149.177 27.3984 148.868 27.7076 148.868 28.0884C148.868 28.4695 149.177 28.7783 149.558 28.7783Z" fill="#DFF3F3"/>
<path d="M140.895 31.7275C141.285 31.7275 141.602 31.4114 141.602 31.0216C141.602 30.6313 141.285 30.3153 140.895 30.3153C140.505 30.3153 140.189 30.6313 140.189 31.0216C140.189 31.4114 140.505 31.7275 140.895 31.7275Z" fill="#DFF3F3"/>
<path d="M131.887 31.9182C131.488 31.9182 131.165 32.2416 131.165 32.6405C131.165 33.0394 131.488 33.3628 131.887 33.3628C132.286 33.3628 132.609 33.0394 132.609 32.6405C132.609 32.2416 132.286 31.9182 131.887 31.9182Z" fill="#DFF3F3"/>
<path d="M122.759 34.0894C123.167 34.0894 123.498 33.7587 123.498 33.3507C123.498 32.9427 123.167 32.612 122.759 32.612C122.351 32.612 122.021 32.9427 122.021 33.3507C122.021 33.7587 122.351 34.0894 122.759 34.0894Z" fill="#DFF3F3"/>
<path d="M113.606 32.7893C113.189 32.7893 112.851 33.1273 112.851 33.5443C112.851 33.9613 113.189 34.2993 113.606 34.2993C114.023 34.2993 114.361 33.9613 114.361 33.5443C114.361 33.1273 114.023 32.7893 113.606 32.7893Z" fill="#DFF3F3"/>
<path d="M104.448 34.3477C104.874 34.3477 105.219 34.0021 105.219 33.5763C105.219 33.1505 104.874 32.8049 104.448 32.8049C104.022 32.8049 103.677 33.1501 103.677 33.5763C103.677 34.0021 104.022 34.3477 104.448 34.3477Z" fill="#DFF3F3"/>
<path d="M95.2927 34.5747C95.7276 34.5747 96.0801 34.2223 96.0801 33.7874C96.0801 33.3525 95.7276 33 95.2927 33C94.8578 33 94.5054 33.3525 94.5054 33.7874C94.5054 34.2223 94.8578 34.5747 95.2927 34.5747Z" fill="#DFF3F3"/>
<path d="M86.1709 35.3667C86.6149 35.3667 86.9746 35.007 86.9746 34.5634C86.9746 34.1194 86.6149 33.7597 86.1709 33.7597C85.7273 33.7597 85.3672 34.1194 85.3672 34.5634C85.3672 35.007 85.7269 35.3667 86.1709 35.3667Z" fill="#DFF3F3"/>
<path d="M77.1959 37.1606C77.6487 37.1606 78.0156 36.7937 78.0156 36.3406C78.0156 35.8879 77.6487 35.5209 77.1959 35.5209C76.7432 35.5209 76.3763 35.8879 76.3763 36.3406C76.3763 36.7937 76.7432 37.1606 77.1959 37.1606Z" fill="#DFF3F3"/>
<path d="M68.6503 40.4336C69.1121 40.4336 69.4863 40.0594 69.4863 39.5976C69.4863 39.1358 69.1121 38.7615 68.6503 38.7615C68.1885 38.7615 67.8143 39.1358 67.8143 39.5976C67.8143 40.0594 68.1889 40.4336 68.6503 40.4336Z" fill="#DFF3F3"/>
<path d="M61.0148 43.7615C60.5441 43.7615 60.1624 44.1432 60.1624 44.6139C60.1624 45.0847 60.5441 45.4663 61.0148 45.4663C61.4856 45.4663 61.8672 45.0847 61.8672 44.6139C61.8672 44.1432 61.4856 43.7615 61.0148 43.7615Z" fill="#DFF3F3"/>
<path d="M54.6606 52.0571C55.1402 52.0571 55.5293 51.6684 55.5293 51.1888C55.5293 50.7092 55.1405 50.32 54.6606 50.32C54.1806 50.32 53.7918 50.7088 53.7918 51.1888C53.7918 51.6684 54.181 52.0571 54.6606 52.0571Z" fill="#DFF3F3"/>
<path d="M49.3457 59.5229C49.8344 59.5229 50.2305 59.1269 50.2305 58.6382C50.2305 58.1495 49.8344 57.7532 49.3457 57.7532C48.857 57.7532 48.461 58.1492 48.461 58.6382C48.461 59.1266 48.8574 59.5229 49.3457 59.5229Z" fill="#DFF3F3"/>
<path d="M44.8607 65.7198C44.363 65.7198 43.9596 66.1233 43.9596 66.6209C43.9596 67.1185 44.363 67.522 44.8607 67.522C45.3583 67.522 45.7617 67.1185 45.7617 66.6209C45.7617 66.1233 45.3583 65.7198 44.8607 65.7198Z" fill="#DFF3F3"/>
<path d="M40.9673 75.8247C41.4738 75.8247 41.8848 75.4141 41.8848 74.9077C41.8848 74.4008 41.4742 73.9902 40.9673 73.9902C40.4605 73.9902 40.0499 74.4008 40.0499 74.9077C40.0503 75.4138 40.4609 75.8247 40.9673 75.8247Z" fill="#DFF3F3"/>
<path d="M37.4006 82.4081C36.8851 82.4081 36.4672 82.826 36.4672 83.3415C36.4672 83.857 36.8851 84.2749 37.4006 84.2749C37.9161 84.2749 38.334 83.857 38.334 83.3415C38.334 82.826 37.9161 82.4081 37.4006 82.4081Z" fill="#DFF3F3"/>
<path d="M33.8979 92.751C34.4226 92.751 34.8477 92.3259 34.8477 91.8012C34.8477 91.2769 34.4226 90.8515 33.8979 90.8515C33.3732 90.8515 32.9481 91.2766 32.9481 91.8012C32.9481 92.3259 33.3732 92.751 33.8979 92.751Z" fill="#DFF3F3"/>
<path d="M30.1941 101.142C30.7274 101.142 31.1602 100.709 31.1602 100.176C31.1602 99.6425 30.7278 99.2097 30.1941 99.2097C29.6603 99.2097 29.2279 99.6421 29.2279 100.176C29.2279 100.71 29.6607 101.142 30.1941 101.142Z" fill="#DFF3F3"/>
<path d="M26.0218 109.308C26.5643 109.308 27.0039 108.868 27.0039 108.326C27.0039 107.784 26.5643 107.344 26.0218 107.344C25.4794 107.344 25.0397 107.784 25.0397 108.326C25.0394 108.868 25.4794 109.308 26.0218 109.308Z" fill="#DFF3F3"/>
<path d="M21.1168 117.052C21.6683 117.052 22.1152 116.605 22.1152 116.053C22.1152 115.502 21.6683 115.055 21.1168 115.055C20.5652 115.055 20.1183 115.502 20.1183 116.053C20.1183 116.605 20.5656 117.052 21.1168 117.052Z" fill="#DFF3F3"/>
<path d="M15.2664 124.105C15.8267 124.105 16.2812 123.651 16.2812 123.091C16.2812 122.531 15.827 122.077 15.2664 122.077C14.7062 122.077 14.2516 122.531 14.2516 123.091C14.2516 123.651 14.7062 124.105 15.2664 124.105Z" fill="#DFF3F3"/>
<path d="M8.39699 130.16C8.96633 130.16 9.42773 129.699 9.42773 129.129C9.42773 128.56 8.96633 128.099 8.39699 128.099C7.82764 128.099 7.36619 128.56 7.36619 129.129C7.36619 129.699 7.82764 130.16 8.39699 130.16Z" fill="#DFF3F3"/>
<path d="M0.392339 134.565C0.970767 134.565 1.43945 134.096 1.43945 133.518C1.43945 132.94 0.970767 132.471 0.392339 132.471C0.151091 132.471 0.00283718 132.706 0.00283718 132.947V134.089C0.00283718 134.331 0.151091 134.565 0.392339 134.565Z" fill="#DFF3F3"/>
<path d="M173.977 0.987793C174.458 0.987793 174.848 0.597945 174.848 0.116891C174.848 0.0511583 174.787 0.00279456 174.721 0.00279456H173.232C173.167 0.00279456 173.106 0.0511583 173.106 0.116891C173.106 0.597945 173.496 0.987793 173.977 0.987793Z" fill="#DFF3F3"/>
<path d="M167.62 7.59277C168.109 7.59277 168.506 7.19599 168.506 6.70695C168.506 6.2179 168.109 5.82114 167.62 5.82114C167.131 5.82114 166.734 6.2179 166.734 6.70695C166.734 7.19599 167.131 7.59277 167.62 7.59277Z" fill="#DFF3F3"/>
<path d="M160.757 13.6675C161.255 13.6675 161.658 13.2642 161.658 12.7664C161.658 12.2687 161.255 11.8654 160.757 11.8654C160.259 11.8654 159.856 12.269 159.856 12.7664C159.856 13.2638 160.259 13.6675 160.757 13.6675Z" fill="#DFF3F3"/>
<path d="M153.388 19.1147C153.894 19.1147 154.305 18.7045 154.305 18.1988C154.305 17.6926 153.894 17.2824 153.388 17.2824C152.882 17.2824 152.472 17.6926 152.472 18.1988C152.472 18.7045 152.882 19.1147 153.388 19.1147Z" fill="#DFF3F3"/>
<path d="M145.416 23.6138C145.931 23.6138 146.348 23.1967 146.348 22.6822C146.348 22.1677 145.931 21.751 145.416 21.751C144.902 21.751 144.485 22.1681 144.485 22.6822C144.485 23.1967 144.902 23.6138 145.416 23.6138Z" fill="#DFF3F3"/>
<path d="M136.755 26.563C137.278 26.563 137.701 26.139 137.701 25.6165C137.701 25.0937 137.278 24.67 136.755 24.67C136.232 24.67 135.808 25.094 135.808 25.6165C135.808 26.1393 136.232 26.563 136.755 26.563Z" fill="#DFF3F3"/>
<path d="M127.745 28.1982C128.276 28.1982 128.707 27.7677 128.707 27.2369C128.707 26.7057 128.276 26.2751 127.745 26.2751C127.214 26.2751 126.784 26.7057 126.784 27.2369C126.784 27.7677 127.214 28.1982 127.745 28.1982Z" fill="#DFF3F3"/>
<path d="M118.621 28.9219C119.16 28.9219 119.598 28.4844 119.598 27.9452C119.598 27.406 119.16 26.9682 118.621 26.9682C118.081 26.9682 117.644 27.4057 117.644 27.9452C117.644 28.4848 118.081 28.9219 118.621 28.9219Z" fill="#DFF3F3"/>
<path d="M109.465 29.1318C110.013 29.1318 110.457 28.6875 110.457 28.1399C110.457 27.5924 110.013 27.148 109.465 27.148C108.917 27.148 108.473 27.592 108.473 28.1399C108.473 28.6878 108.917 29.1318 109.465 29.1318Z" fill="#DFF3F3"/>
<path d="M100.307 27.1629C99.7511 27.1629 99.3001 27.6139 99.3001 28.1701C99.3001 28.7263 99.7511 29.1772 100.307 29.1772C100.864 29.1772 101.314 28.7263 101.314 28.1701C101.314 27.6139 100.864 27.1629 100.307 27.1629Z" fill="#DFF3F3"/>
<path d="M91.1533 29.4043C91.718 29.4043 92.1758 28.9465 92.1758 28.3819C92.1758 27.8172 91.718 27.3598 91.1533 27.3598C90.5887 27.3598 90.1309 27.8176 90.1309 28.3819C90.1309 28.9468 90.5887 29.4043 91.1533 29.4043Z" fill="#DFF3F3"/>
<path d="M82.031 30.1934C82.604 30.1934 83.0684 29.729 83.0684 29.156C83.0684 28.5831 82.604 28.1187 82.031 28.1187C81.458 28.1187 80.9937 28.5831 80.9937 29.156C80.9933 29.729 81.458 30.1934 82.031 30.1934Z" fill="#DFF3F3"/>
<path d="M73.0529 29.8822C72.4716 29.8822 72.0003 30.3534 72.0003 30.9347C72.0003 31.516 72.4716 31.9873 73.0529 31.9873C73.6342 31.9873 74.1055 31.516 74.1055 30.9347C74.1055 30.3534 73.6342 29.8822 73.0529 29.8822Z" fill="#DFF3F3"/>
<path d="M64.5103 35.2573C65.1 35.2573 65.5781 34.7792 65.5781 34.1895C65.5781 33.5998 65.1 33.122 64.5103 33.122C63.9206 33.122 63.4424 33.5998 63.4424 34.1895C63.4424 34.7792 63.9206 35.2573 64.5103 35.2573Z" fill="#DFF3F3"/>
<path d="M56.8743 38.1246C56.2763 38.1246 55.7915 38.6093 55.7915 39.2073C55.7915 39.8053 56.2763 40.29 56.8743 40.29C57.4722 40.29 57.957 39.8053 57.957 39.2073C57.957 38.6093 57.4722 38.1246 56.8743 38.1246Z" fill="#DFF3F3"/>
<path d="M50.5192 46.8813C51.1256 46.8813 51.6172 46.3898 51.6172 45.7834C51.6172 45.1769 51.1256 44.6854 50.5192 44.6854C49.9128 44.6854 49.4212 45.1769 49.4212 45.7834C49.4212 46.3894 49.9128 46.8813 50.5192 46.8813Z" fill="#DFF3F3"/>
<path d="M45.2032 54.3467C45.8179 54.3467 46.3164 53.8482 46.3164 53.2338C46.3164 52.619 45.8179 52.1205 45.2032 52.1205C44.5884 52.1205 44.0899 52.619 44.0899 53.2338C44.0902 53.8485 44.5884 54.3467 45.2032 54.3467Z" fill="#DFF3F3"/>
<path d="M40.7215 62.3428C41.3446 62.3428 41.8496 61.8374 41.8496 61.2146C41.8496 60.5915 41.3446 60.0865 40.7215 60.0865C40.0983 60.0865 39.5933 60.5915 39.5933 61.2146C39.593 61.8374 40.098 62.3428 40.7215 62.3428Z" fill="#DFF3F3"/>
<path d="M36.8273 70.6455C37.4588 70.6455 37.9707 70.1336 37.9707 69.5021C37.9707 68.8706 37.4588 68.3587 36.8273 68.3587C36.1958 68.3587 35.6839 68.8706 35.6839 69.5021C35.6839 70.1336 36.1958 70.6455 36.8273 70.6455Z" fill="#DFF3F3"/>
<path d="M33.2613 79.0933C33.9011 79.0933 34.4199 78.5744 34.4199 77.9346C34.4199 77.2948 33.9011 76.7759 33.2613 76.7759C32.6214 76.7759 32.1026 77.2948 32.1026 77.9346C32.1026 78.5744 32.6214 79.0933 33.2613 79.0933Z" fill="#DFF3F3"/>
<path d="M29.7561 87.5693C30.4043 87.5693 30.9297 87.044 30.9297 86.3958C30.9297 85.7476 30.4043 85.2222 29.7561 85.2222C29.1079 85.2222 28.5826 85.7476 28.5826 86.3958C28.5826 87.044 29.1079 87.5693 29.7561 87.5693Z" fill="#DFF3F3"/>
<path d="M26.0533 95.96C26.7099 95.96 27.2422 95.4277 27.2422 94.7711C27.2422 94.1146 26.7099 93.5823 26.0533 93.5823C25.3968 93.5823 24.8645 94.1146 24.8645 94.7711C24.8645 95.4277 25.3968 95.96 26.0533 95.96Z" fill="#DFF3F3"/>
<path d="M21.8799 104.124C22.5448 104.124 23.084 103.584 23.084 102.919C23.084 102.255 22.5448 101.715 21.8799 101.715C21.215 101.715 20.6758 102.255 20.6758 102.919C20.6758 103.584 21.215 104.124 21.8799 104.124Z" fill="#DFF3F3"/>
<path d="M16.9763 111.867C17.6495 111.867 18.1953 111.321 18.1953 110.648C18.1953 109.975 17.6495 109.429 16.9763 109.429C16.303 109.429 15.757 109.975 15.757 110.648C15.7573 111.321 16.303 111.867 16.9763 111.867Z" fill="#DFF3F3"/>
<path d="M11.1271 116.449C10.4454 116.449 9.89286 117.002 9.89286 117.684C9.89286 118.365 10.4454 118.918 11.1271 118.918C11.8087 118.918 12.3613 118.365 12.3613 117.684C12.3613 117.002 11.8087 116.449 11.1271 116.449Z" fill="#DFF3F3"/>
<path d="M4.25827 122.474C3.56819 122.474 3.00878 123.033 3.00878 123.723C3.00878 124.413 3.56819 124.973 4.25827 124.973C4.94836 124.973 5.50781 124.413 5.50781 123.723C5.50781 123.033 4.94836 122.474 4.25827 122.474Z" fill="#DFF3F3"/>
<path d="M163.483 0.12807C162.84 0.12807 162.318 0.649765 162.318 1.29329C162.318 1.93682 162.84 2.4585 163.483 2.4585C164.127 2.4585 164.648 1.93682 164.648 1.29329C164.648 0.649765 164.127 0.12807 163.483 0.12807Z" fill="#DFF3F3"/>
<path d="M156.619 8.52979C157.27 8.52979 157.797 8.00258 157.797 7.35221C157.797 6.70184 157.27 6.17463 156.619 6.17463C155.969 6.17463 155.442 6.70184 155.442 7.35221C155.442 8.00221 155.969 8.52979 156.619 8.52979Z" fill="#DFF3F3"/>
<path d="M149.252 13.9741C149.909 13.9741 150.441 13.4415 150.441 12.7846C150.441 12.1277 149.909 11.595 149.252 11.595C148.595 11.595 148.062 12.1277 148.062 12.7846C148.062 13.4415 148.595 13.9741 149.252 13.9741Z" fill="#DFF3F3"/>
<path d="M141.281 16.0676C140.617 16.0676 140.079 16.6056 140.079 17.2692C140.079 17.9328 140.617 18.4707 141.281 18.4707C141.944 18.4707 142.482 17.9328 142.482 17.2692C142.482 16.6056 141.944 16.0676 141.281 16.0676Z" fill="#DFF3F3"/>
<path d="M132.618 21.4141C133.289 21.4141 133.832 20.8705 133.832 20.2005C133.832 19.5302 133.288 18.9866 132.618 18.9866C131.948 18.9866 131.405 19.5302 131.405 20.2005C131.405 20.8705 131.948 21.4141 132.618 21.4141Z" fill="#DFF3F3"/>
<path d="M123.608 23.0464C124.285 23.0464 124.834 22.4974 124.834 21.8205C124.834 21.1436 124.285 20.5946 123.608 20.5946C122.931 20.5946 122.382 21.1436 122.382 21.8205C122.382 22.4974 122.931 23.0464 123.608 23.0464Z" fill="#DFF3F3"/>
<path d="M114.485 23.77C115.168 23.77 115.723 23.2159 115.723 22.5321C115.723 21.8483 115.169 21.2943 114.485 21.2943C113.801 21.2943 113.247 21.8483 113.247 22.5321C113.247 23.2159 113.801 23.77 114.485 23.77Z" fill="#DFF3F3"/>
<path d="M105.328 21.4749C104.638 21.4749 104.078 22.0345 104.078 22.7247C104.078 23.415 104.638 23.9746 105.328 23.9746C106.019 23.9746 106.578 23.415 106.578 22.7247C106.578 22.0345 106.019 21.4749 105.328 21.4749Z" fill="#DFF3F3"/>
<path d="M96.1717 24.0171C96.8686 24.0171 97.4336 23.4521 97.4336 22.7552C97.4336 22.0583 96.8686 21.493 96.1717 21.493C95.4749 21.493 94.9099 22.058 94.9099 22.7552C94.9099 23.4521 95.4749 24.0171 96.1717 24.0171Z" fill="#DFF3F3"/>
<path d="M87.0168 24.2441C87.7206 24.2441 88.291 23.6737 88.291 22.9699C88.291 22.2661 87.7206 21.6961 87.0168 21.6961C86.313 21.6961 85.7426 22.2665 85.7426 22.9699C85.7426 23.6733 86.313 24.2441 87.0168 24.2441Z" fill="#DFF3F3"/>
<path d="M77.8935 25.0278C78.6038 25.0278 79.1797 24.4519 79.1797 23.7416C79.1797 23.0313 78.6038 22.4554 77.8935 22.4554C77.1832 22.4554 76.6073 23.0313 76.6073 23.7416C76.6073 24.4519 77.1832 25.0278 77.8935 25.0278Z" fill="#DFF3F3"/>
<path d="M68.9167 26.8188C69.6335 26.8188 70.2148 26.2375 70.2148 25.5207C70.2148 24.8038 69.6335 24.2225 68.9167 24.2225C68.1998 24.2225 67.6185 24.8038 67.6185 25.5207C67.6185 26.2379 68.1998 26.8188 68.9167 26.8188Z" fill="#DFF3F3"/>
<path d="M60.3734 30.0859C61.0971 30.0859 61.6836 29.4991 61.6836 28.7757C61.6836 28.0523 61.0968 27.4656 60.3734 27.4656C59.6496 27.4656 59.0632 28.052 59.0632 28.7757C59.0632 29.4995 59.65 30.0859 60.3734 30.0859Z" fill="#DFF3F3"/>
<path d="M52.7384 35.1157C53.4687 35.1157 54.0605 34.5238 54.0605 33.7935C54.0605 33.0632 53.4687 32.471 52.7384 32.471C52.0081 32.471 51.4158 33.0629 51.4158 33.7935C51.4162 34.5238 52.0081 35.1157 52.7384 35.1157Z" fill="#DFF3F3"/>
<path d="M46.3842 41.7041C47.1211 41.7041 47.7188 41.1064 47.7188 40.3696C47.7188 39.6327 47.1214 39.0354 46.3842 39.0354C45.6474 39.0354 45.0497 39.6327 45.0497 40.3696C45.0497 41.1064 45.647 41.7041 46.3842 41.7041Z" fill="#DFF3F3"/>
<path d="M41.0675 49.1636C41.8113 49.1636 42.4141 48.5608 42.4141 47.8171C42.4141 47.0737 41.8113 46.4705 41.0675 46.4705C40.3238 46.4705 39.721 47.0733 39.721 47.8171C39.721 48.5608 40.3241 49.1636 41.0675 49.1636Z" fill="#DFF3F3"/>
<path d="M36.5848 57.1572C37.3351 57.1572 37.9434 56.549 37.9434 55.7987C37.9434 55.0484 37.3351 54.4402 36.5848 54.4402C35.8346 54.4402 35.2264 55.0484 35.2264 55.7987C35.2264 56.5494 35.8346 57.1572 36.5848 57.1572Z" fill="#DFF3F3"/>
<path d="M32.6901 65.457C33.4469 65.457 34.0605 64.8434 34.0605 64.0865C34.0605 63.3297 33.4469 62.716 32.6901 62.716C31.9332 62.716 31.3196 63.3297 31.3196 64.0865C31.3196 64.8434 31.9332 65.457 32.6901 65.457Z" fill="#DFF3F3"/>
<path d="M29.125 73.9048C29.8887 73.9048 30.5078 73.2857 30.5078 72.5219C30.5078 71.7582 29.8887 71.1391 29.125 71.1391C28.3613 71.1391 27.7421 71.7582 27.7421 72.5219C27.7421 73.2857 28.3613 73.9048 29.125 73.9048Z" fill="#DFF3F3"/>
<path d="M25.6208 79.5878C24.8504 79.5878 24.226 80.2123 24.226 80.9826C24.226 81.753 24.8504 82.3774 25.6208 82.3774C26.3911 82.3774 27.0156 81.753 27.0156 80.9826C27.0156 80.2123 26.3911 79.5878 25.6208 79.5878Z" fill="#DFF3F3"/>
<path d="M21.9174 90.7627C22.6942 90.7627 23.3242 90.1327 23.3242 89.3555C23.3242 88.5787 22.6942 87.9487 21.9174 87.9487C21.1402 87.9487 20.5106 88.5787 20.5106 89.3555C20.5106 90.1327 21.1406 90.7627 21.9174 90.7627Z" fill="#DFF3F3"/>
<path d="M17.7433 98.9233C18.527 98.9233 19.1621 98.2879 19.1621 97.5045C19.1621 96.7208 18.527 96.0853 17.7433 96.0853C16.9596 96.0853 16.3244 96.7208 16.3244 97.5045C16.3241 98.2882 16.9596 98.9233 17.7433 98.9233Z" fill="#DFF3F3"/>
<path d="M12.8403 106.664C13.6306 106.664 14.2715 106.023 14.2715 105.233C14.2715 104.443 13.6309 103.802 12.8403 103.802C12.0497 103.802 11.4092 104.443 11.4092 105.233C11.4095 106.023 12.0501 106.664 12.8403 106.664Z" fill="#DFF3F3"/>
<path d="M6.99237 110.826C6.19533 110.826 5.54923 111.472 5.54923 112.269C5.54923 113.066 6.19533 113.712 6.99237 113.712C7.7894 113.712 8.43555 113.066 8.43555 112.269C8.43555 111.472 7.7894 110.826 6.99237 110.826Z" fill="#DFF3F3"/>
<path d="M0.121017 119.764C0.924712 119.764 1.57617 119.113 1.57617 118.309C1.57617 117.505 0.924712 116.854 0.121017 116.854C0.05551 116.854 0.00583375 116.916 0.00583375 116.981V119.637C0.00583375 119.702 0.05551 119.764 0.121017 119.764Z" fill="#DFF3F3"/>
<path d="M152.478 3.43115C153.299 3.43115 153.965 2.76552 153.965 1.94475C153.965 1.12362 153.299 0.458372 152.478 0.458372C151.658 0.458372 150.992 1.12398 150.992 1.94475C150.992 2.76552 151.658 3.43115 152.478 3.43115Z" fill="#DFF3F3"/>
<path d="M145.11 8.87012C145.935 8.87012 146.604 8.20157 146.604 7.3768C146.604 6.55203 145.935 5.8835 145.11 5.8835C144.285 5.8835 143.617 6.55203 143.617 7.3768C143.617 8.20157 144.285 8.87012 145.11 8.87012Z" fill="#DFF3F3"/>
<path d="M137.138 13.3604C137.967 13.3604 138.639 12.6885 138.639 11.8598C138.639 11.031 137.967 10.3592 137.138 10.3592C136.309 10.3592 135.638 11.031 135.638 11.8598C135.638 12.6885 136.309 13.3604 137.138 13.3604Z" fill="#DFF3F3"/>
<path d="M128.475 16.3013C129.307 16.3013 129.982 15.6262 129.982 14.7938C129.982 13.9614 129.307 13.2863 128.475 13.2863C127.642 13.2863 126.967 13.9614 126.967 14.7938C126.967 15.6262 127.642 16.3013 128.475 16.3013Z" fill="#DFF3F3"/>
<path d="M119.468 17.9277C120.304 17.9277 120.982 17.2497 120.982 16.4133C120.982 15.577 120.304 14.899 119.468 14.899C118.632 14.899 117.954 15.577 117.954 16.4133C117.954 17.2497 118.632 17.9277 119.468 17.9277Z" fill="#DFF3F3"/>
<path d="M110.34 18.646C111.18 18.646 111.861 17.9647 111.861 17.1244C111.861 16.284 111.18 15.6027 110.34 15.6027C109.499 15.6027 108.818 16.284 108.818 17.1244C108.818 17.9647 109.499 18.646 110.34 18.646Z" fill="#DFF3F3"/>
<path d="M101.186 18.8447C102.03 18.8447 102.715 18.1602 102.715 17.3162C102.715 16.4718 102.03 15.7876 101.186 15.7876C100.342 15.7876 99.6577 16.4718 99.6577 17.3162C99.6577 18.1602 100.342 18.8447 101.186 18.8447Z" fill="#DFF3F3"/>
<path d="M92.027 18.8843C92.8751 18.8843 93.5625 18.1969 93.5625 17.3485C93.5625 16.5004 92.8751 15.813 92.027 15.813C91.179 15.813 90.4916 16.5004 90.4916 17.3485C90.4916 18.1969 91.179 18.8843 92.027 18.8843Z" fill="#DFF3F3"/>
<path d="M82.8733 16.0176C82.0213 16.0176 81.3306 16.7083 81.3306 17.5603C81.3306 18.4123 82.0213 19.103 82.8733 19.103C83.7253 19.103 84.416 18.4123 84.416 17.5603C84.416 16.7083 83.7253 16.0176 82.8733 16.0176Z" fill="#DFF3F3"/>
<path d="M73.7512 19.8833C74.6068 19.8833 75.3008 19.1893 75.3008 18.3337C75.3008 17.478 74.6068 16.7841 73.7512 16.7841C72.8952 16.7841 72.2016 17.478 72.2016 18.3337C72.2016 19.1893 72.8952 19.8833 73.7512 19.8833Z" fill="#DFF3F3"/>
<path d="M64.7755 21.6689C65.6352 21.6689 66.332 20.9721 66.332 20.1121C66.332 19.2521 65.6352 18.5555 64.7755 18.5555C63.9159 18.5555 63.219 19.2524 63.219 20.1121C63.219 20.9717 63.9159 21.6689 64.7755 21.6689Z" fill="#DFF3F3"/>
<path d="M56.2331 21.8055C55.3694 21.8055 54.6693 22.5057 54.6693 23.3693C54.6693 24.233 55.3694 24.9331 56.2331 24.9331C57.0968 24.9331 57.7969 24.233 57.7969 23.3693C57.7969 22.5057 57.0968 21.8055 56.2331 21.8055Z" fill="#DFF3F3"/>
<path d="M48.5953 29.9546C49.463 29.9546 50.166 29.2512 50.166 28.3839C50.166 27.5166 49.4626 26.8132 48.5953 26.8132C47.728 26.8132 47.0246 27.5166 47.0246 28.3839C47.0246 29.2515 47.728 29.9546 48.5953 29.9546Z" fill="#DFF3F3"/>
<path d="M42.2404 36.54C43.1117 36.54 43.8184 35.8337 43.8184 34.9621C43.8184 34.0908 43.1121 33.3845 42.2404 33.3845C41.3688 33.3845 40.6628 34.0908 40.6628 34.9621C40.6625 35.8333 41.3688 36.54 42.2404 36.54Z" fill="#DFF3F3"/>
<path d="M36.9269 43.9941C37.8021 43.9941 38.5117 43.2845 38.5117 42.4093C38.5117 41.534 37.8021 40.8244 36.9269 40.8244C36.0516 40.8244 35.342 41.534 35.342 42.4093C35.3424 43.2845 36.0516 43.9941 36.9269 43.9941Z" fill="#DFF3F3"/>
<path d="M32.4414 51.9844C33.3207 51.9844 34.0332 51.2719 34.0332 50.3926C34.0332 49.5137 33.3203 48.8008 32.4414 48.8008C31.5622 48.8008 30.8497 49.5133 30.8497 50.3926C30.8497 51.2715 31.5625 51.9844 32.4414 51.9844Z" fill="#DFF3F3"/>
<path d="M28.5475 60.2788C29.4304 60.2788 30.1465 59.563 30.1465 58.6801C30.1465 57.7972 29.4307 57.0815 28.5475 57.0815C27.6645 57.0815 26.9488 57.7972 26.9488 58.6801C26.9488 59.563 27.6645 60.2788 28.5475 60.2788Z" fill="#DFF3F3"/>
<path d="M24.9819 68.7178C25.8688 68.7178 26.5879 67.9987 26.5879 67.1122C26.5879 66.2253 25.8688 65.5063 24.9819 65.5063C24.095 65.5063 23.376 66.2253 23.376 67.1122C23.376 67.9991 24.095 68.7178 24.9819 68.7178Z" fill="#DFF3F3"/>
<path d="M21.479 77.1851C22.3699 77.1851 23.0918 76.4631 23.0918 75.5722C23.0918 74.6813 22.3699 73.9594 21.479 73.9594C20.5881 73.9594 19.8661 74.6817 19.8661 75.5722C19.8661 76.4628 20.5881 77.1851 21.479 77.1851Z" fill="#DFF3F3"/>
<path d="M16.2673 83.3346C15.925 84.1611 16.3176 85.1086 17.1443 85.451C17.971 85.7935 18.9186 85.4011 19.261 84.5746C19.6033 83.7481 19.2107 82.8005 18.384 82.4581C17.5574 82.1157 16.6097 82.5081 16.2673 83.3346Z" fill="#DFF3F3"/>
<path d="M13.6015 93.7256C14.5 93.7256 15.2285 92.9971 15.2285 92.0986C15.2285 91.2 14.5 90.4716 13.6015 90.4716C12.703 90.4716 11.9745 91.2 11.9745 92.0986C11.9745 92.9971 12.703 93.7256 13.6015 93.7256Z" fill="#DFF3F3"/>
<path d="M8.69814 101.458C9.60066 101.458 10.332 100.726 10.332 99.8232C10.332 98.9211 9.60066 98.1893 8.69814 98.1893C7.79561 98.1893 7.0642 98.9211 7.0642 99.8232C7.0642 100.726 7.79598 101.458 8.69814 101.458Z" fill="#DFF3F3"/>
<path d="M2.84907 105.221C1.94267 105.221 1.2079 105.955 1.2079 106.862C1.2079 107.768 1.94267 108.503 2.84907 108.503C3.75546 108.503 4.49023 107.768 4.49023 106.862C4.49023 105.955 3.75546 105.221 2.84907 105.221Z" fill="#DFF3F3"/>
<path d="M140.971 0.137584C139.961 0.137584 139.143 0.95598 139.143 1.96552C139.143 2.97506 139.961 3.79346 140.971 3.79346C141.98 3.79346 142.799 2.97506 142.799 1.96552C142.799 0.95598 141.98 0.137584 140.971 0.137584Z" fill="#DFF3F3"/>
<path d="M132.998 4.62245C131.989 4.62245 131.17 5.44084 131.17 6.45038C131.17 7.45992 131.989 8.27832 132.998 8.27832C134.008 8.27832 134.826 7.45992 134.826 6.45038C134.826 5.44084 134.008 4.62245 132.998 4.62245Z" fill="#DFF3F3"/>
<path d="M124.336 7.55458C123.327 7.55458 122.508 8.37297 122.508 9.38251C122.508 10.3921 123.327 11.2104 124.336 11.2104C125.346 11.2104 126.164 10.3921 126.164 9.38251C126.164 8.37297 125.346 7.55458 124.336 7.55458Z" fill="#DFF3F3"/>
<path d="M115.328 9.17225C114.319 9.17225 113.5 9.99065 113.5 11.0002C113.5 12.0097 114.319 12.8281 115.328 12.8281C116.338 12.8281 117.156 12.0097 117.156 11.0002C117.156 9.99065 116.338 9.17225 115.328 9.17225Z" fill="#DFF3F3"/>
<path d="M106.201 9.88514C105.192 9.88514 104.373 10.7035 104.373 11.7131C104.373 12.7226 105.192 13.541 106.201 13.541C107.211 13.541 108.029 12.7226 108.029 11.7131C108.029 10.7035 107.211 9.88514 106.201 9.88514Z" fill="#DFF3F3"/>
<path d="M97.0471 10.078C96.0375 10.078 95.2191 10.8964 95.2191 11.906C95.2191 12.9155 96.0375 13.7339 97.0471 13.7339C98.0566 13.7339 98.875 12.9155 98.875 11.906C98.875 10.8964 98.0566 10.078 97.0471 10.078Z" fill="#DFF3F3"/>
<path d="M87.8889 10.1093C86.8793 10.1093 86.0609 10.9277 86.0609 11.9372C86.0609 12.9467 86.8793 13.7651 87.8889 13.7651C88.8984 13.7651 89.7168 12.9467 89.7168 11.9372C89.7168 10.9277 88.8984 10.1093 87.8889 10.1093Z" fill="#DFF3F3"/>
<path d="M78.7346 10.3222C77.725 10.3222 76.9066 11.1406 76.9066 12.1501C76.9066 13.1596 77.725 13.978 78.7346 13.978C79.7441 13.978 80.5625 13.1596 80.5625 12.1501C80.5625 11.1406 79.7441 10.3222 78.7346 10.3222Z" fill="#DFF3F3"/>
<path d="M69.6135 11.0941C68.6039 11.0941 67.7855 11.9125 67.7855 12.9221C67.7855 13.9316 68.6039 14.75 69.6135 14.75C70.623 14.75 71.4414 13.9316 71.4414 12.9221C71.4414 11.9125 70.623 11.0941 69.6135 11.0941Z" fill="#DFF3F3"/>
<path d="M60.6369 12.8739C59.6274 12.8739 58.809 13.6923 58.809 14.7018C58.809 15.7114 59.6274 16.5298 60.6369 16.5298C61.6464 16.5298 62.4648 15.7114 62.4648 14.7018C62.4648 13.6923 61.6464 12.8739 60.6369 12.8739Z" fill="#DFF3F3"/>
<path d="M52.0939 16.1298C51.0844 16.1298 50.266 16.9482 50.266 17.9577C50.266 18.9672 51.0844 19.7856 52.0939 19.7856C53.1035 19.7856 53.9219 18.9672 53.9219 17.9577C53.9219 16.9482 53.1035 16.1298 52.0939 16.1298Z" fill="#DFF3F3"/>
<path d="M44.4553 21.1454C43.4457 21.1454 42.6273 21.9638 42.6273 22.9733C42.6273 23.9829 43.4457 24.8013 44.4553 24.8013C45.4648 24.8013 46.2832 23.9829 46.2832 22.9733C46.2832 21.9638 45.4648 21.1454 44.4553 21.1454Z" fill="#DFF3F3"/>
<path d="M38.1018 27.7225C37.0922 27.7225 36.2738 28.5409 36.2738 29.5505C36.2738 30.56 37.0922 31.3784 38.1018 31.3784C39.1113 31.3784 39.9297 30.56 39.9297 29.5505C39.9297 28.5409 39.1113 27.7225 38.1018 27.7225Z" fill="#DFF3F3"/>
<path d="M32.7873 35.1708C31.7778 35.1708 30.9594 35.9892 30.9594 36.9987C30.9594 38.0083 31.7778 38.8267 32.7873 38.8267C33.7968 38.8267 34.6152 38.0083 34.6152 36.9987C34.6152 35.9892 33.7968 35.1708 32.7873 35.1708Z" fill="#DFF3F3"/>
<path d="M28.301 43.1527C27.2914 43.1527 26.4731 43.9711 26.4731 44.9807C26.4731 45.9902 27.2914 46.8086 28.301 46.8086C29.3105 46.8086 30.1289 45.9902 30.1289 44.9807C30.1289 43.9711 29.3105 43.1527 28.301 43.1527Z" fill="#DFF3F3"/>
<path d="M24.4084 51.4384C23.3989 51.4384 22.5805 52.2568 22.5805 53.2663C22.5805 54.2758 23.3989 55.0942 24.4084 55.0942C25.4179 55.0942 26.2363 54.2758 26.2363 53.2663C26.2363 52.2568 25.4179 51.4384 24.4084 51.4384Z" fill="#DFF3F3"/>
<path d="M20.8439 59.8744C19.8344 59.8744 19.016 60.6928 19.016 61.7023C19.016 62.7119 19.8344 63.5303 20.8439 63.5303C21.8535 63.5303 22.6719 62.7119 22.6719 61.7023C22.6719 60.6928 21.8535 59.8744 20.8439 59.8744Z" fill="#DFF3F3"/>
<path d="M17.34 68.3334C16.3305 68.3334 15.5121 69.1518 15.5121 70.1613C15.5121 71.1709 16.3305 71.9893 17.34 71.9893C18.3496 71.9893 19.168 71.1709 19.168 70.1613C19.168 69.1518 18.3496 68.3334 17.34 68.3334Z" fill="#DFF3F3"/>
<path d="M13.635 76.7098C12.6254 76.7098 11.807 77.5282 11.807 78.5378C11.807 79.5473 12.6254 80.3657 13.635 80.3657C14.6445 80.3657 15.4629 79.5473 15.4629 78.5378C15.4629 77.5282 14.6445 76.7098 13.635 76.7098Z" fill="#DFF3F3"/>
<path d="M9.46308 84.8598C8.45354 84.8598 7.63514 85.6781 7.63514 86.6877C7.63514 87.6972 8.45354 88.5156 9.46308 88.5156C10.4726 88.5156 11.291 87.6972 11.291 86.6877C11.291 85.6781 10.4726 84.8598 9.46308 84.8598Z" fill="#DFF3F3"/>
<path d="M4.55878 92.5858C3.54924 92.5858 2.73085 93.4042 2.73085 94.4138C2.73085 95.4233 3.54924 96.2417 4.55878 96.2417C5.56832 96.2417 6.38672 95.4233 6.38672 94.4138C6.38672 93.4042 5.56832 92.5858 4.55878 92.5858Z" fill="#DFF3F3"/>
<path d="M0.537109 101.451C0.537109 101.402 0.535243 101.355 0.531579 101.307C0.494779 100.832 0.00266397 100.974 0.00266397 101.45C0.00266397 101.926 0.495108 102.068 0.531658 101.593C0.53527 101.546 0.537109 101.498 0.537109 101.451Z" fill="#DFF3F3"/>
<path d="M128.861 3.22314C130.067 3.22314 131.045 2.2454 131.045 1.03877C131.045 0.372693 130.368 0.00145888 129.702 0.00145888H128.019C127.353 0.00145888 126.676 0.372883 126.676 1.03877C126.676 2.24504 127.654 3.22314 128.861 3.22314Z" fill="#DFF3F3"/>
<path d="M120.198 6.14697C121.399 6.14697 122.373 5.17287 122.373 3.97169C122.373 2.77051 121.399 1.79641 120.198 1.79641C118.996 1.79641 118.022 2.77014 118.022 3.97169C118.022 5.17324 118.996 6.14697 120.198 6.14697Z" fill="#DFF3F3"/>
<path d="M109.019 5.48146C108.953 6.67603 109.868 7.69806 111.062 7.76422C112.257 7.83037 113.279 6.91561 113.345 5.72105C113.411 4.52648 112.496 3.50447 111.302 3.43831C110.107 3.37216 109.085 4.2869 109.019 5.48146Z" fill="#DFF3F3"/>
<path d="M102.064 4.14621C100.872 4.14621 99.9065 5.11199 99.9065 6.30333C99.9065 7.49467 100.872 8.46045 102.064 8.46045C103.255 8.46045 104.221 7.49467 104.221 6.30333C104.221 5.11199 103.255 4.14621 102.064 4.14621Z" fill="#DFF3F3"/>
<path d="M92.9102 4.34775C91.7237 4.34775 90.7618 5.30962 90.7618 6.49615C90.7618 7.68268 91.7237 8.64453 92.9102 8.64453C94.0967 8.64453 95.0586 7.68268 95.0586 6.49615C95.0586 5.30962 94.0967 4.34775 92.9102 4.34775Z" fill="#DFF3F3"/>
<path d="M83.7494 8.66455C84.9309 8.66455 85.8887 7.7068 85.8887 6.52524C85.8887 5.34404 84.9309 4.38593 83.7494 4.38593C82.5678 4.38593 81.61 5.34368 81.61 6.52524C81.61 7.7068 82.5678 8.66455 83.7494 8.66455Z" fill="#DFF3F3"/>
<path d="M74.5963 8.86914C75.7728 8.86914 76.7266 7.91537 76.7266 6.7389C76.7266 5.56242 75.7728 4.60868 74.5963 4.60868C73.4199 4.60868 72.4661 5.56242 72.4661 6.7389C72.4661 7.91537 73.4199 8.86914 74.5963 8.86914Z" fill="#DFF3F3"/>
<path d="M63.384 7.30031C63.2686 8.46605 64.1201 9.50461 65.2858 9.62C66.4516 9.73539 67.4901 8.88391 67.6055 7.71818C67.7209 6.55244 66.8694 5.51388 65.7037 5.39849C64.538 5.2831 63.4994 6.13458 63.384 7.30031Z" fill="#DFF3F3"/>
<path d="M56.4973 7.17967C55.3309 7.17967 54.3853 8.12527 54.3853 9.29173C54.3853 10.4582 55.3309 11.4038 56.4973 11.4038C57.6638 11.4038 58.6094 10.4582 58.6094 9.29173C58.6094 8.12527 57.6638 7.17967 56.4973 7.17967Z" fill="#DFF3F3"/>
<path d="M47.9533 10.4447C46.7917 10.4447 45.85 11.3864 45.85 12.548C45.85 13.7097 46.7917 14.6514 47.9533 14.6514C49.115 14.6514 50.0566 13.7097 50.0566 12.548C50.0566 11.3864 49.115 10.4447 47.9533 10.4447Z" fill="#DFF3F3"/>
<path d="M40.3179 19.6582C41.4744 19.6582 42.4121 18.7204 42.4121 17.5639C42.4121 16.4074 41.4744 15.4697 40.3179 15.4697C39.1614 15.4697 38.2236 16.4074 38.2236 17.5639C38.2236 18.7208 39.1614 19.6582 40.3179 19.6582Z" fill="#DFF3F3"/>
<path d="M31.8749 24.036C31.8112 25.1859 32.6917 26.1697 33.8416 26.2334C34.9915 26.297 35.9753 25.4165 36.039 24.2666C36.1027 23.1167 35.2221 22.1329 34.0722 22.0693C32.9224 22.0056 31.9386 22.8861 31.8749 24.036Z" fill="#DFF3F3"/>
<path d="M28.6466 29.5143C27.5 29.5143 26.5705 30.4438 26.5705 31.5904C26.5705 32.737 27.5 33.6665 28.6466 33.6665C29.7932 33.6665 30.7227 32.737 30.7227 31.5904C30.7227 30.4438 29.7932 29.5143 28.6466 29.5143Z" fill="#DFF3F3"/>
<path d="M24.1635 37.5032C23.0219 37.5032 22.0965 38.4286 22.0965 39.5702C22.0965 40.7118 23.0219 41.6372 24.1635 41.6372C25.3051 41.6372 26.2305 40.7118 26.2305 39.5702C26.2305 38.4286 25.3051 37.5032 24.1635 37.5032Z" fill="#DFF3F3"/>
<path d="M20.2699 45.8009C19.1331 45.8009 18.2116 46.7224 18.2116 47.8592C18.2116 48.996 19.1331 49.9175 20.2699 49.9175C21.4066 49.9175 22.3281 48.996 22.3281 47.8592C22.3281 46.7224 21.4066 45.8009 20.2699 45.8009Z" fill="#DFF3F3"/>
<path d="M16.7047 58.3394C17.8365 58.3394 18.7539 57.4219 18.7539 56.2902C18.7539 55.1584 17.8365 54.2409 16.7047 54.2409C15.5729 54.2409 14.6555 55.1584 14.6555 56.2902C14.6555 57.4223 15.5729 58.3394 16.7047 58.3394Z" fill="#DFF3F3"/>
<path d="M13.2001 66.7925C14.3268 66.7925 15.2402 65.8791 15.2402 64.7524C15.2402 63.6253 14.3268 62.7122 13.2001 62.7122C12.0734 62.7122 11.16 63.6257 11.16 64.7524C11.16 65.8791 12.0734 66.7925 13.2001 66.7925Z" fill="#DFF3F3"/>
<path d="M9.16279 71.1272C8.05555 71.3069 7.30359 72.3502 7.48329 73.4574C7.66299 74.5647 8.70629 75.3166 9.81353 75.1369C10.9208 74.9572 11.6727 73.9139 11.493 72.8067C11.3133 71.6994 10.27 70.9475 9.16279 71.1272Z" fill="#DFF3F3"/>
<path d="M5.32337 83.2988C6.44026 83.2988 7.3457 82.3934 7.3457 81.2765C7.3457 80.1596 6.44026 79.2546 5.32337 79.2546C4.20648 79.2546 3.30108 80.16 3.30108 81.2765C3.30108 82.393 4.20648 83.2988 5.32337 83.2988Z" fill="#DFF3F3"/>
<path d="M0.420353 91.0166C1.53216 91.0166 2.43359 90.1152 2.43359 89.0034C2.43359 87.8916 1.53216 86.9901 0.420353 86.9901C0.176282 86.9901 0.00468349 87.2084 0.00468349 87.4524V90.5543C0.00468349 90.7984 0.176282 91.0166 0.420353 91.0166Z" fill="#DFF3F3"/>
<path d="M116.056 1.11572C116.181 1.11572 116.304 1.10668 116.425 1.08921C117.306 0.961336 116.947 0.00755787 116.056 0.00755787C115.165 0.00755787 114.806 0.961344 115.687 1.08921C115.808 1.10668 115.931 1.11572 116.056 1.11572Z" fill="#DFF3F3"/>
<path d="M107.049 2.7168C108.446 2.7168 109.578 1.58428 109.578 0.187628C109.578 0.086503 109.491 0.0085113 109.39 0.0085113H104.708C104.607 0.0085113 104.519 0.0866706 104.519 0.187628C104.52 1.58428 105.652 2.7168 107.049 2.7168Z" fill="#DFF3F3"/>
<path d="M97.9205 3.40625C99.3063 3.40625 100.43 2.28282 100.43 0.897062C100.43 0.349366 99.9024 0.00762057 99.3547 0.00762057H96.486C95.9384 0.00762057 95.411 0.349498 95.411 0.897062C95.411 2.28282 96.5344 3.40625 97.9205 3.40625Z" fill="#DFF3F3"/>
<path d="M88.7667 3.57959C90.1415 3.57959 91.2559 2.46524 91.2559 1.09038C91.2559 0.404912 90.5702 0.00765395 89.8847 0.00765395H87.6486C86.9631 0.00765395 86.2775 0.404916 86.2775 1.09038C86.2775 2.46524 87.3918 3.57959 88.7667 3.57959Z" fill="#DFF3F3"/>
<path d="M79.6089 3.59082C80.9729 3.59082 82.0781 2.48519 82.0781 1.12159C82.0781 0.412575 81.3638 0.00797367 80.6548 0.00797367H78.563C77.854 0.00797367 77.1397 0.412579 77.1397 1.12159C77.1397 2.48519 78.2453 3.59082 79.6089 3.59082Z" fill="#DFF3F3"/>
<path d="M70.4531 3.78369C71.8058 3.78369 72.9023 2.68678 72.9023 1.33445C72.9023 0.460083 71.9822 0.00791216 71.1078 0.00791216H69.7984C68.9241 0.00791216 68.0039 0.46008 68.0039 1.33445C68.0039 2.68678 69.1004 3.78369 70.4531 3.78369Z" fill="#DFF3F3"/>
<path d="M58.9032 2.10687C58.9032 3.44866 59.9907 4.53613 61.3325 4.53613C62.6742 4.53613 63.7617 3.44866 63.7617 2.10687C63.7617 1.64692 63.6335 1.21741 63.4112 0.851316C62.997 0.169387 62.1301 0.00716257 61.3322 0.00716257C60.5347 0.00716257 59.6681 0.169194 59.254 0.850764C59.0314 1.21698 58.9032 1.64668 58.9032 2.10687Z" fill="#DFF3F3"/>
<path d="M52.3564 6.2959C53.6869 6.2959 54.7656 5.21714 54.7656 3.88661C54.7656 2.55572 53.6869 1.47735 52.3564 1.47735C51.0258 1.47735 49.9471 2.55608 49.9471 3.88661C49.9471 5.21714 51.0258 6.2959 52.3564 6.2959Z" fill="#DFF3F3"/>
<path d="M43.8119 4.75315C42.4923 4.75315 41.4226 5.82287 41.4226 7.14243C41.4226 8.462 42.4923 9.53174 43.8119 9.53174C45.1314 9.53174 46.2012 8.462 46.2012 7.14243C46.2012 5.82287 45.1314 4.75315 43.8119 4.75315Z" fill="#DFF3F3"/>
<path d="M36.1756 9.78923C34.8671 9.78923 33.8063 10.85 33.8063 12.1585C33.8063 13.4671 34.8671 14.5278 36.1756 14.5278C37.4842 14.5278 38.5449 13.4671 38.5449 12.1585C38.5449 10.85 37.4842 9.78923 36.1756 9.78923Z" fill="#DFF3F3"/>
<path d="M29.8225 21.082C31.12 21.082 32.1719 20.0302 32.1719 18.7327C32.1719 17.4352 31.12 16.3834 29.8225 16.3834C28.5251 16.3834 27.4732 17.4352 27.4732 18.7327C27.4732 20.0302 28.5251 21.082 29.8225 21.082Z" fill="#DFF3F3"/>
<path d="M24.5066 23.8545C23.2201 23.8545 22.1773 24.8974 22.1773 26.1838C22.1773 27.4703 23.2201 28.5132 24.5066 28.5132C25.7931 28.5132 26.8359 27.4703 26.8359 26.1838C26.8359 24.8974 25.7931 23.8545 24.5066 23.8545Z" fill="#DFF3F3"/>
<path d="M17.8783 33.2874C17.3902 34.4658 17.9497 35.8167 19.1281 36.3048C20.3065 36.7929 21.6574 36.2333 22.1455 35.055C22.6336 33.8766 22.074 32.5257 20.8957 32.0376C19.7173 31.5495 18.3664 32.109 17.8783 33.2874Z" fill="#DFF3F3"/>
<path d="M13.8386 42.3374C13.7687 43.5999 14.7355 44.68 15.998 44.7499C17.2605 44.8198 18.3406 43.8531 18.4105 42.5906C18.4804 41.3281 17.5137 40.248 16.2512 40.1781C14.9887 40.1082 13.9086 41.0749 13.8386 42.3374Z" fill="#DFF3F3"/>
<path d="M12.5627 53.1548C13.8162 53.1548 14.832 52.1389 14.832 50.8854C14.832 49.6323 13.8162 48.616 12.5627 48.616C11.3095 48.616 10.2933 49.6319 10.2933 50.8854C10.2933 52.1385 11.3092 53.1548 12.5627 53.1548Z" fill="#DFF3F3"/>
<path d="M9.05922 61.5967C10.3015 61.5967 11.3086 60.5899 11.3086 59.3473C11.3086 58.105 10.3015 57.0982 9.05922 57.0982C7.81698 57.0982 6.8098 58.105 6.8098 59.3473C6.8098 60.5895 7.81698 61.5967 9.05922 61.5967Z" fill="#DFF3F3"/>
<path d="M5.35652 65.4918C4.12525 65.4918 3.12711 66.49 3.12711 67.7213C3.12711 68.9525 4.12525 69.9507 5.35652 69.9507C6.5878 69.9507 7.58594 68.9525 7.58594 67.7213C7.58594 66.49 6.5878 65.4918 5.35652 65.4918Z" fill="#DFF3F3"/>
<path d="M1.18117 78.0801C2.40125 78.0801 3.39062 77.0907 3.39062 75.8706C3.39062 74.6506 2.40161 73.6612 1.18117 73.6612C0.405036 73.6612 0.000334024 74.4757 0.000334024 75.2518V76.489C0.000334024 77.2653 0.404856 78.0801 1.18117 78.0801Z" fill="#DFF3F3"/>
<path d="M48.2187 1.19189C48.3533 1.19189 48.4856 1.18211 48.615 1.16321C49.5581 1.02542 49.1719 0.00451648 48.2187 0.00451648C47.2656 0.00451648 46.8793 1.02542 47.8225 1.16321C47.9518 1.18211 48.0841 1.19189 48.2187 1.19189Z" fill="#DFF3F3"/>
<path d="M39.6752 4.41357C41.1587 4.41357 42.3613 3.21094 42.3613 1.72744C42.3613 0.541293 41.0496 0.00415564 39.8635 0.00415564H39.487C38.3008 0.00415564 36.9887 0.541228 36.9887 1.72744C36.9891 3.21094 38.1917 4.41357 39.6752 4.41357Z" fill="#DFF3F3"/>
<path d="M29.5757 5.73404C29.0148 7.08796 29.6578 8.64022 31.0117 9.20105C32.3656 9.76187 33.9178 9.1189 34.4787 7.76497C35.0395 6.41104 34.3966 4.85884 33.0426 4.29801C31.6887 3.73718 30.1365 4.38011 29.5757 5.73404Z" fill="#DFF3F3"/>
<path d="M25.6844 15.9409C27.1315 15.9409 28.3047 14.7677 28.3047 13.3206C28.3047 11.8734 27.1315 10.7002 25.6844 10.7002C24.2372 10.7002 23.064 11.8734 23.064 13.3206C23.064 14.7677 24.2372 15.9409 25.6844 15.9409Z" fill="#DFF3F3"/>
<path d="M20.3697 23.3579C21.7987 23.3579 22.957 22.1996 22.957 20.7706C22.957 19.3416 21.7987 18.1829 20.3697 18.1829C18.9407 18.1829 17.7824 19.3413 17.7824 20.7706C17.7824 22.2 18.9407 23.3579 20.3697 23.3579Z" fill="#DFF3F3"/>
<path d="M15.7614 26.1869C14.352 26.2508 13.2612 27.4452 13.3251 28.8547C13.389 30.2641 14.5834 31.3549 15.9929 31.291C17.4023 31.2271 18.4931 30.0327 18.4292 28.6232C18.3653 27.2138 17.1709 26.123 15.7614 26.1869Z" fill="#DFF3F3"/>
<path d="M9.6511 36.0798C9.11815 37.3664 9.72912 38.8415 11.0158 39.3745C12.3024 39.9074 13.7775 39.2964 14.3104 38.0098C14.8434 36.7232 14.2324 35.2481 12.9457 34.7152C11.6591 34.1822 10.1841 34.7932 9.6511 36.0798Z" fill="#DFF3F3"/>
<path d="M8.0178 43.0201C6.66118 43.2402 5.73991 44.5185 5.96008 45.8751C6.18025 47.2317 7.45849 48.153 8.81511 47.9328C10.1717 47.7127 11.093 46.4344 10.8728 45.0778C10.6527 43.7212 9.37442 42.7999 8.0178 43.0201Z" fill="#DFF3F3"/>
<path d="M4.92117 56.3877C6.27749 56.3877 7.37695 55.2882 7.37695 53.9319C7.37695 52.576 6.27749 51.4765 4.92117 51.4765C3.56484 51.4765 2.46578 52.576 2.46578 53.9319C2.46541 55.2882 3.56484 56.3877 4.92117 56.3877Z" fill="#DFF3F3"/>
<path d="M1.21792 64.73C2.55572 64.73 3.64062 63.6454 3.64062 62.3076C3.64062 60.9695 2.55608 59.8849 1.21792 59.8849C0.430102 59.8849 0.00364637 60.6982 0.00364637 61.486V63.1289C0.00364637 63.9167 0.430102 64.73 1.21792 64.73Z" fill="#DFF3F3"/>
<path d="M27.9014 4.28076C29.5288 4.28076 30.8477 2.96186 30.8477 1.33448C30.8477 0.487605 29.9944 0.00468826 29.1475 0.00468826H26.6549C25.8081 0.00468826 24.9547 0.487726 24.9547 1.33448C24.9551 2.96186 26.2744 4.28076 27.9014 4.28076Z" fill="#DFF3F3"/>
<path d="M21.547 10.8096C23.1478 10.8096 24.4453 9.51174 24.4453 7.91126C24.4453 6.31041 23.1475 5.01257 21.547 5.01257C19.9465 5.01257 18.6487 6.31041 18.6487 7.91126C18.6487 9.51174 19.9461 10.8096 21.547 10.8096Z" fill="#DFF3F3"/>
<path d="M13.5876 14.276C12.9851 15.7304 13.6758 17.3978 15.1302 18.0003C16.5846 18.6027 18.252 17.9121 18.8545 16.4577C19.4569 15.0033 18.7663 13.3358 17.3119 12.7334C15.8574 12.1309 14.19 12.8216 13.5876 14.276Z" fill="#DFF3F3"/>
<path d="M9.1477 22.2757C8.55539 23.7057 9.23442 25.345 10.6644 25.9373C12.0943 26.5297 13.7336 25.8506 14.326 24.4207C14.9183 22.9907 14.2393 21.3514 12.8093 20.7591C11.3794 20.1668 9.74001 20.8458 9.1477 22.2757Z" fill="#DFF3F3"/>
<path d="M7.85456 28.8742C6.33313 28.8742 5.0998 30.1076 5.0998 31.629C5.0998 33.1504 6.33313 34.3838 7.85456 34.3838C9.376 34.3838 10.6094 33.1504 10.6094 31.629C10.6094 30.1076 9.376 28.8742 7.85456 28.8742Z" fill="#DFF3F3"/>
<path d="M4.28927 37.3549C2.79433 37.3549 1.58245 38.5668 1.58245 40.0617C1.58245 41.5567 2.79433 42.7686 4.28927 42.7686C5.78422 42.7686 6.99609 41.5567 6.99609 40.0617C6.99609 38.5668 5.78422 37.3549 4.28927 37.3549Z" fill="#DFF3F3"/>
<path d="M0.784482 51.1821C2.25308 51.1821 3.44336 49.9918 3.44336 48.5233C3.44336 47.0547 2.25308 45.8644 0.784482 45.8644C0.314631 45.8644 0.00547814 46.3018 0.00547814 46.7716V50.2749C0.00547814 50.7446 0.314776 51.1821 0.784482 51.1821Z" fill="#DFF3F3"/>
<path d="M14.2216 2.49603C14.2216 4.25421 15.6469 5.6792 17.4047 5.6792C19.1629 5.6792 20.5879 4.25421 20.5879 2.49603C20.5879 2.18975 20.5445 1.89373 20.4635 1.61365C20.1085 0.385383 18.683 0.00174761 17.4044 0.00174761C16.126 0.00174761 14.7007 0.385457 14.3459 1.61364C14.265 1.89374 14.2216 2.18978 14.2216 2.49603Z" fill="#DFF3F3"/>
<path d="M12.0885 13.0654C13.8107 13.0654 15.207 11.6691 15.207 9.94693C15.207 8.22473 13.8107 6.82843 12.0885 6.82843C10.3663 6.82843 8.97003 8.22473 8.97003 9.94693C8.97003 11.6691 10.3663 13.0654 12.0885 13.0654Z" fill="#DFF3F3"/>
<path d="M7.60472 20.9819C9.29132 20.9819 10.6582 19.6147 10.6582 17.9285C10.6582 16.2422 9.29096 14.8747 7.60472 14.8747C5.91849 14.8747 4.55129 16.2419 4.55129 17.9285C4.55129 19.6151 5.91849 20.9819 7.60472 20.9819Z" fill="#DFF3F3"/>
<path d="M3.7124 29.2051C5.36303 29.2051 6.70117 27.8669 6.70117 26.2163C6.70117 24.5657 5.36303 23.2275 3.7124 23.2275C2.06178 23.2275 0.723633 24.5657 0.723633 26.2163C0.723633 27.8669 2.06178 29.2051 3.7124 29.2051Z" fill="#DFF3F3"/>
<path d="M0.146564 37.5732C1.76158 37.5732 3.07031 36.2642 3.07031 34.6495C3.07031 33.0345 1.76122 31.7257 0.146564 31.7257C0.0665615 31.7257 0.00379324 31.796 0.00379324 31.876V37.4234C0.00379324 37.5034 0.0665729 37.5732 0.146564 37.5732Z" fill="#DFF3F3"/>
<path d="M13.3732 0.561306C13.9282 0.544086 13.82 0.00417125 13.2647 0.00417125C12.7094 0.00417125 12.6011 0.544094 13.1561 0.561307C13.1922 0.562425 13.2283 0.562988 13.2647 0.562988C13.301 0.562988 13.3372 0.562425 13.3732 0.561306Z" fill="#DFF3F3"/>
<path d="M7.9504 1.14647C6.0774 1.14647 4.55904 2.66485 4.55904 4.53784C4.55904 6.41084 6.0774 7.9292 7.9504 7.9292C9.82339 7.9292 11.3418 6.41084 11.3418 4.53784C11.3418 2.66485 9.82339 1.14647 7.9504 1.14647Z" fill="#DFF3F3"/>
<path d="M3.46369 9.21304C1.63684 9.21304 0.155893 10.694 0.155893 12.5208C0.155893 14.3477 1.63684 15.8286 3.46369 15.8286C5.29053 15.8286 6.77148 14.3477 6.77148 12.5208C6.77148 10.694 5.29053 9.21304 3.46369 9.21304Z" fill="#DFF3F3"/>
<path d="M2.79492 20.8065C2.79492 20.3082 2.6818 19.8366 2.47985 19.4158C1.74862 17.8922 0.0016129 19.1167 0.0016129 20.8067C0.0016129 22.4965 1.7482 23.721 2.4796 22.1977C2.68171 21.7768 2.79492 21.305 2.79492 20.8065Z" fill="#DFF3F3"/>
<path d="M2.89258 7.10545C2.89258 6.61549 2.79369 6.14876 2.61479 5.72405C1.91022 4.05134 0.00479865 5.29078 0.00479865 7.10583C0.00479865 8.92062 1.90968 10.16 2.61449 8.48764C2.79358 8.0627 2.89258 7.59569 2.89258 7.10545Z" fill="#DFF3F3"/>
</svg>
