<svg width="38" height="38" viewBox="0 0 38 38" fill="none" xmlns="http://www.w3.org/2000/svg">
<path fill-rule="evenodd" clip-rule="evenodd" d="M4.66335 7.3017L14.9293 17.5721C17.1683 19.8068 20.8283 19.8087 23.0692 17.5721L33.3352 7.3017C33.3594 7.27756 33.3781 7.24839 33.3898 7.21623C33.4016 7.18408 33.4061 7.14974 33.4031 7.11564C33.4001 7.08155 33.3896 7.04853 33.3724 7.01894C33.3552 6.98935 33.3317 6.9639 33.3035 6.94441C32.2565 6.21417 30.9825 5.78125 29.6102 5.78125H8.38838C7.01601 5.78125 5.74204 6.21424 4.69496 6.94441C4.66683 6.9639 4.64333 6.98935 4.62612 7.01894C4.60892 7.04853 4.59844 7.08155 4.59542 7.11564C4.5924 7.14974 4.59693 7.18408 4.60866 7.21623C4.6204 7.24839 4.63907 7.27756 4.66335 7.3017ZM1.91992 12.2496C1.91909 11.2061 2.17269 10.1781 2.65877 9.25469C2.67574 9.22213 2.70015 9.19404 2.73002 9.1727C2.75989 9.15135 2.79437 9.13736 2.83067 9.13184C2.86696 9.12633 2.90405 9.12947 2.9389 9.14098C2.97376 9.1525 3.00541 9.17208 3.03128 9.19813L13.1673 19.3341C16.377 22.5485 21.6197 22.5504 24.8313 19.3341L34.9673 9.19813C34.9932 9.17208 35.0248 9.1525 35.0597 9.14098C35.0945 9.12947 35.1316 9.12633 35.1679 9.13184C35.2042 9.13736 35.2387 9.15135 35.2686 9.1727C35.2984 9.19404 35.3228 9.22213 35.3398 9.25469C35.8258 10.1781 36.0794 11.2061 36.0787 12.2496V25.7528C36.0787 29.3222 33.1751 32.2212 29.6102 32.2212H8.38838C4.82351 32.2212 1.91992 29.3222 1.91992 25.7528V12.2496Z" fill="#079894"/>
</svg>
