<svg width="38" height="38" viewBox="0 0 38 38" fill="none" xmlns="http://www.w3.org/2000/svg">
<g clip-path="url(#clip0_2_90893)">
<path d="M19 0C12.3229 0 6.75391 5.37863 6.75391 12.2461C6.75391 14.8587 7.53899 17.1885 9.04571 19.3715L18.0628 33.4419C18.5003 34.1259 19.5006 34.1246 19.9372 33.4419L28.9934 19.3237C30.4677 17.2395 31.2461 14.7923 31.2461 12.2461C31.2461 5.4936 25.7525 0 19 0ZM19 17.8125C15.9308 17.8125 13.4336 15.3153 13.4336 12.2461C13.4336 9.17693 15.9308 6.67969 19 6.67969C22.0692 6.67969 24.5664 9.17693 24.5664 12.2461C24.5664 15.3153 22.0692 17.8125 19 17.8125Z" fill="#079894"/>
<path d="M27.7032 25.5859L22.0974 34.3502C20.6463 36.6125 17.3456 36.6051 15.9015 34.3524L10.2866 25.5882C5.34627 26.7305 2.30078 28.8229 2.30078 31.3234C2.30078 35.6624 10.9048 38.0031 19 38.0031C27.0952 38.0031 35.6992 35.6624 35.6992 31.3234C35.6992 28.8211 32.6495 26.7276 27.7032 25.5859Z" fill="#079894"/>
</g>
<defs>
<clipPath id="clip0_2_90893">
<rect width="38" height="38" fill="white"/>
</clipPath>
</defs>
</svg>
