<svg width="38" height="38" viewBox="0 0 38 38" fill="none" xmlns="http://www.w3.org/2000/svg">
<path d="M20.5814 12.6667C21.8412 12.6667 23.0493 13.1671 23.9401 14.0579C24.8309 14.9487 25.3314 16.1569 25.3314 17.4167C25.3314 17.8366 25.4982 18.2393 25.7951 18.5363C26.0921 18.8332 26.4948 19 26.9147 19C27.3346 19 27.7374 18.8332 28.0343 18.5363C28.3312 18.2393 28.498 17.8366 28.498 17.4167C28.498 15.317 27.664 13.3034 26.1793 11.8187C24.6946 10.3341 22.681 9.5 20.5814 9.5C20.1615 9.5 19.7587 9.66682 19.4618 9.96375C19.1649 10.2607 18.998 10.6634 18.998 11.0833C18.998 11.5033 19.1649 11.906 19.4618 12.2029C19.7587 12.4999 20.1615 12.6667 20.5814 12.6667Z" fill="#079894"/>
<path d="M20.5807 6.33073C23.5202 6.33073 26.3393 7.49843 28.4178 9.57696C30.4964 11.6555 31.6641 14.4746 31.6641 17.4141C31.6641 17.834 31.8309 18.2367 32.1278 18.5336C32.4247 18.8306 32.8275 18.9974 33.2474 18.9974C33.6673 18.9974 34.0701 18.8306 34.367 18.5336C34.6639 18.2367 34.8307 17.834 34.8307 17.4141C34.8307 13.6347 33.3294 10.0102 30.657 7.33779C27.9846 4.6654 24.3601 3.16406 20.5807 3.16406C20.1608 3.16406 19.7581 3.33088 19.4611 3.62781C19.1642 3.92474 18.9974 4.32747 18.9974 4.7474C18.9974 5.16732 19.1642 5.57005 19.4611 5.86698C19.7581 6.16391 20.1608 6.33073 20.5807 6.33073ZM34.4349 25.1882C34.3478 24.934 34.1975 24.7062 33.998 24.5262C33.7986 24.3461 33.5566 24.2198 33.2949 24.1591L23.7949 21.9899C23.537 21.9314 23.2686 21.9385 23.0142 22.0104C22.7597 22.0823 22.5273 22.2168 22.3382 22.4016C22.1166 22.6074 22.1007 22.6232 21.0716 24.5866C17.6566 23.013 14.9203 20.2654 13.3607 16.8441C15.3716 15.8307 15.3874 15.8307 15.5932 15.5932C15.778 15.4041 15.9125 15.1717 15.9844 14.9173C16.0563 14.6628 16.0634 14.3944 16.0049 14.1366L13.8357 4.7474C13.775 4.48566 13.6487 4.24369 13.4686 4.04426C13.2886 3.84482 13.0607 3.69448 12.8066 3.6074C12.4368 3.47533 12.055 3.37987 11.6666 3.3224C11.2664 3.2296 10.858 3.17657 10.4474 3.16406C8.51574 3.16406 6.66319 3.93141 5.2973 5.2973C3.93141 6.66319 3.16406 8.51574 3.16406 10.4474C3.17244 16.9117 5.74408 23.1088 10.315 27.6798C14.886 32.2507 21.0831 34.8223 27.5474 34.8307C28.5039 34.8307 29.451 34.6423 30.3346 34.2763C31.2183 33.9103 32.0212 33.3738 32.6975 32.6975C33.3738 32.0212 33.9103 31.2183 34.2763 30.3346C34.6423 29.451 34.8307 28.5039 34.8307 27.5474C34.8312 27.1444 34.7995 26.742 34.7357 26.3441C34.6692 25.9508 34.5685 25.564 34.4349 25.1882Z" fill="#079894"/>
</svg>
