<svg width="160" height="25" viewBox="0 0 160 25" fill="none" xmlns="http://www.w3.org/2000/svg">
<path d="M24.9747 7.35007C24.916 6.02168 24.7012 5.10852 24.3935 4.31715C24.076 3.47719 23.5877 2.72519 22.9478 2.10002C22.3227 1.46513 21.5656 0.971769 20.7354 0.659309C19.9396 0.351631 19.0311 0.136745 17.7028 0.078238C16.3645 0.0146513 15.9396 0 12.5454 0C9.1512 0 8.72635 0.0146512 7.39303 0.0732565C6.06471 0.131862 5.15149 0.346845 4.36036 0.654327C3.52016 0.971769 2.76816 1.46014 2.14299 2.10002C1.5081 2.72514 1.01499 3.48212 0.702277 4.31237C0.3946 5.10852 0.179763 6.0168 0.121206 7.34509C0.0576688 8.68338 0.0429688 9.10822 0.0429688 12.5024C0.0429688 15.8966 0.0576688 16.3215 0.116226 17.6548C0.17483 18.9832 0.389814 19.8963 0.69754 20.6877C1.01499 21.5277 1.5081 22.2797 2.14299 22.9049C2.76816 23.5397 3.52514 24.0331 4.35538 24.3456C5.15144 24.6533 6.05972 24.8682 7.3883 24.9266C8.72137 24.9855 9.14646 24.9999 12.5406 24.9999C15.9349 24.9999 16.3598 24.9855 17.693 24.9266C19.0214 24.8681 19.9346 24.6533 20.7257 24.3456C21.5566 24.0243 22.3112 23.533 22.9412 22.9031C23.5711 22.2732 24.0625 21.5187 24.3838 20.6877C24.6913 19.8916 24.9063 18.9832 24.9649 17.6548C25.0235 16.3215 25.0381 15.8966 25.0381 12.5024C25.0381 9.10822 25.0331 8.68334 24.9747 7.35007ZM22.7233 17.5571C22.6695 18.7781 22.4645 19.4374 22.2935 19.8769C21.8734 20.966 21.009 21.8305 19.9199 22.2506C19.4804 22.4214 18.8163 22.6265 17.6001 22.6801C16.2815 22.7389 15.886 22.7534 12.5504 22.7534C9.21474 22.7534 8.81431 22.7389 7.50043 22.6801C6.27949 22.6265 5.62018 22.4214 5.18064 22.2506C4.63869 22.0502 4.14538 21.7328 3.74491 21.3176C3.32979 20.9123 3.01235 20.4239 2.81202 19.8819C2.64108 19.4424 2.43601 18.7781 2.38244 17.5621C2.32364 16.2435 2.30918 15.8478 2.30918 12.5121C2.30918 9.1765 2.32364 8.77608 2.38244 7.46244C2.43601 6.2415 2.64108 5.58219 2.81202 5.14265C3.01235 4.60046 3.32979 4.10725 3.74989 3.70668C4.15505 3.29156 4.64343 2.97412 5.18562 2.77403C5.62516 2.6031 6.28946 2.39798 7.50541 2.34421C8.82403 2.28561 9.21972 2.27095 12.5552 2.27095C15.8957 2.27095 16.2912 2.28561 17.6051 2.34421C18.826 2.39803 19.4853 2.60305 19.9249 2.77398C20.4668 2.97412 20.9602 3.29156 21.3606 3.70668C21.7757 4.11209 22.0931 4.60046 22.2935 5.14265C22.4645 5.58219 22.6695 6.24624 22.7232 7.46244C22.7819 8.78106 22.7965 9.1765 22.7965 12.5121C22.7965 15.8478 22.7819 16.2386 22.7233 17.5571Z" fill="white"/>
<path d="M12.5432 6.0813C8.99774 6.0813 6.12109 8.95774 6.12109 12.5034C6.12109 16.0492 8.99774 18.9256 12.5432 18.9256C16.0888 18.9256 18.9654 16.0492 18.9654 12.5034C18.9654 8.95774 16.0888 6.0813 12.5432 6.0813ZM12.5432 16.6693C10.2431 16.6693 8.3773 14.8038 8.3773 12.5034C8.3773 10.2031 10.2431 8.3376 12.5432 8.3376C14.8435 8.3376 16.7091 10.2031 16.7091 12.5034C16.7091 14.8038 14.8435 16.6693 12.5432 16.6693ZM20.7187 5.82735C20.7187 6.65534 20.0474 7.32666 19.2193 7.32666C18.3913 7.32666 17.72 6.65534 17.72 5.82735C17.72 4.99925 18.3913 4.32812 19.2193 4.32812C20.0474 4.32812 20.7187 4.9992 20.7187 5.82735Z" fill="white"/>
<path d="M59.4348 25V13.5971H63.2607L63.8347 9.15195H59.4348V6.31434C59.4348 5.02775 59.7906 4.15095 61.6376 4.15095L63.9895 4.14999V0.174037C63.5828 0.121182 62.1866 0 60.5616 0C57.1685 0 54.8454 2.07121 54.8454 5.87409V9.15195H51.0078V13.5971H54.8454V25H59.4348Z" fill="white"/>
<path d="M113.89 23.8904V15.6498C113.89 11.5999 113.018 8.50616 108.294 8.50616C106.015 8.50616 104.497 9.74364 103.878 10.9249H103.822V8.87179H99.3499V23.8904H104.019V16.4373C104.019 14.4685 104.384 12.5842 106.803 12.5842C109.194 12.5842 109.222 14.806 109.222 16.5498V23.8622H113.89V23.8904ZM91.7562 8.87179H96.4249V23.8904H91.7562V8.87179ZM94.0906 1.39062C92.6 1.39062 91.3906 2.59998 91.3906 4.0906C91.3906 5.5812 92.6 6.81868 94.0906 6.81868C95.5812 6.81868 96.7906 5.5812 96.7906 4.0906C96.7906 2.59998 95.5812 1.39062 94.0906 1.39062Z" fill="white"/>
<path d="M149.828 10.5858L158.935 0H156.777L148.869 9.1915L142.554 0H135.27L144.82 13.8991L135.27 25H137.428L145.778 15.2935L152.448 25H159.732L149.828 10.5858ZM146.872 14.0216L145.905 12.6376L138.205 1.62459H141.52L147.733 10.5124L148.701 11.8964L156.778 23.4493H153.463L146.872 14.0216Z" fill="white"/>
</svg>
