<svg width="92" height="92" viewBox="0 0 92 92" fill="none" xmlns="http://www.w3.org/2000/svg">
<rect x="0.5" y="0.5" width="91" height="91" rx="7.5" stroke="#102D4D" stroke-opacity="0.24"/>
<path d="M35.1387 26.9156C33.4717 27.2823 32.1381 28.0242 30.9962 29.2244C30.0293 30.2413 29.4875 31.1749 29.0708 32.5168C28.8624 33.2003 28.8457 33.3587 28.8457 34.7506C28.8457 36.1426 28.8624 36.301 29.0708 36.9845C29.4792 38.3014 30.0293 39.2516 30.9462 40.2185C31.9547 41.2937 33.105 42.0022 34.5219 42.4273C35.4221 42.694 37.1058 42.7941 38.0977 42.6274C41.3651 42.1022 44.024 39.485 44.6408 36.1843C44.7659 35.5175 44.7659 33.9838 44.6408 33.317C44.0407 30.108 41.5818 27.5991 38.3561 26.9156C37.6393 26.7572 35.8556 26.7656 35.1387 26.9156ZM38.3395 28.3826C40.5233 28.916 42.382 30.6581 43.0405 32.8169C44.0907 36.2426 42.1986 39.8601 38.7645 41.002C37.0975 41.5605 34.9637 41.3354 33.4967 40.4519C31.4129 39.1933 30.2127 37.1095 30.2127 34.7506C30.2127 30.4747 34.1802 27.374 38.3395 28.3826Z" fill="#102D4D"/>
<path d="M36.2559 29.6662C36.1058 29.8079 36.0475 29.9579 36.0475 30.1996C36.0475 30.5164 36.0308 30.533 35.6557 30.6581C35.1473 30.8331 34.6472 31.2082 34.3554 31.6416C33.6886 32.6418 33.897 34.0505 34.8222 34.7173C35.2973 35.059 35.6224 35.1924 36.5059 35.3841C36.9227 35.4758 37.4478 35.6425 37.6895 35.7508C38.6981 36.2093 38.5814 37.1928 37.4811 37.5096C36.5059 37.793 35.5557 37.4679 35.2056 36.7344C34.9306 36.1343 34.8222 36.0426 34.4138 36.0426C33.0802 36.0426 33.8803 38.2097 35.4307 38.7848C35.6807 38.8849 35.9224 38.9599 35.9641 38.9599C36.0141 38.9599 36.0475 39.1099 36.0475 39.2933C36.0475 39.7601 36.3309 40.0435 36.7893 40.0435C37.1977 40.0435 37.4644 39.7517 37.4644 39.3016C37.4644 39.0099 37.4728 39.0016 37.9479 38.8599C38.623 38.6598 39.1982 38.2514 39.5066 37.7596C39.7316 37.3845 39.7566 37.2845 39.7566 36.6344C39.7566 35.7925 39.5982 35.4258 39.0398 34.9257C38.5897 34.5089 38.0146 34.2672 37.0144 34.0505C36.0891 33.8504 35.8058 33.7254 35.5557 33.4087C35.0056 32.7169 35.8641 31.7916 36.9477 31.9C37.5061 31.9584 37.8395 32.1834 38.2229 32.7419C38.473 33.1086 38.5564 33.1669 38.8314 33.192C39.4982 33.2503 39.8066 32.7002 39.4649 32.05C39.1898 31.5083 38.7481 31.0748 38.1979 30.7914C37.9145 30.6581 37.6395 30.5414 37.5728 30.5414C37.5061 30.5414 37.4644 30.433 37.4644 30.2163C37.4644 29.7495 37.2061 29.4578 36.7893 29.4578C36.5476 29.4578 36.3975 29.5161 36.2559 29.6662Z" fill="#102D4D"/>
<path d="M60.8517 28.9243C59.4514 29.0077 58.8929 29.0744 58.7512 29.166C58.4928 29.3328 58.4011 29.8079 58.5845 30.0829C58.8096 30.433 58.9513 30.458 60.1765 30.3913L61.3185 30.333L61.0684 30.5414C60.935 30.658 60.3599 31.1498 59.7931 31.6333C51.3663 38.8182 41.064 44.6945 29.8449 48.7203C28.703 49.1288 28.6029 49.1788 28.4779 49.4372C28.3196 49.7789 28.4029 50.079 28.7363 50.329C29.028 50.5457 29.1281 50.5207 31.8787 49.4872C42.406 45.528 51.658 40.2351 59.8015 33.517C60.4683 32.9669 61.3018 32.2501 61.6685 31.9333C62.277 31.3832 62.3187 31.3582 62.277 31.5916C62.2437 31.7249 62.1603 32.2584 62.0853 32.7752C61.9436 33.7004 61.9436 33.7254 62.1103 33.9421C62.3437 34.2505 62.6354 34.3422 62.9605 34.2088C63.1105 34.1505 63.2605 34.0421 63.2939 33.9671C63.3856 33.8087 63.969 29.9162 63.969 29.5078C63.969 29.3494 63.9024 29.141 63.819 29.041C63.6106 28.791 63.2689 28.7743 60.8517 28.9243Z" fill="#102D4D"/>
<path d="M57.6771 38.7515L57.4688 38.9515V51.8377C57.4688 64.5488 57.4688 64.7155 57.6355 64.8822C57.7271 64.9739 57.8855 65.0656 57.9855 65.0906C58.0939 65.1156 59.4108 65.1323 60.9112 65.1156L63.6534 65.0906L63.8118 64.8906C63.9702 64.6988 63.9702 64.3738 63.9702 51.796V38.8849L63.7535 38.7181C63.5367 38.5514 63.4367 38.5431 60.7028 38.5431H57.8772L57.6771 38.7515ZM62.5532 51.8377V63.7153H60.7195H58.8857V51.8377V39.9601H60.7195H62.5532V51.8377Z" fill="#102D4D"/>
<path d="M48.1752 43.5859L47.9668 43.7859V54.2549C47.9668 64.5571 47.9668 64.7155 48.1335 64.8822C48.2252 64.9739 48.3836 65.0656 48.4836 65.0906C48.5919 65.1156 49.9089 65.1323 51.4092 65.1156L54.1515 65.0906L54.3099 64.8906C54.4599 64.6988 54.4682 64.4071 54.4682 54.2382V43.7859L54.2598 43.5859L54.0598 43.3775H51.2175H48.3752L48.1752 43.5859ZM53.0512 54.2549V63.7153H51.2175H49.3838V54.2549V44.7945H51.2175H53.0512V54.2549Z" fill="#102D4D"/>
<path d="M38.84 48.812C38.4483 49.0204 38.4649 48.7287 38.4649 56.9305C38.4649 64.4488 38.4733 64.7072 38.6233 64.8906L38.7817 65.0906L41.524 65.1156C43.0243 65.1323 44.3412 65.1156 44.4496 65.0906C44.5496 65.0656 44.708 64.9739 44.7997 64.8822C44.9664 64.7155 44.9664 64.5738 44.9664 56.9722C44.9664 52.7129 44.9414 49.1621 44.9164 49.0871C44.783 48.7453 44.5246 48.712 41.699 48.712C39.9153 48.7203 38.9484 48.7453 38.84 48.812ZM43.5494 56.9221V63.7153H41.7157H39.8819V56.9221V50.129H41.7157H43.5494V56.9221Z" fill="#102D4D"/>
<path d="M29.1693 54.0882L28.9609 54.2882V59.4894C28.9609 64.4905 28.9693 64.7072 29.1193 64.8906L29.2777 65.0906L32.0199 65.1156C33.5203 65.1323 34.8372 65.1156 34.9456 65.0906C35.0456 65.0656 35.204 64.9739 35.2957 64.8822C35.454 64.7239 35.4624 64.5822 35.4624 59.506V54.2882L35.254 54.0882L35.0539 53.8798H32.2117H29.3694L29.1693 54.0882ZM34.0454 59.506V63.7153H32.2117H30.3779V59.506V55.2968H32.2117H34.0454V59.506Z" fill="#102D4D"/>
</svg>
