<svg width="90" height="90" viewBox="0 0 90 90" fill="none" xmlns="http://www.w3.org/2000/svg">
<path d="M42.9314 13.3197C42.4963 13.7942 42.4963 14.6047 42.9511 14.9804C43.1291 15.1583 43.9795 15.4153 44.8298 15.5339C45.6604 15.6723 46.3525 15.8502 46.3525 15.9293C46.3525 16.0084 46.1548 16.1468 45.9175 16.2654C45.0276 16.6806 9.6689 37.1228 9.33272 37.4193C8.83833 37.874 8.89765 38.5264 9.47115 39.0602C9.90621 39.4754 10.0644 39.515 10.5192 39.337C10.8159 39.2184 19.2007 34.4341 29.1478 28.681C39.0949 22.9477 47.3413 18.2029 47.4797 18.1633C47.6182 18.104 47.4995 18.6773 47.1633 19.6263C46.5305 21.3265 46.5898 21.8999 47.4006 22.2755C48.0137 22.5523 48.6069 22.2557 48.9827 21.5045C49.1409 21.2079 49.7341 19.6461 50.3076 18.0447L51.3557 15.1187L50.9602 14.6047C50.6043 14.1105 50.3076 14.0116 47.4204 13.5174C43.663 12.865 43.3466 12.865 42.9314 13.3197Z" fill="#122E4D"/>
<path d="M54.4023 26.3678C54.1057 26.7039 54.0661 27.6924 54.0661 36.6285V46.5135L52.5434 46.6519C51.6931 46.7309 50.4077 46.9286 49.6562 47.0868C48.9047 47.245 48.2719 47.3636 48.2324 47.3636C48.1928 47.3636 48.1137 44.3388 48.0939 40.6615C48.0346 34.3945 48.0148 33.9397 47.6589 33.5443C47.3029 33.1489 47.1052 33.1292 43.1896 33.1292C39.4718 33.1292 39.0763 33.1687 38.7797 33.485C38.483 33.8211 38.4435 34.7701 38.4435 42.9746V52.1084L37.8107 52.6422C36.1297 54.0854 34.785 55.4693 33.638 56.8927L32.4119 58.4743L32.3131 49.6767C32.2537 44.833 32.1746 40.8395 32.1153 40.7802C31.6209 40.3452 30.8101 40.2464 27.4087 40.2464C23.9282 40.2464 23.6316 40.2661 23.1372 40.6615L22.623 41.0569V50.1116C22.623 57.9603 22.6626 59.1861 22.9395 59.5815C23.2361 60.0164 23.335 60.0164 27.2901 60.0164C29.5247 60.0164 31.3243 60.0757 31.2847 60.1548C31.2452 60.2536 30.8101 61.1631 30.296 62.1911C28.615 65.5718 27.7845 68.7943 27.6263 72.4715C27.5274 74.4485 27.5669 74.8044 27.8438 75.1009C28.1602 75.3975 28.8128 75.437 34.2708 75.437C39.8278 75.437 40.3815 75.3975 40.6583 75.0812C40.8561 74.8835 41.0143 74.152 41.0736 73.1437C41.6867 64.781 49.7946 58.6325 57.9817 60.3327C64.2308 61.6178 68.878 66.7777 69.412 72.9855C69.4713 73.8554 69.669 74.7451 69.8075 75.0021L70.0843 75.437H76.0961C79.4184 75.437 82.2661 75.3777 82.444 75.3184C82.9978 75.1009 83.0966 74.4485 82.9187 72.0563C82.2067 62.4679 76.2543 53.69 67.6124 49.4592C66.4259 48.8661 65.0613 48.273 64.6065 48.1346L63.7562 47.8974V37.2809C63.7562 27.2575 63.7364 26.6446 63.4002 26.3481C63.0838 26.0515 62.4707 26.012 58.8716 26.012C55.0945 26.012 54.699 26.0515 54.4023 26.3678ZM61.3831 37.7751C61.3831 42.9351 61.3633 47.1659 61.3435 47.1659C61.304 47.1659 60.5723 47.0275 59.7022 46.8693C58.8321 46.7112 57.7444 46.5926 57.2896 46.5728H56.4392V37.4786V28.3844H58.9112H61.3831V37.7751ZM45.5627 41.8873V48.273L44.4355 48.7277C43.8026 48.9847 42.7348 49.4987 42.0624 49.8744L40.8165 50.5466V43.0142V35.5016H43.1896H45.5627V41.8873ZM29.94 50.2302V57.644H27.4681H24.9961V50.2302V42.8165H27.4681H29.94V50.2302ZM54.0661 53.2748V57.6045L53.5322 57.7231C53.2158 57.7824 52.583 57.8812 52.1084 57.9603C51.3569 58.0592 49.4387 58.6523 48.3115 59.1267C48.0544 59.2256 47.5402 58.4941 45.8791 55.6077C44.7321 53.6109 43.7829 51.9107 43.7829 51.8514C43.7829 51.6339 45.5824 50.8036 47.204 50.25C49.0629 49.6371 51.9897 49.0243 53.4333 48.965L54.0661 48.9452V53.2748ZM61.1853 49.6569C63.0442 50.1314 66.6434 51.4164 66.8016 51.6734C66.8609 51.7921 62.9256 58.7116 62.5894 59.0872C62.5103 59.1663 61.8973 59.0081 61.2249 58.7313C60.3152 58.3557 57.2105 57.644 56.5183 57.644C56.4788 57.644 56.4392 55.6868 56.4392 53.2748V48.9056L57.8828 49.044C58.6541 49.1231 60.157 49.3999 61.1853 49.6569ZM43.7235 56.6753C44.831 58.5732 45.7406 60.1943 45.7406 60.3129C45.7604 60.4118 45.1276 61.084 44.3564 61.7759C43.5851 62.4679 42.6161 63.4762 42.2008 63.9902L41.4691 64.9194L37.8502 62.8237C35.8529 61.6573 34.1917 60.6095 34.1522 60.4909C33.8951 59.6605 40.6583 52.919 41.5087 53.176C41.6076 53.1957 42.6161 54.7773 43.7235 56.6753ZM70.4996 54.0261C72.1212 55.2123 74.692 57.8219 75.7599 59.364L76.6103 60.57L72.8529 62.7447L69.0956 64.9194L68.087 63.6541C67.5135 62.9819 66.5445 61.9934 65.9117 61.4794C65.2591 60.9654 64.7449 60.4909 64.7449 60.4316C64.7449 60.3129 65.6546 58.7116 68.1463 54.4215C68.5616 53.69 68.9967 53.0969 69.0758 53.0969C69.1747 53.0969 69.8075 53.5121 70.4996 54.0261ZM36.6043 64.8798C39.4916 66.5405 40.2233 67.0545 40.1244 67.3115C39.5311 68.7152 39.017 70.4945 38.8192 71.6609L38.5819 73.0646H34.2708H29.94V72.4913C29.94 71.6016 30.5135 68.557 30.9485 67.0348C31.4034 65.5322 32.6097 62.7842 32.8074 62.7842C32.8865 62.7842 34.5872 63.7332 36.6043 64.8798ZM78.5483 64.2076C79.6557 66.9161 80.5654 70.5736 80.5654 72.3924V73.0646H76.2345H71.9037L71.7652 71.8982C71.6861 71.2655 71.3697 70.0003 71.0533 69.0908C70.7369 68.1814 70.4403 67.3313 70.4205 67.1929C70.381 66.9557 77.2628 62.8237 77.7375 62.804C77.8561 62.7842 78.2318 63.4366 78.5483 64.2076Z" fill="#122E4D"/>
<path d="M7.31641 47.8776C7.03955 48.1346 7 48.9451 7 53.769C7 58.929 7.01978 59.3837 7.35596 59.6803C7.67237 59.9768 8.28541 60.0164 11.8055 60.0164H15.8792L16.2747 59.5023C16.6702 59.0081 16.69 58.7313 16.69 53.8481C16.69 48.8068 16.6109 48.1148 16.0176 47.7194C15.899 47.6403 13.961 47.5612 11.7066 47.5612C8.24586 47.5612 7.57349 47.6008 7.31641 47.8776ZM14.1192 53.7888V57.644H11.7461H9.37306V53.7888V49.9336H11.7461H14.1192V53.7888Z" fill="#122E4D"/>
<path d="M58.8304 68.9921L56.9319 70.8505L55.8047 70.7517C54.3413 70.6133 53.8272 70.7517 52.9768 71.5227C52.0078 72.353 51.6914 73.045 51.6914 74.2707C51.6914 76.307 53.1746 77.8096 55.2312 77.8096C57.6834 77.8096 59.3248 75.8128 58.7908 73.4799L58.5931 72.5903L60.4915 70.6924C62.4888 68.6956 62.6866 68.2409 61.9747 67.5292C61.2825 66.8372 60.8277 67.0349 58.8304 68.9921ZM56.0816 73.4009C56.833 74.073 56.2991 75.4372 55.2906 75.4372C54.1633 75.4372 53.6096 73.994 54.4995 73.3811C55.073 72.9659 55.6267 72.9857 56.0816 73.4009Z" fill="#122E4D"/>
</svg>
