<svg width="90" height="90" viewBox="0 0 90 90" fill="none" xmlns="http://www.w3.org/2000/svg">
<path d="M66.485 44.6217V44.5217H66.385H63.9534H63.8534V44.6217C63.8534 55.2651 55.1447 63.9738 44.5011 63.9738C33.8575 63.9738 25.1487 55.2651 25.1487 44.6217C25.1487 33.9783 33.8575 25.2697 44.5011 25.2697C47.2827 25.2697 49.9435 25.8744 52.3626 26.9629L52.4542 27.0042L52.495 26.9124L53.4676 24.724L53.5086 24.6319L53.4161 24.5917C50.6094 23.3714 47.5566 22.6383 44.5016 22.6382C32.4091 22.5163 22.5172 32.4097 22.5172 44.6217C22.5172 56.7129 32.4097 66.6053 44.5011 66.6053C56.5925 66.6053 66.485 56.7129 66.485 44.6217Z" fill="#122E4D" stroke="#122E4D" stroke-width="0.2"/>
<path d="M59.6268 18.2751C57.5718 17.0663 55.2786 16.0977 52.9845 15.3687L52.6244 10.0874L52.6253 10.0873L52.6227 10.0746C52.4939 9.43076 51.9747 8.9 51.3089 8.9H37.6922C37.0264 8.9 36.5072 9.43076 36.3784 10.0746L36.378 10.0745L36.3771 10.0829L35.7767 15.3664C33.7464 15.9691 31.8335 16.8045 29.9247 17.7565L25.8412 14.3937L25.8413 14.3936L25.8377 14.3909C25.3231 14.005 24.5304 13.9892 24.1215 14.5267L14.5218 24.1262C14.2634 24.3847 14.1295 24.6807 14.1128 24.9816C14.0961 25.2819 14.1965 25.5782 14.391 25.8374L14.3909 25.8375L14.3938 25.841L17.7545 29.9217C16.6852 31.8356 15.9657 33.7496 15.3664 35.7763L10.0829 36.3767L10.0829 36.3763L10.0746 36.378C9.43077 36.5067 8.9 37.026 8.9 37.6918V51.3082C8.9 51.974 9.43077 52.4933 10.0746 52.622L10.0745 52.6224L10.0829 52.6233L15.3665 53.2237C15.9692 55.254 16.8047 57.1669 17.7567 59.0756L14.3938 63.159L14.3937 63.159L14.391 63.1626C14.005 63.6772 13.9893 64.4699 14.5267 64.8787L24.1264 74.4783C24.3849 74.7367 24.681 74.8706 24.9819 74.8873C25.2821 74.904 25.5784 74.8036 25.8377 74.6091L25.8377 74.6092L25.8412 74.6063L29.9221 71.2457C31.8359 72.3149 33.75 73.0344 35.7767 73.6337L36.3771 78.9171L36.3767 78.9172L36.3784 78.9255C36.5072 79.5693 37.0264 80.1 37.6922 80.1H51.3089C51.9747 80.1 52.4939 79.5693 52.6227 78.9255L52.6231 78.9255L52.624 78.9171L53.2244 73.6336C55.2547 73.0309 57.1676 72.1955 59.0764 71.2435L63.1599 74.6063L63.1598 74.6064L63.1634 74.6091C63.678 74.9951 64.4707 75.0108 64.8796 74.4734L74.4793 64.8738C74.7377 64.6153 74.8716 64.3193 74.8883 64.0184C74.905 63.7181 74.8046 63.4218 74.6101 63.1626L74.6102 63.1625L74.6073 63.159L71.2466 59.0783C72.3159 57.1644 73.0354 55.2504 73.6347 53.2237L78.9182 52.6233L78.9182 52.6237L78.9265 52.622C79.5703 52.4933 80.1011 51.974 80.1011 51.3082V37.8134C80.1011 37.4837 79.9697 37.1569 79.7575 36.912C79.5462 36.6681 79.2486 36.4993 78.9119 36.4976L72.7162 35.8902L72.6169 35.8805L72.607 35.9798L72.3638 38.4113L72.3538 38.5113L72.4538 38.5208L77.4696 38.9985V50.1231L72.4584 50.6004C71.9291 50.6028 71.4047 50.9968 71.2721 51.5271C70.6667 53.9486 69.6981 56.2491 68.3659 58.429L68.3656 58.4288L68.3618 58.4364C68.1077 58.9447 68.0968 59.48 68.4979 59.8849L71.6003 63.8226L63.7019 71.7209L59.7754 68.6274C59.7276 68.5482 59.648 68.4959 59.5623 68.4633C59.4682 68.4274 59.3567 68.4111 59.2418 68.4111C59.0142 68.4111 58.7526 68.4752 58.5515 68.608C56.3712 69.8189 54.0697 70.7879 51.6471 71.5149C51.3879 71.5801 51.1562 71.7113 50.9889 71.912C50.8213 72.1131 50.7235 72.3779 50.7226 72.7007L50.2453 77.7117H38.9989L38.5217 72.7006C38.5193 72.1713 38.1253 71.6469 37.5949 71.5143C35.1734 70.9089 32.8728 69.9403 30.6929 68.6082L30.6931 68.6079L30.6855 68.6041C30.1772 68.3499 29.6419 68.3391 29.237 68.7401L25.2982 71.8433L17.1585 63.9431L20.2601 60.0065C20.6574 59.6045 20.655 58.9488 20.3922 58.5508C19.1812 56.3705 18.2122 54.069 17.4853 51.6464C17.42 51.3872 17.2888 51.1555 17.0881 50.9883C16.8874 50.821 16.6231 50.7232 16.301 50.7219L11.5315 50.1258V38.8769L16.5427 38.3997C17.072 38.3972 17.5964 38.0033 17.729 37.4729C18.3344 35.0514 19.303 32.7509 20.6352 30.571L20.6355 30.5712L20.6393 30.5636C20.8937 30.0547 20.9043 29.5188 20.5019 29.1138L17.16 25.1751L25.0561 17.2791L28.9938 20.3815C29.3958 20.7788 30.0516 20.7764 30.4496 20.5136C32.6299 19.3026 34.9314 18.3337 37.354 17.6067C37.6132 17.5415 37.8449 17.4103 38.0122 17.2096C38.1798 17.0085 38.2776 16.7437 38.2785 16.4209L38.7558 11.4099H50.0022L50.4794 16.421C50.4818 16.9503 50.8758 17.4747 51.4062 17.6073C53.8277 18.2127 56.1283 19.1812 58.3082 20.5134L58.395 20.5664L58.4465 20.4788L59.6623 18.412L59.713 18.3258L59.6268 18.2751Z" fill="#122E4D" stroke="#122E4D" stroke-width="0.2"/>
<path d="M44.4978 55.057L78.763 20.6713L73.19 15.0984L45.2981 42.8686L45.2979 42.8687M44.4978 55.057L43.5253 42.7979C43.7684 43.041 44.0116 43.1626 44.3763 43.1626C44.7411 43.1626 44.9842 43.041 45.2274 42.7979L45.2979 42.8687M44.4978 55.057L31.3874 41.9468L36.9601 36.3742M44.4978 55.057L36.9601 36.3742M45.2979 42.8687C45.1705 42.9961 45.0391 43.0957 44.888 43.1628C44.7365 43.2301 44.5704 43.2626 44.3763 43.2626C44.1823 43.2626 44.0161 43.2301 43.8646 43.1628C43.7135 43.0957 43.582 42.9961 43.4546 42.8686L36.9601 36.3742M45.2979 42.8687L36.9601 36.3742M72.1468 12.3333L72.1466 12.3335L44.4977 40.1032L38.0034 33.609C37.4781 33.0837 36.6853 33.0837 36.1599 33.609L28.6221 41.1467C28.4947 41.2742 28.3951 41.4056 28.3279 41.5567C28.2606 41.7082 28.2281 41.8744 28.2281 42.0684C28.2281 42.2625 28.2606 42.4286 28.3279 42.5801C28.3951 42.7312 28.4947 42.8627 28.6221 42.9902L43.5761 57.9439C43.7036 58.0714 43.8351 58.171 43.9862 58.2382C44.1377 58.3055 44.3039 58.3379 44.4979 58.3379C44.6919 58.3379 44.8581 58.3055 45.0096 58.2382C45.1607 58.171 45.2922 58.0714 45.4196 57.9439L45.4198 57.9438L81.5281 21.7145C81.6556 21.587 81.7552 21.4555 81.8223 21.3045C81.8897 21.1529 81.9221 20.9868 81.9221 20.7927C81.9221 20.5987 81.8897 20.4325 81.8223 20.281C81.7552 20.1299 81.6556 19.9985 81.5281 19.871L73.9903 12.3333C73.4649 11.808 72.6722 11.808 72.1468 12.3333Z" fill="#122E4D" stroke="#122E4D" stroke-width="0.2"/>
</svg>
