<svg width="90" height="90" viewBox="0 0 90 90" fill="none" xmlns="http://www.w3.org/2000/svg">
<path d="M43.6816 7.28356C43.4421 7.53903 43.4102 8.03402 43.4102 10.7963C43.4102 13.9259 43.4261 14.0057 43.7614 14.2453C43.953 14.389 44.3043 14.5007 44.5278 14.5007C44.7514 14.5007 45.1027 14.389 45.2943 14.2453C45.6296 14.0057 45.6455 13.9259 45.6455 10.7644C45.6455 7.82644 45.6136 7.5071 45.3581 7.26759C44.959 6.90035 44.0009 6.91631 43.6816 7.28356Z" fill="#122E4D"/>
<path d="M21.1035 16.6564C20.5606 16.8959 20.2732 17.6144 20.5606 18.1254C20.6405 18.285 21.6464 19.3229 22.78 20.4406C25.0314 22.676 25.3507 22.8357 26.0852 22.0852C26.8356 21.3348 26.676 21.0314 24.3767 18.7162C23.2112 17.5505 22.1094 16.5606 21.9338 16.5127C21.7582 16.4648 21.3909 16.5286 21.1035 16.6564Z" fill="#122E4D"/>
<path d="M64.7738 18.6201C62.9216 20.4723 62.5703 20.9034 62.5703 21.3026C62.5703 21.9572 63.0972 22.4841 63.7359 22.4841C64.183 22.4841 64.5342 22.1967 66.4503 20.2807C68.8453 17.8856 69.005 17.5662 68.2386 16.8158C67.4881 16.0494 67.1848 16.209 64.7738 18.6201Z" fill="#122E4D"/>
<path d="M41.9728 17.0555C34.612 17.9816 28.6244 21.686 24.6646 27.8014C22.1578 31.6335 20.9922 35.6892 20.9922 40.5273C20.9922 43.4812 21.2477 45.2216 22.046 47.6806C23.3074 51.6564 24.9839 54.291 28.5605 58.0113C30.3648 59.8955 30.7001 60.3425 31.3388 61.6359C32.5682 64.1427 32.6002 64.3024 32.696 70.7053C32.7758 75.6391 32.8237 76.4375 33.0632 76.8686C33.3666 77.4274 34.149 78.13 34.612 78.2897C34.7876 78.3376 34.9633 78.4973 35.0271 78.6569C35.091 78.8006 35.4263 79.7108 35.7776 80.6848C36.1289 81.6428 36.528 82.5689 36.6717 82.7126C36.8953 82.984 37.4701 83 44.5275 83C51.6168 83 52.1597 82.984 52.3992 82.7126C52.5429 82.5689 52.9421 81.6428 53.2933 80.6848C54.1396 78.2897 54.0917 78.4014 54.443 78.2897C54.906 78.13 55.6884 77.4274 55.9917 76.8686C56.2313 76.4375 56.2792 75.6391 56.359 70.7053C56.4708 64.3024 56.4867 64.1587 57.7321 61.6199C58.3868 60.2946 58.7221 59.8635 60.5104 57.9954C64.1509 54.2271 65.8753 51.4329 67.1047 47.3453C68.1586 43.9283 68.3821 39.5213 67.7115 36.0884C66.4341 29.6855 62.7937 24.2567 57.3809 20.7279C54.8262 19.0673 51.6487 17.8219 48.6789 17.311C46.7948 16.9756 43.5695 16.8639 41.9728 17.0555ZM43.4098 23.0112C43.4098 27.2905 43.298 27.0509 45.4057 27.1467C47.1301 27.2266 47.7528 27.514 48.1999 28.3922C48.599 29.1746 48.599 29.5259 48.2158 30.2763C47.7528 31.1705 47.1301 31.4579 45.4216 31.5537C44.4317 31.6016 43.8728 31.6974 43.6972 31.873C43.4417 32.0966 43.4098 32.4798 43.4098 35.769V39.4096H40.6315H37.8533L37.7894 38.4036C37.7096 37.238 37.3264 36.3598 36.544 35.5774C35.6019 34.6354 34.9154 34.3799 33.2708 34.3799C31.9934 34.3799 31.7539 34.4278 31.0993 34.811C29.758 35.6094 28.9278 36.9187 28.7681 38.5473L28.6723 39.4096H26.0218H23.3553L23.4671 38.2759C24.2335 31.2024 28.7042 24.8155 35.1868 21.5582C37.2785 20.5204 40.9189 19.4825 42.6593 19.4665L43.4098 19.4506V23.0112ZM48.3755 19.6901C57.5565 21.3986 64.7097 29.1107 65.5879 38.228L65.6997 39.4096H62.0752C57.7641 39.4096 57.9397 39.3297 57.9397 41.3256C57.9237 43.0022 57.5565 43.7846 56.5666 44.2316C55.6405 44.6308 54.906 44.4712 54.1875 43.7207C53.7404 43.2576 53.7085 43.1139 53.6286 41.645C53.5009 39.2818 53.7404 39.4096 49.2856 39.4096H45.6452V36.6153V33.821H46.5712C47.7368 33.821 48.8705 33.2941 49.6848 32.384C50.563 31.426 50.8185 30.7553 50.8185 29.3502C50.8185 27.9291 50.563 27.2585 49.6529 26.2686C48.8865 25.4383 47.8646 24.9592 46.5712 24.7996L45.6452 24.6878V22.0692V19.4506H46.3477C46.7309 19.4506 47.641 19.5623 48.3755 19.6901ZM34.3246 36.9346C35.107 37.3498 35.4263 38.0523 35.4263 39.3457C35.4263 40.7348 35.6339 41.3895 36.1608 41.629C36.4163 41.7408 37.7575 41.8046 39.9769 41.8046H43.4098V44.5191V47.2335H42.6434C40.9668 47.2335 39.434 48.1755 38.6676 49.6924C38.0928 50.7782 38.0609 52.5346 38.5558 53.6363C39.2584 55.1532 40.6954 56.1272 42.4677 56.2869L43.4098 56.3827V61.4603V66.5538H39.2903H35.1549L34.9633 65.1966C34.7238 63.4881 34.2767 62.0031 33.5582 60.5661C32.7119 58.8736 32.185 58.187 30.1572 56.0953C28.0336 53.8918 27.1395 52.7741 26.1176 50.9858C24.7923 48.6705 23.8024 45.7006 23.499 43.0501L23.3553 41.8206L26.9 41.7727C31.243 41.7088 31.1152 41.7727 31.1152 39.8566C31.1152 38.4036 31.3547 37.733 32.0573 37.1262C32.664 36.6313 33.5582 36.5514 34.3246 36.9346ZM51.2655 42.8425C51.4571 45.1577 53.2933 46.7864 55.7043 46.8024C58.0994 46.8183 59.9835 45.1098 60.2709 42.6988L60.3827 41.8046H62.9853H65.6039V42.4593C65.6039 44.1039 64.5021 48.0159 63.4323 50.1235C62.6021 51.7682 60.9734 53.9237 59.0734 55.9196C57.9716 57.0693 56.7901 58.4265 56.4548 58.9374C55.1774 60.8535 54.2992 63.2965 54.0278 65.5479L53.916 66.5538H49.7806H45.6452V60.5022C45.6452 55.0734 45.6132 54.4347 45.3737 54.2431C45.2141 54.0994 44.5275 53.9876 43.5535 53.9397C41.7652 53.8439 41.3022 53.6204 40.7912 52.5985C40.408 51.8161 40.5517 51.0496 41.2542 50.2992C41.7812 49.7244 41.8131 49.7084 43.1224 49.6605C45.7889 49.5647 45.6452 49.8202 45.6452 45.3813V41.8046H48.4234H51.1857L51.2655 42.8425ZM53.948 70.1464V71.3439H44.5275H35.107V70.1464V68.9489H44.5275H53.948V70.1464ZM53.948 74.6811C53.948 75.3357 53.8681 75.719 53.6925 75.8786C53.469 76.1022 52.4151 76.1341 44.5275 76.1341C36.6398 76.1341 35.586 76.1022 35.3624 75.8786C35.1868 75.719 35.107 75.3357 35.107 74.6811V73.739H44.5275H53.948V74.6811ZM51.3933 78.6729C51.3933 78.7527 51.2336 79.2158 51.058 79.7108L50.7067 80.6049H44.5275H38.3483L37.997 79.7108C37.8214 79.2158 37.6617 78.7527 37.6617 78.6729C37.6617 78.5931 40.5038 78.5292 44.5275 78.5292C48.5511 78.5292 51.3933 78.5931 51.3933 78.6729Z" fill="#122E4D"/>
<path d="M11.2685 39.6968C10.8853 40.1279 10.9173 41.054 11.3324 41.4212C11.6358 41.6927 11.9391 41.7246 14.7813 41.7246C17.8629 41.7246 17.8948 41.7246 18.1982 41.3414C18.5974 40.8624 18.5814 40.1279 18.1822 39.7287C17.8788 39.4253 17.6553 39.4094 14.7014 39.4094C11.8274 39.4094 11.508 39.4413 11.2685 39.6968Z" fill="#122E4D"/>
<path d="M70.8739 39.7287C70.4747 40.1279 70.4587 40.8624 70.8579 41.3414C71.1613 41.7246 71.1932 41.7246 74.2749 41.7246C77.117 41.7246 77.4203 41.6927 77.7237 41.4212C78.1548 41.0221 78.1868 40.0481 77.7716 39.6808C77.5161 39.4413 77.0371 39.4094 74.3387 39.4094C71.4008 39.4094 71.1773 39.4253 70.8739 39.7287Z" fill="#122E4D"/>
<path d="M22.6214 60.7736C20.7692 62.6258 20.418 63.0569 20.418 63.4561C20.418 64.1108 20.9449 64.6377 21.5836 64.6377C22.0466 64.6377 22.3819 64.3663 24.2979 62.4342C26.693 60.0232 26.8526 59.7198 26.0862 58.9693C25.3358 58.2029 25.0324 58.3626 22.6214 60.7736Z" fill="#122E4D"/>
<path d="M63.2409 58.7298C62.8897 58.8735 62.5703 59.4643 62.5703 59.9593C62.5703 60.103 63.5603 61.2207 64.7578 62.4342C66.6419 64.3343 67.0091 64.6377 67.4402 64.6377C68.0629 64.6377 68.6378 64.0629 68.6378 63.4402C68.6378 63.0729 68.2545 62.5939 66.5301 60.8694C64.3905 58.7298 63.9594 58.4424 63.2409 58.7298Z" fill="#122E4D"/>
</svg>
