<svg width="858" height="792" viewBox="0 0 858 792" fill="none" xmlns="http://www.w3.org/2000/svg">
<path fill-rule="evenodd" clip-rule="evenodd" d="M711.149 556.981C759.811 556.981 799.26 596.439 799.26 645.113C799.26 693.787 759.811 733.245 711.149 733.245C662.487 733.245 623.039 693.787 623.039 645.113C623.039 596.439 662.487 556.981 711.149 556.981ZM711.149 498.226C630.046 498.226 564.299 563.989 564.299 645.113C564.299 675.534 573.544 703.796 589.378 727.239L593.869 733.245H301.125L277 762.623L301.125 792L711.149 792C792.252 792 858 726.237 858 645.113C858 563.989 792.253 498.226 711.149 498.226Z" fill="url(#paint0_linear_145_157)"/>
<path fill-rule="evenodd" clip-rule="evenodd" d="M346.955 196.909C321.828 153.447 336.74 97.8717 380.262 72.7789C423.784 47.6862 479.436 62.5776 504.563 106.039C529.691 149.501 514.779 205.077 471.257 230.17C427.735 255.262 372.083 240.371 346.955 196.909ZM294.419 227.199C336.299 299.636 429.052 324.454 501.588 282.633C528.789 266.95 549.286 244.122 562.073 217.894L565.123 210.788L715.004 479.29L753.729 485.692L767.54 449L557.099 75.7496C515.22 3.31317 422.467 -21.5059 349.93 20.3154C277.394 62.1366 252.54 154.762 294.419 227.199Z" fill="url(#paint1_linear_145_157)"/>
<path fill-rule="evenodd" clip-rule="evenodd" d="M232.865 685.375C207.738 728.837 152.086 743.728 108.564 718.635C65.0422 693.543 50.1302 637.967 75.2576 594.505C100.385 551.043 156.037 536.152 199.559 561.245C243.081 586.337 257.993 641.913 232.865 685.375ZM285.402 715.665C327.281 643.227 302.427 550.602 229.891 508.781C202.69 493.098 172.645 486.786 143.505 488.842L135.818 489.757L271.259 237.5L257.449 200.808L218.723 207.21L19.8705 559.5C-22.0084 631.936 5.69592 729.278 78.2324 771.099C150.769 812.92 243.523 788.101 285.402 715.665Z" fill="url(#paint2_linear_145_157)"/>
<defs>
<linearGradient id="paint0_linear_145_157" x1="858" y1="0" x2="0.231506" y2="0" gradientUnits="userSpaceOnUse">
<stop stop-color="#B98947"/>
<stop offset="1" stop-color="#FAF0A1"/>
</linearGradient>
<linearGradient id="paint1_linear_145_157" x1="858" y1="0" x2="0.231506" y2="0" gradientUnits="userSpaceOnUse">
<stop stop-color="#B98947"/>
<stop offset="1" stop-color="#FAF0A1"/>
</linearGradient>
<linearGradient id="paint2_linear_145_157" x1="858" y1="0" x2="0.231506" y2="0" gradientUnits="userSpaceOnUse">
<stop stop-color="#B98947"/>
<stop offset="1" stop-color="#FAF0A1"/>
</linearGradient>
</defs>
</svg>
