<svg width="320" height="80" viewBox="0 0 320 80" fill="none" xmlns="http://www.w3.org/2000/svg">
<g clip-path="url(#clip0_145_158)">
<path d="M11.8477 47.721V63.8843V65.4531V67.0219V68.3256L42.4931 43.236C42.7112 43.0571 42.9773 42.968 43.2434 42.968C43.5096 42.968 43.7757 43.0571 43.9937 43.236L74.6392 68.3256V67.0219V65.4531V63.8843V47.721L43.2434 24.8728L11.8477 47.721Z" fill="#102D4D"/>
<path d="M0 41.7593V74.1587L9.47798 65.9392V47.1172C9.47798 46.7381 9.65962 46.3815 9.96564 46.1586L42.5462 22.4485C42.9615 22.1463 43.525 22.1463 43.9403 22.4485L76.5209 46.1586C76.8269 46.3815 77.0086 46.7381 77.0086 47.1172V65.9392L86.4865 74.1587V41.7593L43.2433 7.14282L0 41.7593Z" fill="#102D4D"/>
<path d="M120.354 17.6838C124.253 17.6838 127.33 18.7447 129.587 20.8663C131.845 22.9879 132.973 25.8453 132.973 29.4384C132.973 33.0656 131.845 35.9316 129.587 38.0361C127.33 40.1406 124.27 41.1929 120.405 41.1929H111.839V54.3333H103.785V17.6838H120.354ZM118.251 34.9306C120.576 34.9306 122.312 34.5029 123.457 33.6474C124.603 32.7919 125.176 31.3889 125.176 29.4384C125.176 27.5563 124.62 26.1705 123.509 25.2806C122.397 24.3908 120.662 23.9461 118.302 23.9461H111.839V34.9306H118.251ZM152.722 27.0772C153.338 27.0772 153.868 27.1628 154.313 27.3338V34.1094C153.526 33.9383 152.654 33.8527 151.696 33.8527C146.909 33.8527 144.515 36.6931 144.515 42.3735V54.3333H137.231V27.7958H144.156V32.7235H144.258C144.977 31.0125 146.114 29.6437 147.67 28.6171C149.226 27.5905 150.91 27.0772 152.722 27.0772ZM169.137 27.0772C173.378 27.0772 176.729 28.369 179.192 30.9526C181.654 33.5362 182.885 36.9156 182.885 41.0902C182.885 45.2993 181.628 48.6783 179.115 51.2279C176.601 53.7774 173.275 55.0519 169.137 55.0519C164.931 55.0519 161.597 53.7601 159.134 51.1765C156.672 48.5929 155.441 45.231 155.441 41.0902C155.441 36.8127 156.698 33.4077 159.211 30.8756C161.725 28.3435 165.034 27.0772 169.137 27.0772ZM162.725 41.0902C162.725 43.7935 163.272 45.8808 164.367 47.3525C165.461 48.8241 167.051 49.5596 169.137 49.5596C171.292 49.5596 172.908 48.8068 173.985 47.3011C175.062 45.7955 175.601 43.7252 175.601 41.0902C175.601 38.3526 175.045 36.248 173.934 34.7767C172.822 33.3053 171.206 32.5695 169.086 32.5695C167.034 32.5695 165.461 33.3052 164.367 34.7767C163.272 36.2481 162.725 38.3526 162.725 41.0902ZM202.532 27.0772C206.191 27.0772 209.115 28.3604 211.303 30.9269C213.492 33.4934 214.586 36.9669 214.586 41.3469C214.586 45.3506 213.535 48.6357 211.432 51.2022C209.328 53.7687 206.499 55.0519 202.942 55.0519C199.454 55.0519 196.803 53.7174 194.991 51.0482H194.888V63.6753H187.604V27.7958H194.529V31.1836H194.632C196.376 28.4459 199.009 27.0772 202.532 27.0772ZM194.632 41.1416C194.632 43.7422 195.179 45.7954 196.273 47.3011C197.368 48.8069 198.941 49.5596 200.993 49.5596C203.113 49.5596 204.695 48.8068 205.738 47.3011C206.781 45.7955 207.302 43.7422 207.302 41.1416C207.302 38.4724 206.738 36.3764 205.609 34.8537C204.481 33.331 202.908 32.5695 200.89 32.5695C198.872 32.5695 197.325 33.3223 196.248 34.828C195.171 36.3336 194.632 38.4383 194.632 41.1416ZM224.076 17.6838L232.232 43.4514H232.335L240.594 17.6838H248.904L236.747 54.3333H227.667L215.766 17.6838H224.076ZM260.702 27.0772C263.199 27.0772 265.422 27.6589 267.371 28.8224C269.32 29.9858 270.851 31.6712 271.962 33.8783C273.073 36.0855 273.629 38.6263 273.629 41.5008C273.629 41.7746 273.612 42.2194 273.578 42.8354H254.444C254.512 44.957 255.068 46.6081 256.111 47.7887C257.154 48.9693 258.753 49.5596 260.907 49.5596C262.241 49.5596 263.464 49.2259 264.575 48.5587C265.687 47.8914 266.396 47.0787 266.704 46.1205H273.116C271.235 52.0747 267.097 55.0519 260.702 55.0519C258.274 55.0176 256.026 54.4873 253.957 53.4607C251.888 52.4341 250.238 50.8344 249.006 48.6613C247.775 46.4883 247.16 43.9646 247.16 41.0902C247.16 38.3869 247.784 35.9228 249.032 33.6987C250.28 31.4746 251.939 29.8148 254.008 28.7197C256.077 27.6246 258.308 27.0772 260.702 27.0772ZM266.294 38.2158C265.952 36.231 265.319 34.7939 264.396 33.9041C263.472 33.0143 262.156 32.5695 260.446 32.5695C258.667 32.5695 257.265 33.0742 256.239 34.0837C255.213 35.0932 254.615 36.4705 254.444 38.2158H266.294ZM288.762 27.0772C292.318 27.0772 295.097 27.7959 297.097 29.2331C299.098 30.6703 300.218 32.7748 300.457 35.5467H293.532C293.43 34.2805 292.968 33.3651 292.147 32.8005C291.326 32.2359 290.13 31.9536 288.556 31.9536C287.188 31.9536 286.171 32.1589 285.504 32.5695C284.837 32.9802 284.504 33.5961 284.504 34.4174C284.504 35.0334 284.726 35.5467 285.171 35.9573C285.615 36.3679 286.291 36.7272 287.197 37.0352C288.103 37.3432 289.104 37.5999 290.198 37.8052C293.515 38.4554 295.858 39.1227 297.226 39.807C298.594 40.4914 299.594 41.3127 300.226 42.2709C300.859 43.229 301.175 44.4096 301.175 45.8126C301.175 48.7897 300.09 51.0739 297.918 52.6651C295.747 54.2564 292.797 55.052 289.069 55.052C285.171 55.052 282.136 54.2136 279.964 52.5368C277.793 50.86 276.673 48.5844 276.604 45.71H283.529C283.529 47.0788 284.059 48.1653 285.12 48.9694C286.18 49.7735 287.513 50.1757 289.121 50.1757C290.489 50.1757 291.626 49.8762 292.532 49.2774C293.438 48.6785 293.891 47.8487 293.891 46.7878C293.891 46.1035 293.609 45.5388 293.045 45.0939C292.481 44.6491 291.686 44.2555 290.66 43.9133C289.634 43.5711 288.044 43.1776 285.889 42.7327C284.179 42.3905 282.657 41.9285 281.324 41.3468C279.99 40.765 278.973 40.0037 278.271 39.0626C277.57 38.1216 277.22 36.9667 277.22 35.5979C277.22 33.8527 277.639 32.33 278.477 31.0295C279.314 29.7291 280.597 28.7454 282.324 28.0781C284.051 27.4108 286.197 27.0772 288.762 27.0772ZM314.667 19.8397L314.667 27.7958H320.001V32.6721H314.667V45.8126C314.667 47.0445 314.872 47.8658 315.282 48.2764C315.692 48.687 316.513 48.8924 317.744 48.8924C318.633 48.8924 319.386 48.8239 320.001 48.687V54.3846C318.976 54.5557 317.539 54.6413 315.693 54.6413C312.888 54.6413 310.802 54.1622 309.434 53.2041C308.066 52.2459 307.382 50.5862 307.382 48.2251V32.6721H302.971V27.7958H307.382V19.8397H314.667Z" fill="#102D4D"/>
</g>
<defs>
<clipPath id="clip0_145_158">
<rect width="320" height="80" fill="white"/>
</clipPath>
</defs>
</svg>
