<svg width="256" height="64" viewBox="0 0 256 64" fill="none" xmlns="http://www.w3.org/2000/svg">
<g clip-path="url(#clip0_145_279)">
<path d="M9.47852 38.1767V51.1074V52.3624V53.6174V54.6604L33.9949 34.5887C34.1694 34.4456 34.3823 34.3743 34.5951 34.3743C34.808 34.3743 35.0209 34.4456 35.1954 34.5887L59.7118 54.6604V53.6174V52.3624V51.1074V38.1767L34.5951 19.8981L9.47852 38.1767Z" fill="url(#paint0_linear_145_279)"/>
<path d="M0 33.4075V59.327L7.58238 52.7514V37.6938C7.58238 37.3905 7.7277 37.1052 7.97251 36.927L34.0369 17.9588C34.3692 17.7171 34.82 17.7171 35.1523 17.9588L61.2167 36.927C61.4615 37.1052 61.6068 37.3905 61.6068 37.6938V52.7514L69.1892 59.327V33.4075L34.5946 5.71429L0 33.4075Z" fill="url(#paint1_linear_145_279)"/>
<path d="M96.2825 14.1469C99.4013 14.1469 101.864 14.9956 103.669 16.6929C105.475 18.3902 106.378 20.6761 106.378 23.5505C106.378 26.4523 105.475 28.7451 103.669 30.4287C101.864 32.1123 99.4148 32.9542 96.3235 32.9542H89.4702V43.4665H83.0273V14.1469H96.2825ZM94.5999 27.9444C96.4603 27.9444 97.8486 27.6022 98.7652 26.9178C99.6818 26.2334 100.14 25.111 100.14 23.5505C100.14 22.0448 99.6954 20.9362 98.8063 20.2244C97.9171 19.5125 96.5287 19.1567 94.641 19.1567H89.4702V27.9444H94.5999ZM122.177 21.6616C122.67 21.6616 123.094 21.73 123.449 21.8669V27.2873C122.82 27.1505 122.122 27.082 121.356 27.082C117.526 27.082 115.611 29.3543 115.611 33.8986V43.4665H109.784V22.2365H115.324V26.1786H115.406C115.98 24.8098 116.89 23.7148 118.135 22.8935C119.38 22.0722 120.727 21.6616 122.177 21.6616ZM135.309 21.6616C138.701 21.6616 141.383 22.695 143.352 24.7619C145.322 26.8288 146.307 29.5323 146.307 32.872C146.307 36.2393 145.302 38.9425 143.291 40.9821C141.28 43.0218 138.62 44.0414 135.309 44.0414C131.944 44.0414 129.277 43.0079 127.307 40.9411C125.337 38.8742 124.352 36.1846 124.352 32.872C124.352 29.45 125.358 26.726 127.368 24.7003C129.379 22.6746 132.026 21.6616 135.309 21.6616ZM130.179 32.872C130.179 35.0347 130.617 36.7045 131.493 37.8818C132.368 39.0591 133.64 39.6476 135.309 39.6476C137.033 39.6476 138.325 39.0453 139.187 37.8408C140.049 36.6362 140.48 34.98 140.48 32.872C140.48 30.6819 140.035 28.9983 139.146 27.8212C138.257 26.6441 136.964 26.0554 135.268 26.0554C133.627 26.0554 132.368 26.644 131.493 27.8212C130.617 28.9983 130.179 30.6819 130.179 32.872ZM162.024 21.6616C164.952 21.6616 167.291 22.6882 169.042 24.7414C170.793 26.7946 171.668 29.5734 171.668 33.0773C171.668 36.2803 170.827 38.9084 169.145 40.9616C167.462 43.0148 165.198 44.0414 162.353 44.0414C159.562 44.0414 157.442 42.9737 155.992 40.8384H155.91V50.9401H150.083V22.2365H155.623V24.9467H155.705C157.1 22.7566 159.207 21.6616 162.024 21.6616ZM155.705 32.9131C155.705 34.9936 156.143 36.6361 157.018 37.8408C157.893 39.0454 159.152 39.6476 160.793 39.6476C162.49 39.6476 163.755 39.0453 164.589 37.8408C165.424 36.6362 165.841 34.9936 165.841 32.9131C165.841 30.7778 165.39 29.1009 164.487 27.8828C163.584 26.6646 162.326 26.0554 160.711 26.0554C159.097 26.0554 157.859 26.6577 156.997 27.8622C156.136 29.0668 155.705 30.7505 155.705 32.9131ZM179.26 14.1469L185.785 34.761H185.867L192.474 14.1469H199.122L189.396 43.4665H182.133L172.612 14.1469H179.26ZM208.561 21.6616C210.558 21.6616 212.336 22.1269 213.896 23.0577C215.455 23.9885 216.68 25.3368 217.569 27.1025C218.458 28.8683 218.902 30.9009 218.902 33.2005C218.902 33.4195 218.889 33.7754 218.861 34.2682H203.554C203.609 35.9654 204.054 37.2863 204.888 38.2308C205.723 39.1753 207.002 39.6475 208.725 39.6475C209.792 39.6475 210.77 39.3806 211.659 38.8468C212.548 38.3129 213.116 37.6628 213.362 36.8962H218.492C216.987 41.6596 213.677 44.0413 208.561 44.0413C206.619 44.014 204.82 43.5896 203.165 42.7684C201.509 41.9471 200.189 40.6673 199.204 38.9289C198.22 37.1905 197.727 35.1716 197.727 32.872C197.727 30.7094 198.226 28.7381 199.225 26.9588C200.223 25.1795 201.55 23.8517 203.206 22.9756C204.861 22.0995 206.646 21.6616 208.561 21.6616ZM213.034 30.5724C212.76 28.9846 212.254 27.8349 211.516 27.1231C210.777 26.4112 209.724 26.0554 208.356 26.0554C206.933 26.0554 205.811 26.4592 204.991 27.2668C204.17 28.0744 203.691 29.1763 203.554 30.5724H213.034ZM231.009 21.6616C233.854 21.6616 236.077 22.2365 237.677 23.3863C239.278 24.5361 240.174 26.2197 240.365 28.4372H234.825C234.743 27.4242 234.374 26.692 233.717 26.2403C233.06 25.7886 232.103 25.5627 230.844 25.5627C229.75 25.5627 228.936 25.727 228.403 26.0555C227.869 26.384 227.602 26.8767 227.602 27.5338C227.602 28.0265 227.78 28.4372 228.136 28.7657C228.492 29.0942 229.032 29.3816 229.757 29.628C230.482 29.8744 231.282 30.0797 232.158 30.244C234.811 30.7641 236.685 31.298 237.78 31.8455C238.874 32.393 239.674 33.05 240.18 33.8165C240.687 34.5831 240.94 35.5275 240.94 36.6499C240.94 39.0316 240.071 40.859 238.334 42.132C236.597 43.4049 234.237 44.0414 231.255 44.0414C228.136 44.0414 225.708 43.3707 223.971 42.0293C222.234 40.6879 221.337 38.8674 221.283 36.5678H226.823C226.823 37.6629 227.247 38.5321 228.095 39.1754C228.943 39.8187 230.01 40.1404 231.296 40.1404C232.39 40.1404 233.3 39.9008 234.025 39.4217C234.75 38.9427 235.112 38.2788 235.112 37.4301C235.112 36.8826 234.887 36.4309 234.435 36.075C233.984 35.7191 233.348 35.4043 232.527 35.1305C231.706 34.8567 230.434 34.5419 228.71 34.186C227.343 33.9122 226.125 33.5426 225.058 33.0773C223.991 32.6119 223.177 32.0028 222.616 31.25C222.056 30.4971 221.775 29.5732 221.775 28.4782C221.775 27.082 222.11 25.8638 222.781 24.8235C223.451 23.7831 224.477 22.9961 225.858 22.4623C227.24 21.9285 228.957 21.6616 231.009 21.6616ZM251.732 15.8716L251.732 22.2365H256V26.1376H251.732V36.6499C251.732 37.6354 251.897 38.2925 252.225 38.621C252.553 38.9495 253.21 39.1137 254.195 39.1137C254.906 39.1137 255.508 39.059 256 38.9495V43.5076C255.18 43.6444 254.031 43.7129 252.553 43.7129C250.31 43.7129 248.641 43.3296 247.547 42.5631C246.452 41.7966 245.905 40.4688 245.905 38.5799V26.1376H242.376V22.2365H245.905V15.8716H251.732Z" fill="url(#paint2_linear_145_279)"/>
</g>
<defs>
<linearGradient id="paint0_linear_145_279" x1="9.47852" y1="19.8981" x2="59.7118" y2="19.8981" gradientUnits="userSpaceOnUse">
<stop stop-color="#B98947"/>
<stop offset="1" stop-color="#FAF0A1"/>
</linearGradient>
<linearGradient id="paint1_linear_145_279" x1="0" y1="5.71429" x2="69.1892" y2="5.71429" gradientUnits="userSpaceOnUse">
<stop stop-color="#B98947"/>
<stop offset="1" stop-color="#FAF0A1"/>
</linearGradient>
<linearGradient id="paint2_linear_145_279" x1="83.0273" y1="14.1469" x2="256" y2="14.1469" gradientUnits="userSpaceOnUse">
<stop stop-color="#B98947"/>
<stop offset="1" stop-color="#FAF0A1"/>
</linearGradient>
<clipPath id="clip0_145_279">
<rect width="256" height="64" fill="white"/>
</clipPath>
</defs>
</svg>
