<svg width="48" height="48" viewBox="0 0 48 48" fill="none" xmlns="http://www.w3.org/2000/svg">
<path d="M14.608 8.61499C10.6994 10.4263 6.25055 16.0509 4.78879 21.0399C4.47101 22.1204 4.18502 24.6626 4.05791 27.6178C3.77191 34.8313 4.50279 37.4688 7.20387 38.867C8.41141 39.5026 9.07873 39.5661 13.0827 39.5979C17.182 39.6297 17.6586 39.5661 18.4848 38.9624C19.9148 37.8819 20.5186 35.7528 20.7092 31.0498C20.9635 25.0757 20.3279 23.9635 16.5146 23.4232C12.7967 22.9148 12.0976 22.2157 12.8285 19.7688C13.4958 17.5126 17.3091 14.3985 19.4064 14.3667C20.9317 14.3667 21.8532 11.9834 20.9952 10.2992C19.8195 8.043 17.3091 7.37568 14.608 8.61499Z" fill="#102D4D"/>
<path d="M37.7283 8.77429C34.6777 10.2043 31.1187 14.1764 29.1802 18.371C28.3223 20.1824 28.0363 21.4217 27.5914 24.8854C26.8605 30.8595 27.3372 35.3084 28.9578 37.501C30.1336 39.0899 31.5318 39.503 36.0442 39.6937C39.4761 39.8208 40.1752 39.7572 41.1285 39.2488C43.4483 38.0412 44.1156 35.9121 44.1474 29.6202C44.1474 24.7265 43.5754 23.9639 39.3172 23.2965C36.5526 22.8517 36.0442 22.5339 36.0442 21.1675C36.0442 18.9748 37.9826 16.4326 40.8108 15.0026C41.5099 14.6531 42.3361 14.3671 42.7174 14.3671C43.7978 14.3671 44.624 13.2549 44.624 11.7296C44.624 8.45652 41.4145 7.05831 37.7283 8.77429Z" fill="#102D4D"/>
</svg>
