<svg width="92" height="92" viewBox="0 0 92 92" fill="none" xmlns="http://www.w3.org/2000/svg">
<rect x="0.5" y="0.5" width="91" height="91" rx="7.5" stroke="#102D4D" stroke-opacity="0.24"/>
<path d="M39.9127 25.998C39.7444 26.0664 39.555 26.2452 39.4656 26.4136C39.434 26.4872 39.171 27.3868 38.8869 28.4126L38.3766 30.2853L37.819 30.4589C37.0983 30.6799 36.4565 30.9324 35.7095 31.2849C35.3781 31.4427 35.0888 31.5689 35.0572 31.5689C35.0309 31.5689 34.1892 31.1113 33.1897 30.5536C31.5274 29.633 31.3485 29.5436 31.1223 29.5489C30.975 29.5489 30.8119 29.591 30.7173 29.6541C30.6331 29.7067 30.0439 30.2485 29.4126 30.8587C28.7761 31.4637 27.9765 32.237 27.624 32.5684C26.8665 33.2944 26.7403 33.4785 26.7718 33.8204C26.7929 34.0256 26.9612 34.336 27.8134 35.7248C28.371 36.6349 28.8392 37.4187 28.8498 37.466C28.8655 37.5186 28.7551 37.7764 28.613 38.0447C28.2974 38.6286 27.9397 39.4703 27.7345 40.091C27.6503 40.3383 27.5609 40.5645 27.5293 40.5961C27.4978 40.6276 26.5877 40.8749 25.5093 41.1432C24.252 41.4535 23.4892 41.6692 23.384 41.7429C23.2893 41.806 23.1683 41.9375 23.1105 42.0375C23.0053 42.2163 23 42.2952 23 44.8256C23 47.3559 23.0053 47.4348 23.1105 47.6137C23.1683 47.7136 23.2893 47.8451 23.3735 47.903C23.4682 47.9661 24.3257 48.2081 25.5409 48.5079L27.5504 49.0077L27.7135 49.5075C27.9081 50.0966 28.3553 51.1277 28.6551 51.6748C28.7708 51.8852 28.8655 52.0904 28.8655 52.1325C28.8655 52.1693 28.4026 52.9584 27.8345 53.8895C26.735 55.6781 26.6666 55.8307 26.8139 56.1936C26.856 56.2883 27.6556 57.0985 28.7971 58.1927C30.8119 60.1233 30.8856 60.1811 31.2696 60.1022C31.3538 60.0865 32.2376 59.6183 33.2318 59.0606L35.0414 58.0454L35.6254 58.3189C36.3566 58.6661 37.2772 59.0291 37.8874 59.2132C38.1504 59.2921 38.3661 59.3605 38.3714 59.3658C38.3766 59.371 38.6081 60.2022 38.8869 61.2122C39.1657 62.2275 39.4024 63.0955 39.4182 63.1481C39.4761 63.3427 39.7549 63.59 39.9758 63.6531C40.1389 63.7005 40.928 63.711 42.8323 63.7005C45.3679 63.6847 45.4679 63.6794 45.6467 63.5795C45.7467 63.5163 45.8677 63.4006 45.9203 63.3164C45.9676 63.227 46.2412 62.3064 46.5305 61.2648L47.0513 59.371L47.7825 59.129C48.6242 58.8502 49.245 58.5977 49.9025 58.2716L50.3655 58.0401L52.0436 58.9765L53.7217 59.9129L53.7322 61.0649C53.7428 62.4011 53.8059 62.743 54.1899 63.5269C54.7528 64.6684 55.8365 65.5364 57.1148 65.8783C57.7303 66.0414 58.7876 66.0414 59.4031 65.8731C61.0181 65.4417 62.1754 64.2791 62.6489 62.6273C62.7594 62.2275 62.7646 62.1223 62.7857 59.5762L62.8014 56.9354L63.0066 56.7723C63.3854 56.4724 63.4432 56.3041 64.1376 53.6054C64.59 51.8589 64.8478 50.9541 64.9583 50.7226C65.0898 50.4544 65.2687 50.2492 65.8315 49.6968C66.2208 49.3181 66.6837 48.8288 66.8626 48.6132C67.8253 47.4243 68.5197 45.9566 68.8458 44.431C69.0142 43.6577 69.051 42.1006 68.9247 41.2589C68.6249 39.2599 67.7411 37.4976 66.2945 35.9983C65.3213 34.9883 64.5111 34.3991 63.2433 33.7784C61.7651 33.0524 60.3658 32.7105 58.614 32.6368L57.8302 32.6053L56.2783 31.1113C54.6318 29.5331 54.5371 29.4647 54.1531 29.5489C54.0584 29.5647 53.1799 30.0328 52.2014 30.5799C51.1914 31.1481 50.3813 31.5637 50.3339 31.5531C50.2866 31.5374 49.8815 31.3585 49.4238 31.1533C48.9714 30.9482 48.2507 30.6641 47.8246 30.5273L47.0513 30.2696L46.5305 28.381C46.2412 27.3447 45.9676 26.4188 45.9203 26.3347C45.8677 26.2452 45.7256 26.1242 45.5941 26.0559C45.3627 25.9401 45.3574 25.9401 42.7008 25.9454C41.07 25.9454 39.9916 25.9664 39.9127 25.998ZM45.1154 29.4384C45.3995 30.4484 45.652 31.3269 45.6836 31.3848C45.8046 31.6058 45.9729 31.6899 46.7462 31.9161C47.7825 32.216 48.3296 32.4317 49.3712 32.9472C50.1287 33.3207 50.255 33.368 50.4496 33.347C50.6075 33.326 51.1546 33.0471 52.4223 32.3422L54.1689 31.3638L54.9474 32.1108C55.3735 32.5211 55.726 32.8735 55.7365 32.8893C55.7418 32.9051 55.6155 32.9472 55.4472 32.9893C54.5371 33.1892 53.143 33.7836 52.2224 34.3518C51.6333 34.72 50.981 35.2303 50.4339 35.7616L49.9814 36.193L49.487 35.8247C45.6362 32.9577 40.3914 32.8209 36.4144 35.4775C33.0635 37.7185 31.1223 41.6692 31.4327 45.6252C31.7115 49.155 33.5106 52.2114 36.4828 54.2051C37.0141 54.5629 38.2188 55.1678 38.8606 55.3993C41.9959 56.5408 45.5889 56.1989 48.5085 54.484C49.5711 53.8579 50.7232 52.869 51.4544 51.9589C51.6543 51.7116 51.8279 51.5117 51.8332 51.5223C51.8384 51.5275 52.1067 52.5586 52.4276 53.8159C52.7538 55.0679 53.0641 56.1884 53.122 56.3041C53.1799 56.4146 53.3324 56.604 53.4587 56.725L53.6954 56.9512V57.4614C53.6954 57.7455 53.6796 57.977 53.6638 57.977C53.6481 57.977 52.9537 57.5982 52.1225 57.1353C50.8652 56.4356 50.5706 56.2936 50.397 56.2936C50.234 56.2936 49.9499 56.4093 49.2292 56.7618C48.3612 57.1879 47.0513 57.6719 46.2464 57.8718C45.9887 57.9349 45.7783 58.0874 45.6783 58.2821C45.6362 58.361 45.389 59.2185 45.1207 60.1864C44.8577 61.1544 44.6262 61.9645 44.6157 61.9855C44.5999 62.0066 43.7372 62.0276 42.7008 62.0276H40.8123L40.7492 61.8014C40.3441 60.2653 39.8391 58.4872 39.7707 58.3294C39.6444 58.0454 39.5024 57.9612 38.7291 57.7455C37.8401 57.493 36.7353 57.0511 35.9252 56.6303C35.4255 56.3672 35.2308 56.2936 35.052 56.2936C34.8573 56.2936 34.5943 56.4251 33.074 57.2668C32.1113 57.8034 31.2907 58.24 31.2591 58.2295C31.1381 58.1979 28.6814 55.8044 28.6867 55.7202C28.6867 55.6728 29.118 54.9311 29.6494 54.0684C30.1807 53.2056 30.6331 52.4218 30.6594 52.3324C30.733 52.0799 30.6752 51.9063 30.2806 51.2171C29.8387 50.4333 29.4705 49.5811 29.1759 48.6605C29.0549 48.2712 28.9181 47.903 28.8813 47.8399C28.7498 47.64 28.4342 47.5347 26.5298 47.056L24.6571 46.5878V44.8203V43.0475L26.6193 42.5635C28.5289 42.0848 28.5815 42.069 28.7656 41.8849C28.9076 41.7429 28.9813 41.5956 29.0707 41.301C29.3705 40.2646 29.8387 39.1704 30.3543 38.2919C30.6752 37.7448 30.733 37.566 30.6594 37.3135C30.6278 37.2188 30.1702 36.4244 29.6336 35.5459C29.0917 34.6674 28.6551 33.9309 28.6551 33.9046C28.6551 33.8257 31.2433 31.3848 31.3064 31.4006C31.3327 31.4111 32.1429 31.853 33.095 32.3896C34.5364 33.1892 34.8731 33.3575 35.0467 33.3575C35.1993 33.3575 35.4412 33.2628 35.9673 32.9945C36.951 32.4895 38.3661 31.9477 39.071 31.8057C39.3446 31.7478 39.6181 31.5794 39.7233 31.4058C39.7707 31.3217 40.0337 30.4484 40.3073 29.4647C40.5756 28.4862 40.8123 27.6551 40.8333 27.6235C40.8544 27.5867 41.4751 27.5762 42.7376 27.5814L44.6051 27.5972L45.1154 29.4384ZM59.0349 34.3044C62.3227 34.5727 65.2055 36.4402 66.5575 39.1704C67.173 40.4225 67.3466 41.1747 67.3466 42.6161C67.3466 43.4999 67.3308 43.7156 67.2256 44.189C67.0572 44.9308 66.8363 45.5357 66.5049 46.1828C66.0683 47.0245 65.6842 47.5137 64.7373 48.4606C63.7431 49.4496 63.4748 49.8336 63.2223 50.6385C63.1381 50.8962 62.8278 52.1009 62.5279 53.3056C62.0597 55.1836 61.9703 55.5045 61.8808 55.5255C61.823 55.5413 60.1554 55.5466 58.1721 55.5413L54.5687 55.5308L53.9269 53.0583C53.5744 51.6959 53.2377 50.4544 53.1746 50.2965C52.9589 49.7705 52.517 49.176 51.9279 48.6289C50.4602 47.2612 49.65 45.8882 49.2713 44.0891C49.1029 43.3 49.1029 41.9322 49.2713 41.1432C49.992 37.7659 52.6906 35.204 56.3099 34.4675C57.241 34.2729 58.0722 34.2255 59.0349 34.3044ZM43.5425 35.2513C45.4731 35.4249 47.3038 36.1667 48.8346 37.3976L48.9872 37.5239L48.7873 37.8711C48.2455 38.818 47.8825 39.7807 47.6615 40.8223C47.5353 41.4114 47.5195 41.6061 47.5195 42.5635C47.5142 43.784 47.5826 44.2785 47.893 45.2937C48.3507 46.814 49.1871 48.2028 50.3602 49.3917L50.8968 49.9283L50.6811 50.2334C48.9293 52.7059 46.3622 54.1736 43.3952 54.3945C41.6592 54.5313 39.9548 54.1788 38.3346 53.3635C37.4297 52.9058 36.7669 52.4481 36.062 51.7748C32.7373 48.6132 32.085 43.6524 34.4838 39.7859C34.8626 39.1757 35.1782 38.7759 35.7306 38.2025C36.8563 37.0347 38.1189 36.2298 39.6287 35.73C40.9648 35.2829 42.1958 35.1356 43.5425 35.2513ZM61.1654 58.9239C61.1654 60.9018 61.2233 60.6967 60.6131 60.8335C58.9823 61.2122 57.1516 61.1859 55.5997 60.7703L55.3788 60.7072V58.9502V57.1879H58.2721H61.1654V58.9239ZM56.2415 62.58C56.5046 62.6221 57.0516 62.6852 57.4672 62.722C58.3405 62.7904 59.5294 62.722 60.3974 62.5537C60.6867 62.4958 60.9339 62.459 60.9445 62.4748C61.0181 62.5484 60.5815 63.2428 60.2711 63.5532C59.3926 64.4317 57.9828 64.6211 56.8307 64.0108C56.2941 63.7268 55.7155 63.0692 55.5629 62.5589C55.5313 62.4485 55.5366 62.4379 55.6471 62.4642C55.7155 62.48 55.9838 62.5326 56.2415 62.58Z" fill="#122E4D"/>
<path d="M60.4542 35.9351C60.3385 35.9929 60.1964 36.1034 60.1438 36.1823C60.0018 36.3769 59.9755 36.7662 60.086 37.0082C60.1964 37.2344 60.3437 37.3502 60.7698 37.5132C61.6483 37.8552 62.3217 38.2918 62.9845 38.9546C63.9577 39.9226 64.4943 41.0694 64.568 42.3372C64.589 42.6896 64.6311 42.8737 64.71 43.0158C65.0046 43.5418 65.7516 43.5524 66.0935 43.0368C66.4144 42.5686 66.0777 40.6906 65.4728 39.5701C65.0835 38.8494 64.7731 38.4391 64.1366 37.7973C63.2739 36.9293 62.2796 36.2928 61.2485 35.9351C60.8593 35.8035 60.7172 35.8035 60.4542 35.9351Z" fill="#122E4D"/>
<path d="M45.4368 41.8006C45.3264 41.8532 44.3269 42.8053 42.9118 44.2204C41.6229 45.5093 40.555 46.5614 40.534 46.5614C40.513 46.5614 40.1131 46.0248 39.645 45.3725C38.8874 44.3099 38.7717 44.1731 38.5613 44.0784C38.2404 43.9364 37.9616 43.989 37.688 44.2415C37.5197 44.3993 37.4776 44.4782 37.4566 44.6781C37.4408 44.8149 37.4408 44.9832 37.4618 45.0569C37.5144 45.2725 39.8291 48.471 40.0079 48.5709C40.1921 48.6814 40.6182 48.6919 40.7865 48.5972C41.0022 48.4762 46.3995 43.0789 46.4942 42.8895C46.6152 42.6633 46.6205 42.4634 46.5205 42.2267C46.3574 41.8374 45.8209 41.6322 45.4368 41.8006Z" fill="#122E4D"/>
</svg>
