<svg width="92" height="92" viewBox="0 0 92 92" fill="none" xmlns="http://www.w3.org/2000/svg">
<rect x="0.5" y="0.5" width="91" height="91" rx="7.5" stroke="#102D4D" stroke-opacity="0.24"/>
<path d="M29.1185 24.2366C28.2404 24.5253 27.6257 24.8893 26.8604 25.6046C23.787 28.4662 24.6526 33.6622 28.4912 35.3817C30.7242 36.3732 33.2707 35.8962 35.052 34.1642C35.8549 33.3735 36.595 32.0181 36.7456 31.0768L36.8208 30.5245H40.6971C44.2848 30.5245 44.5859 30.5371 44.6486 30.7379C44.887 31.4909 45.3135 32.2314 45.7776 32.6581C46.5805 33.3861 47.0196 33.5744 48.1611 33.6371C49.0769 33.6873 49.265 33.6497 49.8546 33.3735C50.9084 32.8715 51.5732 32.1436 51.9245 31.1019L52.1252 30.5245H56.4782C61.3204 30.5245 61.4584 30.5371 63.0766 31.378C64.6572 32.1938 65.8991 33.6873 66.5389 35.5448C66.8901 36.5865 66.9403 38.6574 66.6267 39.6364C65.8615 42.0586 64.0425 43.891 61.6465 44.6692C60.8186 44.9328 57.7703 45.0457 57.695 44.8198C57.419 43.8534 57.1305 43.3263 56.6162 42.8117C54.6592 40.8538 51.2973 41.6319 50.4066 44.255L50.1682 44.9579L46.2794 44.9328L42.4032 44.8951L42.2401 44.3303C41.6756 42.4226 39.5054 41.293 37.5233 41.8704C36.3818 42.1967 35.2151 43.4392 34.9768 44.5437L34.889 44.9579H33.622C30.9751 44.9704 29.131 45.6984 27.4375 47.3927C25.6562 49.1875 24.9035 51.1705 25.0415 53.7308C25.1544 55.9272 25.8443 57.4835 27.45 59.09C28.5163 60.1568 29.131 60.5584 30.5736 61.1106L31.4643 61.4621L36.018 61.4997C40.2706 61.5374 40.5591 61.5499 40.5591 61.7633C40.5591 62.19 41.3243 63.5329 41.7885 63.9095C42.9551 64.8759 44.7615 65.0516 46.0662 64.3362C47.0823 63.7965 47.6468 63.0184 48.0357 61.6754C48.0733 61.5625 48.9891 61.5248 52.075 61.5248H56.0642L56.2147 62.2528C56.8294 65.2398 59.9279 67.4111 62.8884 66.9342C64.0802 66.7334 65.4099 66.0556 66.2378 65.2022C69.0604 62.3155 68.2701 57.5211 64.6572 55.7138C62.3867 54.5717 59.9028 54.9482 58.0211 56.6928C57.1054 57.5462 56.5409 58.4875 56.2774 59.6297L56.0642 60.5208L52.0499 60.4957L48.0482 60.458L47.8851 59.8932C47.7848 59.5795 47.4963 59.0523 47.2454 58.7135C45.8906 56.9564 43.2562 56.7555 41.7007 58.2867C41.1613 58.8139 40.5591 59.8681 40.5591 60.2948C40.5591 60.5082 40.2831 60.5208 36.6452 60.5208C32.2044 60.5208 31.5396 60.4329 30.0468 59.6924C27.1866 58.2867 25.5307 54.9357 26.183 51.8608C26.735 49.2628 28.5791 47.1919 31.0629 46.4012C31.8657 46.1376 32.2922 46.0874 33.4714 46.0874H34.9141L34.9893 46.4263C35.2402 47.468 36.2563 48.5976 37.2724 48.9741C39.4552 49.7899 41.6254 48.6603 42.3655 46.3008C42.4283 46.1 42.7042 46.0874 46.3422 46.1125L50.2561 46.1502L50.4317 46.7652C50.67 47.5935 51.7865 48.7231 52.6521 49.0117C53.4424 49.2879 54.5212 49.2879 55.3115 49.0117C56.1645 48.7231 57.2559 47.6186 57.5444 46.7652L57.7577 46.1251L59.3634 46.0372C61.1698 45.9494 62.4368 45.6481 63.5157 45.0708C65.6106 43.9538 67.141 41.9959 67.7306 39.6866C68.0066 38.6197 67.9941 36.7371 67.7181 35.6703C67.141 33.4237 65.4099 31.2776 63.3902 30.2861C61.7092 29.4703 61.1824 29.395 56.3527 29.395H52.1503L51.937 28.7172C51.3725 26.935 49.3278 25.8055 47.4712 26.2573C46.2293 26.5585 45.1253 27.6002 44.7615 28.8176L44.611 29.3322L40.7222 29.3699L36.8334 29.395L36.7456 28.78C36.5699 27.437 35.3782 25.705 34.0359 24.8516C32.7313 24.0233 30.6238 23.7597 29.1185 24.2366ZM32.7438 25.4038C33.2833 25.6046 33.6972 25.8933 34.2994 26.5083C35.3908 27.5877 35.7044 28.3658 35.7169 29.9597C35.7295 30.9764 35.6918 31.1772 35.328 31.9428C34.5377 33.5995 33.0575 34.6412 31.2761 34.7541C29.0683 34.9047 27.1741 33.7124 26.3461 31.6164C25.9698 30.6877 25.9823 29.0937 26.3712 28.1022C26.9106 26.7342 28.4536 25.4415 29.9213 25.1277C30.6865 24.9646 31.9034 25.0901 32.7438 25.4038ZM49.8295 27.6755C50.7955 28.3156 51.222 29.3824 50.9711 30.5245C50.7704 31.4156 49.9424 32.3067 49.0894 32.5326C47.4084 32.997 45.7024 31.6917 45.7024 29.9472C45.7024 28.8678 46.1414 28.1273 47.1074 27.5626C47.86 27.1233 49.0643 27.1735 49.8295 27.6755ZM39.9444 43.1129C40.2455 43.2761 40.672 43.6526 40.8727 43.9412C41.2114 44.4307 41.2491 44.5688 41.2491 45.4473C41.2491 46.3008 41.2114 46.489 40.8978 46.9534C40.258 47.9198 39.1918 48.3466 38.0627 48.0955C36.7456 47.8069 35.7169 46.2882 35.9803 45.0583C36.1811 44.1421 36.6954 43.4518 37.4857 43.0376C38.0753 42.7238 39.2796 42.7615 39.9444 43.1129ZM55.5122 43.2635C56.2147 43.7655 56.6538 44.619 56.6412 45.5101C56.6162 48.3466 52.8402 49.1749 51.5481 46.6146C51.2094 45.9494 51.2596 44.8198 51.6485 44.1421C52.2256 43.1757 52.9155 42.8117 54.1323 42.8619C54.8348 42.887 55.0606 42.9623 55.5122 43.2635ZM63.202 56.3288C64.6823 56.7053 65.736 57.5839 66.426 58.9896C66.8023 59.7552 66.84 59.9309 66.84 61.0228C66.84 62.0896 66.8023 62.303 66.4511 63.0309C65.9368 64.1103 65.0963 64.9512 64.0425 65.4532C63.2773 65.8172 63.0891 65.8548 62.0103 65.8548C60.9817 65.8548 60.7182 65.8046 60.091 65.5159C57.0552 64.0977 56.2022 60.2321 58.3975 57.8224C59.1376 57.0066 59.8025 56.5798 60.7559 56.3288C61.6591 56.0904 62.2988 56.0904 63.202 56.3288ZM45.5769 58.6884C45.9533 58.8766 46.2543 59.1527 46.5052 59.5544C47.7848 61.6252 46.0411 64.1479 43.6953 63.6459C43.1809 63.5329 42.9049 63.3698 42.4408 62.9179C41.2616 61.7758 41.2616 60.2697 42.4408 59.1151C43.3691 58.224 44.3727 58.0859 45.5769 58.6884Z" fill="#122E4D" stroke="#16304E" stroke-width="0.32"/>
<path d="M31.0269 28.328V28.7547L29.8728 28.7924L28.7061 28.83L28.6685 29.922L28.6309 31.0264H29.8226H31.0143L31.052 31.541L31.0896 32.043L32.5949 31.0139C33.4229 30.4491 34.1254 29.9722 34.1379 29.9596C34.1881 29.9094 31.2025 27.8887 31.0896 27.8887C31.052 27.8887 31.0269 28.0896 31.0269 28.328Z" fill="#122E4D"/>
<path d="M62.0742 64.766C60.9051 64.7787 60.0373 64.3959 59.2867 63.5559C58.6256 62.8181 58.3197 62.0147 58.3197 61.0227C58.3197 59.2789 59.4149 57.8527 61.1182 57.3694C62.2806 57.0371 63.6923 57.4463 64.6449 58.374L64.645 58.3741C67.0121 60.6914 65.3835 64.7404 62.0742 64.766ZM62.0742 64.766C62.0742 64.766 62.0742 64.766 62.0743 64.766L62.0737 64.7126L62.0741 64.766C62.0741 64.766 62.0742 64.766 62.0742 64.766ZM62.7494 58.564L62.7491 58.5639C61.4952 58.2072 60.2797 58.7718 59.7261 59.9658C59.4974 60.4606 59.4122 60.9305 59.4703 61.3815C59.5283 61.8324 59.7302 62.2688 60.0825 62.6956C61.5799 64.5006 64.592 63.3844 64.592 61.0227C64.592 59.9417 63.767 58.8461 62.7494 58.564Z" fill="#122E4D" stroke="#122E4D" stroke-width="0.106667"/>
<path d="M61.4338 59.843C60.2169 60.4329 60.6685 62.4033 62.0108 62.4033C62.6757 62.4033 63.3907 61.6879 63.3907 61.0227C63.3907 60.5584 63.0144 60.0061 62.5753 59.8179C62.0359 59.6045 61.923 59.6045 61.4338 59.843Z" fill="#122E4D"/>
</svg>
